<?xml version="1.0" standalone="no"?>
<!DOCTYPE svg PUBLIC "-//W3C//DTD SVG 20010904//EN"
 "http://www.w3.org/TR/2001/REC-SVG-20010904/DTD/svg10.dtd">
<svg version="1.0" xmlns="http://www.w3.org/2000/svg"
 width="1024.000000pt" height="1024.000000pt" viewBox="0 0 1024.000000 1024.000000"
 preserveAspectRatio="xMidYMid meet">
<metadata>
Created by potrace 1.16, written by Peter Selinger 2001-2019
</metadata>
<g transform="translate(0.000000,1024.000000) scale(0.100000,-0.100000)"
fill="#000000" stroke="none">
<path d="M240 10234 c0 -10 24 -28 63 -48 47 -24 207 -200 276 -305 13 -20 39
-53 57 -73 18 -20 54 -69 81 -110 26 -40 72 -97 100 -128 86 -89 68 -96 -45
-16 -353 250 -626 426 -659 426 -28 0 -41 -18 -63 -92 -10 -34 -27 -84 -36
-109 -17 -44 -17 -46 5 -91 14 -31 32 -50 52 -59 17 -7 101 -54 188 -105 86
-51 176 -104 201 -119 25 -14 72 -42 105 -62 33 -19 80 -47 105 -61 25 -14 57
-33 72 -44 65 -45 158 -73 158 -47 0 21 62 99 79 99 32 0 80 -82 61 -105 -8
-9 -6 -14 5 -18 8 -4 12 -12 10 -19 -3 -8 6 -29 20 -48 14 -19 25 -44 25 -57
0 -16 6 -23 20 -23 13 0 18 -5 14 -15 -4 -8 5 -30 19 -49 15 -18 24 -36 22
-38 -3 -3 4 -13 14 -22 11 -10 17 -24 14 -32 -3 -8 1 -14 11 -14 10 0 19 -11
23 -30 3 -16 10 -30 15 -30 5 0 7 -4 3 -9 -3 -5 4 -13 15 -16 12 -4 19 -12 17
-18 -2 -6 5 -21 15 -31 10 -11 16 -26 14 -32 -3 -7 2 -15 10 -18 17 -7 19 -32
2 -39 -8 -4 -4 -8 10 -12 12 -4 22 -15 22 -26 0 -11 5 -19 11 -19 8 0 8 -5 -1
-15 -10 -12 -10 -15 2 -15 13 0 15 -7 21 -65 1 -17 8 -25 21 -25 29 0 130 28
271 75 72 24 231 71 355 104 220 58 630 178 760 221 36 12 137 46 225 77 225
78 203 78 258 -9 26 -40 70 -98 99 -128 46 -50 42 -42 -42 82 -51 76 -91 140
-88 143 2 3 180 63 394 133 370 123 526 183 566 219 20 18 48 69 48 87 0 6 13
28 30 47 16 20 35 57 42 82 11 43 10 48 -14 84 -15 21 -34 67 -43 103 -8 36
-19 68 -23 72 -5 5 -57 -10 -118 -32 -60 -22 -179 -60 -264 -86 -168 -49 -202
-61 -575 -189 -137 -48 -302 -103 -365 -124 -63 -21 -130 -46 -148 -55 -19
-10 -85 -35 -148 -57 -64 -22 -134 -48 -157 -58 -23 -11 -58 -24 -77 -30 -19
-6 -111 -37 -205 -70 -259 -89 -382 -128 -468 -147 l-78 -16 -17 23 c-9 13
-44 56 -77 94 -33 39 -90 106 -125 150 -36 45 -97 119 -137 165 -117 138 -339
430 -528 695 l-92 130 -217 3 c-119 1 -216 0 -216 -4z m936 -953 c9 -19 55
-86 103 -150 110 -148 151 -211 184 -286 l27 -60 -31 35 c-41 48 -272 381
-335 484 -29 47 -49 87 -46 91 9 9 78 -71 98 -114z"/>
<path d="M1100 10230 c0 -5 6 -10 13 -10 7 0 33 -9 56 -21 39 -19 81 -26 106
-18 34 10 84 -19 158 -92 72 -72 111 -99 123 -86 12 12 -40 87 -108 160 l-73
77 -138 0 c-85 0 -137 -4 -137 -10z"/>
<path d="M5335 10204 c-71 -19 -137 -37 -145 -41 -19 -8 -158 -47 -280 -79
-52 -13 -112 -32 -132 -41 -36 -15 -38 -19 -38 -60 0 -24 6 -59 14 -78 28 -67
223 -309 366 -456 19 -19 49 -52 65 -73 56 -70 219 -254 322 -364 57 -62 74
-74 105 -77 44 -5 60 13 30 33 -11 7 -87 88 -169 180 -321 360 -419 470 -482
537 -125 132 -196 216 -205 241 -6 13 -13 24 -18 24 -4 0 -8 5 -8 10 0 6 21 0
48 -13 44 -22 51 -23 102 -11 144 32 333 85 371 103 24 12 53 21 66 21 13 0
23 6 23 14 0 11 -6 12 -35 2 -19 -7 -37 -15 -41 -18 -10 -11 -88 2 -102 16
-11 11 0 18 65 39 81 27 203 40 209 22 4 -10 -54 -41 -68 -37 -5 1 -8 -2 -8
-8 0 -18 68 -11 145 15 42 14 102 31 133 36 79 15 215 59 224 73 4 6 8 14 8
19 0 4 -98 7 -217 6 -215 -1 -220 -1 -348 -35z"/>
<path d="M8818 10225 c-32 -12 -110 -34 -293 -83 -33 -9 -69 -21 -80 -28 -11
-6 -51 -23 -90 -37 -206 -74 -244 -90 -250 -104 -6 -18 34 -15 175 12 41 8
113 22 160 31 47 8 135 27 197 41 76 17 123 23 150 19 21 -4 59 -10 86 -12 43
-5 47 -8 47 -33 0 -15 5 -32 12 -39 9 -9 9 -12 -3 -12 -9 0 -24 -9 -34 -20
-10 -11 -23 -20 -30 -20 -6 0 -34 -11 -61 -24 -28 -13 -90 -36 -139 -51 -50
-15 -127 -40 -173 -56 -106 -37 -192 -57 -278 -64 -62 -6 -193 -38 -399 -97
-38 -11 -108 -30 -155 -44 -47 -13 -130 -39 -185 -58 -132 -45 -353 -114 -550
-171 -158 -47 -414 -127 -860 -269 -126 -41 -270 -86 -320 -102 -63 -20 -83
-29 -66 -32 19 -3 21 -6 10 -13 -12 -7 -11 -9 2 -9 18 0 19 0 299 86 102 31
208 62 235 70 28 7 136 43 240 80 105 36 226 76 270 88 195 55 388 114 629
192 142 46 261 82 264 79 3 -2 -1 -7 -9 -9 -8 -2 -129 -43 -269 -89 -140 -47
-349 -113 -465 -147 -115 -34 -300 -93 -410 -130 -255 -86 -404 -134 -635
-205 -102 -31 -243 -76 -315 -100 -71 -24 -202 -66 -290 -93 -467 -147 -583
-187 -578 -195 3 -6 1 -7 -5 -3 -13 8 -94 -13 -103 -27 -3 -4 -10 -7 -15 -5
-5 1 -20 -4 -33 -11 -13 -7 -21 -9 -18 -3 4 5 -9 5 -33 -1 -21 -6 -36 -15 -33
-20 3 -6 1 -7 -5 -3 -15 9 -137 -26 -507 -144 -170 -54 -380 -120 -465 -146
-85 -25 -245 -75 -355 -109 -110 -35 -290 -91 -400 -125 -199 -61 -629 -196
-800 -251 -49 -16 -144 -44 -210 -63 -66 -19 -239 -72 -385 -119 -305 -98
-413 -131 -710 -221 -118 -36 -242 -74 -274 -85 -33 -12 -69 -21 -80 -20 -12
0 13 12 54 26 l76 25 1 41 c2 37 18 62 34 51 12 -7 19 40 6 48 -9 6 -5 15 14
31 14 13 24 27 23 32 -4 13 15 37 46 58 32 23 22 22 -95 -8 -130 -33 -140 -37
-272 -104 l-113 -56 0 -102 c0 -100 0 -101 23 -97 l22 5 -22 -10 -23 -10 0
-442 c0 -278 4 -439 10 -437 5 2 58 48 117 103 59 55 137 122 173 147 36 26
94 72 130 102 36 31 101 83 145 117 44 34 95 76 114 93 25 23 31 26 23 10 -16
-30 -7 -34 62 -33 57 0 110 5 466 43 95 11 147 13 154 6 7 -7 2 -10 -15 -11
-19 -1 -20 -2 -5 -6 22 -6 37 -17 76 -55 l27 -27 87 95 c85 91 87 96 81 132
-5 33 -2 41 24 66 38 36 85 30 94 -12 4 -15 30 -67 60 -117 29 -49 93 -157
141 -240 49 -82 110 -186 136 -230 26 -44 76 -134 110 -200 35 -66 64 -121 66
-123 1 -2 18 0 37 3 l35 7 -46 81 c-130 235 -163 293 -236 412 -43 72 -115
191 -159 265 -43 74 -90 149 -103 167 -13 17 -24 35 -24 40 0 5 -11 24 -24 43
-13 19 -26 45 -30 57 -6 19 -2 23 31 29 21 4 46 11 55 15 13 7 24 -4 56 -59
21 -37 90 -150 152 -252 62 -102 130 -214 150 -250 105 -182 135 -236 207
-362 73 -128 80 -137 103 -132 14 3 26 7 28 9 5 5 -58 129 -104 205 -22 36
-66 112 -99 170 -32 58 -85 150 -118 205 -33 55 -91 153 -128 218 -38 64 -100
165 -139 222 -94 140 -94 139 -42 132 30 -3 40 -2 36 6 -3 7 1 4 9 -5 8 -10
20 -18 26 -18 21 0 47 -33 113 -140 36 -58 99 -159 140 -225 91 -147 244 -402
328 -550 34 -60 71 -125 82 -143 l20 -32 -24 -10 c-32 -15 6 -6 52 11 45 17
46 19 34 27 -5 4 -34 50 -63 102 -89 157 -234 399 -296 495 -32 50 -101 162
-153 250 -52 88 -114 192 -138 231 -24 40 -44 77 -44 83 0 10 70 51 88 51 13
0 202 -300 412 -655 115 -194 146 -246 205 -340 34 -55 72 -120 84 -144 19
-36 26 -42 44 -37 12 3 25 6 30 6 4 0 7 5 7 10 0 16 -294 500 -340 560 -30 40
-84 130 -205 345 -33 58 -40 85 -21 85 8 0 23 -11 33 -23 10 -13 28 -29 40
-35 12 -7 24 -21 28 -31 3 -11 18 -24 33 -29 20 -7 55 -53 132 -172 58 -89
148 -228 201 -309 53 -80 120 -184 149 -231 29 -47 62 -95 73 -107 16 -18 17
-23 6 -27 -8 -2 -68 -23 -134 -46 -272 -95 -404 -139 -439 -145 -20 -4 -39
-11 -42 -16 -2 -5 -24 -13 -47 -19 -23 -6 -82 -26 -132 -45 -49 -18 -117 -43
-150 -54 -33 -11 -166 -56 -295 -100 -129 -44 -243 -78 -253 -75 -9 3 -17 1
-17 -4 0 -5 -15 -17 -32 -25 -44 -20 -110 -38 -103 -27 3 4 -4 6 -15 3 -12 -3
-18 -8 -16 -11 8 -7 -216 -83 -228 -78 -6 2 -2 5 9 6 19 2 19 2 -2 8 -15 5
-43 48 -96 152 -176 343 -231 449 -267 510 -48 83 -90 167 -90 179 0 10 13 15
67 26 29 6 34 3 58 -36 82 -129 415 -759 418 -788 1 -16 4 -17 31 -6 17 7 32
17 34 23 4 12 -116 245 -318 618 -89 163 -159 298 -156 301 3 3 27 8 54 11 45
4 51 2 69 -24 47 -66 175 -290 250 -434 44 -86 108 -206 143 -268 34 -61 67
-126 74 -145 10 -31 13 -33 44 -25 17 5 32 13 32 19 0 14 -33 78 -81 155 -21
35 -80 144 -130 241 -50 98 -110 209 -134 248 -23 38 -61 104 -84 147 l-41 76
32 7 c18 4 43 13 55 21 25 16 29 11 83 -95 18 -36 42 -81 55 -100 12 -20 57
-99 100 -176 43 -77 103 -183 134 -235 30 -52 73 -129 94 -170 22 -41 41 -76
42 -78 1 -1 15 3 32 9 l31 10 -25 47 c-14 26 -29 52 -33 57 -4 6 -77 136 -162
290 -85 154 -169 303 -186 330 -17 28 -42 75 -56 106 l-25 56 46 7 c25 3 51 6
58 6 17 0 174 -267 418 -711 l80 -146 32 10 32 10 -32 56 c-18 31 -58 101 -90
156 -32 55 -81 143 -110 195 -28 52 -87 158 -131 235 -43 77 -88 157 -98 178
-31 60 -34 61 -154 48 -59 -7 -121 -17 -137 -22 -17 -5 -109 -11 -205 -14
l-175 -5 -65 -44 c-36 -23 -90 -64 -120 -89 -30 -26 -90 -76 -133 -112 l-79
-65 39 -1 c21 -1 52 -5 68 -9 21 -5 5 -8 -55 -9 l-85 -1 -71 -67 c-39 -38 -96
-90 -128 -117 l-58 -49 4 -111 c3 -106 5 -114 38 -170 19 -33 85 -156 145
-275 102 -201 112 -216 135 -213 14 2 29 7 33 12 5 4 -58 138 -139 298 l-147
290 34 31 c19 17 41 31 49 31 9 0 32 -28 52 -63 66 -114 268 -515 268 -531 0
-19 -1 -19 39 -5 17 6 31 17 31 23 0 7 -52 116 -117 242 -64 126 -137 271
-162 322 -31 65 -50 92 -63 92 -10 0 -15 5 -12 13 6 18 107 82 111 71 2 -5 42
-81 89 -169 47 -88 126 -244 177 -347 96 -195 99 -199 150 -180 15 7 7 28 -67
177 -46 94 -131 260 -190 370 -58 110 -106 201 -106 203 0 2 4 0 10 -3 5 -3
31 1 56 10 39 13 50 14 60 3 16 -16 56 -92 236 -448 124 -242 138 -275 121
-281 -71 -25 -105 -36 -243 -80 -85 -27 -179 -59 -208 -71 -30 -11 -74 -23
-98 -26 -24 -2 -41 -8 -39 -13 3 -4 -9 -12 -27 -17 -18 -6 -42 -13 -53 -17
-19 -7 -19 -7 -2 6 16 13 13 23 -48 143 -36 70 -77 144 -90 164 l-25 37 0 -70
c0 -64 4 -79 52 -177 40 -82 58 -108 73 -109 11 0 -4 -7 -33 -15 -39 -11 -58
-12 -73 -4 -19 11 -20 9 -17 -448 l3 -459 77 -159 c84 -173 159 -343 245 -554
30 -74 66 -160 80 -190 14 -30 48 -107 75 -170 28 -63 66 -151 85 -195 19 -44
40 -96 47 -115 8 -19 44 -102 81 -185 37 -82 89 -202 115 -265 27 -63 68 -158
93 -210 69 -144 164 -352 217 -475 26 -60 61 -137 78 -170 16 -33 37 -80 45
-105 9 -25 66 -153 127 -285 61 -132 127 -278 147 -325 36 -87 56 -134 100
-230 64 -139 71 -160 56 -160 -5 0 -17 21 -27 48 -10 26 -51 115 -91 197 -40
83 -101 213 -135 290 -35 77 -96 212 -137 300 -41 87 -116 254 -165 370 -49
115 -141 318 -203 450 -62 132 -138 301 -168 375 -31 74 -79 187 -107 250 -76
171 -161 367 -225 525 -31 77 -63 149 -70 161 -7 11 -45 96 -83 190 -39 93
-109 253 -156 356 -47 103 -86 191 -86 197 0 5 -5 13 -10 16 -7 4 -10 -70 -10
-230 1 -195 4 -237 16 -242 7 -3 11 -9 8 -14 -3 -6 0 -16 6 -24 7 -8 9 -15 5
-15 -4 0 -2 -7 5 -15 7 -8 10 -24 7 -36 -3 -12 0 -22 9 -26 8 -3 11 -9 8 -14
-3 -5 0 -9 5 -9 6 0 11 -6 11 -14 0 -8 7 -16 15 -20 8 -3 12 -12 9 -20 -3 -9
2 -16 13 -19 16 -3 15 -5 -5 -13 -21 -9 -21 -10 13 -28 36 -19 47 -46 20 -46
-24 0 -17 -18 12 -32 16 -7 28 -18 28 -23 1 -6 11 -26 23 -45 25 -39 26 -46
12 -55 -5 -3 6 -21 26 -40 34 -33 34 -35 14 -47 -25 -16 -26 -28 -1 -21 12 3
20 -2 24 -14 8 -27 40 -76 57 -90 8 -6 12 -15 8 -18 -4 -4 0 -14 8 -22 8 -8
12 -23 9 -33 -3 -10 0 -22 6 -26 8 -4 0 -13 -22 -25 l-34 -18 31 5 c26 5 32 2
37 -15 2 -11 0 -22 -7 -25 -6 -2 -3 -5 6 -5 11 -1 15 -6 12 -16 -4 -8 -1 -15
6 -15 6 0 9 -4 6 -9 -3 -5 1 -14 9 -21 8 -7 15 -19 15 -26 0 -8 4 -14 9 -14
13 0 34 -58 28 -80 -3 -13 1 -21 14 -25 10 -4 19 -13 19 -21 0 -8 6 -17 14
-20 8 -3 12 -12 10 -19 -3 -7 0 -16 6 -20 8 -5 8 -11 -1 -22 -10 -12 -10 -16
2 -23 8 -5 14 -17 14 -27 0 -10 7 -18 15 -19 30 -2 32 -4 20 -19 -10 -12 -9
-18 4 -31 9 -9 15 -21 13 -27 -2 -6 8 -21 22 -34 17 -14 21 -22 12 -23 -11 0
-10 -3 3 -13 15 -11 17 -17 7 -35 -9 -17 -9 -21 1 -17 15 6 43 -49 33 -65 -3
-5 1 -10 9 -10 9 0 16 -6 16 -14 0 -7 6 -19 14 -25 18 -15 26 -57 13 -70 -8
-8 -5 -11 9 -11 17 0 24 -12 38 -58 10 -32 19 -69 19 -84 1 -14 5 -24 9 -22 3
2 16 -8 27 -22 17 -22 19 -30 9 -42 -10 -12 -10 -16 0 -19 6 -3 12 -12 12 -22
0 -9 10 -28 22 -41 12 -13 23 -31 23 -39 4 -40 19 -88 32 -103 9 -10 13 -24
10 -33 -4 -9 -1 -15 8 -15 8 0 15 -7 15 -15 0 -8 9 -15 20 -15 21 0 27 -15 10
-25 -8 -5 -7 -12 2 -23 10 -12 10 -16 1 -19 -20 -7 -15 -20 9 -26 12 -4 19 -9
15 -13 -3 -4 -1 -16 5 -28 10 -19 13 -29 20 -80 2 -11 13 -31 26 -45 16 -18
21 -32 17 -49 -4 -18 -1 -25 13 -29 15 -3 21 -17 26 -56 4 -28 12 -55 19 -59
17 -10 -12 -57 -39 -64 -13 -3 -29 -13 -36 -22 -11 -13 -9 -13 19 1 44 23 73
22 73 -3 0 -11 6 -20 13 -20 6 0 4 -5 -6 -11 -23 -13 -22 -29 3 -29 13 0 22
-9 26 -25 3 -14 10 -25 15 -25 5 0 9 -5 9 -12 0 -6 9 -21 20 -33 26 -27 39
-113 19 -127 -10 -7 -8 -8 7 -3 30 8 60 -32 68 -90 4 -25 20 -74 37 -110 16
-35 29 -67 29 -69 0 -3 -10 -14 -22 -26 l-22 -20 21 0 c25 0 64 -45 57 -65 -3
-8 1 -24 10 -37 9 -12 16 -32 16 -45 0 -12 11 -34 25 -49 14 -15 28 -39 31
-53 2 -14 12 -46 21 -71 9 -25 17 -59 18 -75 1 -17 7 -40 13 -52 7 -12 12 -33
12 -47 0 -14 4 -26 10 -26 5 0 12 -23 16 -50 l7 -50 932 0 c906 0 933 1 990
20 73 25 88 25 50 0 l-30 -20 376 0 377 0 57 35 c32 19 68 37 79 41 12 3 41
15 66 26 48 21 48 21 270 133 80 41 166 81 192 90 87 29 428 194 459 221 8 8
19 14 22 14 4 0 26 12 50 27 23 15 58 35 77 44 94 44 171 79 176 79 8 0 67 26
122 54 23 11 66 38 95 59 44 31 165 97 180 97 2 0 36 17 74 38 39 22 117 60
174 87 57 26 131 60 164 75 33 15 85 39 115 52 30 14 76 35 101 47 25 11 52
21 60 21 8 0 34 11 58 25 23 14 49 25 57 25 8 0 14 5 14 10 0 6 9 10 19 10 11
0 41 11 68 25 26 14 87 36 135 50 48 14 109 37 134 50 27 14 64 25 86 25 21 0
46 4 56 9 9 5 36 15 59 22 23 6 51 20 62 31 11 10 25 18 31 18 5 0 10 3 10 8
0 4 15 8 32 9 18 2 34 7 36 13 5 14 32 13 32 -2 0 -9 3 -9 12 0 19 19 25 15
41 -31 8 -23 37 -76 66 -117 28 -41 76 -112 105 -156 30 -45 61 -90 69 -100
85 -105 116 -148 169 -234 9 -14 55 -67 102 -118 47 -50 86 -96 86 -101 0 -10
154 -247 191 -295 22 -28 139 -260 139 -276 0 -4 7 -11 16 -14 8 -3 14 -14 12
-23 -2 -10 6 -36 18 -58 l21 -40 81 -3 c45 -2 82 0 82 2 0 9 -121 178 -166
231 -66 79 -372 493 -454 615 -25 37 -146 202 -270 368 -229 308 -330 449
-330 464 0 17 22 28 370 183 52 23 225 106 383 183 159 78 290 142 293 142 2
0 50 22 107 49 56 27 156 75 222 106 66 32 140 64 165 72 25 7 59 21 77 31 18
9 90 47 160 83 189 97 218 113 221 122 2 4 9 7 16 7 7 0 34 11 62 23 27 13 67
32 89 41 22 10 110 51 195 92 l155 74 3 115 3 115 -23 -9 c-13 -5 -68 -30
-123 -56 -55 -26 -139 -64 -186 -85 -47 -21 -126 -58 -175 -83 -92 -46 -282
-129 -321 -142 -13 -3 -23 -11 -23 -16 0 -6 -5 -7 -12 -3 -6 4 -16 0 -22 -9
-7 -8 -129 -71 -271 -140 -263 -125 -295 -140 -295 -132 0 4 291 148 438 217
23 11 42 24 42 28 0 4 18 15 40 24 21 8 86 38 142 65 57 27 146 68 198 90 85
37 154 73 110 58 -42 -15 -358 -155 -450 -200 -58 -28 -246 -120 -418 -204
-172 -84 -315 -153 -318 -153 -3 0 -71 -33 -152 -74 -82 -40 -217 -104 -300
-141 -84 -37 -151 -69 -149 -71 4 -5 106 37 210 85 37 17 73 31 80 31 18 -1
-67 -44 -238 -120 -82 -37 -187 -86 -233 -110 -46 -23 -86 -40 -88 -37 -7 6
48 37 161 92 53 25 95 48 92 51 -2 3 -87 -35 -188 -84 -101 -49 -245 -117
-319 -152 -74 -34 -202 -95 -285 -135 -82 -40 -183 -87 -222 -105 -40 -18 -70
-36 -68 -41 3 -4 0 -11 -6 -15 -8 -4 -9 -3 -5 4 4 7 4 12 -1 12 -13 0 -333
-153 -329 -157 2 -3 23 5 46 17 23 12 46 20 52 18 6 -2 -43 -27 -107 -56 -65
-29 -124 -51 -131 -48 -7 3 -20 -1 -28 -9 -7 -8 -16 -12 -18 -9 -3 2 -65 -24
-139 -60 -74 -35 -195 -91 -269 -126 -74 -34 -198 -93 -275 -130 -77 -37 -167
-79 -200 -93 -34 -14 -278 -132 -543 -261 -265 -130 -486 -236 -490 -236 -4 0
-38 -16 -77 -36 -38 -19 -96 -44 -129 -55 -32 -11 -68 -26 -80 -33 -11 -8 -39
-19 -61 -26 -22 -7 -52 -21 -66 -31 -14 -10 -49 -27 -78 -38 -28 -12 -62 -27
-74 -35 -12 -7 -44 -22 -72 -32 -27 -9 -56 -22 -63 -27 -7 -5 -15 -8 -18 -5
-5 6 186 118 201 118 4 0 68 29 141 65 73 36 137 65 141 65 4 0 116 53 248
119 265 131 458 225 670 326 77 37 172 82 210 100 39 19 160 75 270 126 110
50 260 120 333 155 73 35 135 64 138 64 10 0 605 278 789 369 110 55 229 111
265 126 36 15 70 31 75 35 6 5 51 26 100 48 118 52 343 156 535 247 85 41 218
103 295 138 165 76 541 256 810 386 221 108 530 252 730 340 77 34 237 108
355 165 l215 102 3 203 c2 202 2 202 -18 191 -35 -19 -46 -5 -12 15 l32 19 0
153 c0 134 -2 152 -16 146 -9 -3 -21 2 -29 15 -8 11 -59 73 -112 138 -86 105
-281 374 -311 431 -9 15 -8 25 2 39 12 16 17 17 57 4 24 -7 48 -13 53 -11 4 1
15 -4 23 -11 23 -19 110 -135 88 -118 -10 8 19 -32 66 -89 46 -57 103 -128
127 -158 23 -29 44 -53 47 -53 13 0 3 80 -11 94 -14 15 -14 16 0 16 14 0 16
16 16 103 l0 103 -49 52 c-56 59 -211 259 -193 248 7 -4 48 -53 91 -109 44
-56 95 -118 115 -136 l36 -35 0 100 0 100 -46 44 c-49 48 -371 425 -441 518
-48 62 -52 77 -24 92 29 15 38 12 14 -5 -28 -20 -22 -38 40 -111 99 -118 243
-289 309 -369 36 -44 85 -98 107 -120 l41 -39 0 416 c0 324 -3 417 -12 421
-10 4 -10 6 0 6 9 1 12 65 12 287 0 171 -4 283 -9 279 -22 -13 -123 -26 -207
-26 -229 1 -536 104 -717 242 -37 28 -70 49 -72 47 -17 -16 179 -144 294 -193
50 -21 90 -40 88 -42 -6 -6 -159 61 -234 102 -85 47 -252 213 -306 304 -66
111 -81 169 -82 311 0 120 1 128 32 193 41 86 63 113 143 177 85 68 116 83
230 110 111 26 309 32 402 11 82 -18 290 -88 297 -100 4 -5 37 -25 74 -44 l67
-34 0 345 0 344 -53 61 c-28 34 -129 142 -223 239 -215 222 -334 366 -313 379
8 5 43 18 79 29 36 10 165 52 287 92 l222 73 1 51 c0 27 -5 55 -12 62 -9 9 -9
12 -1 12 8 0 12 68 13 238 l1 238 -88 70 c-265 209 -490 491 -471 590 11 58
89 -6 361 -295 l192 -205 3 43 c3 35 -1 45 -22 62 -103 81 -276 279 -276 316
0 15 36 18 45 3 4 -6 10 -8 15 -5 9 6 41 -20 127 -104 28 -27 65 -57 82 -66
l31 -16 0 36 c0 38 -53 129 -112 192 -29 30 -30 31 -10 42 30 16 45 14 86 -14
l36 -24 0 169 0 170 -692 -1 c-555 0 -700 -3 -730 -14z m756 -469 c50 -46 136
-130 191 -186 141 -143 310 -278 356 -284 19 -3 88 -69 83 -78 -5 -7 -1 -9 9
-5 10 3 17 3 17 -2 0 -10 -66 -36 -255 -101 -188 -65 -185 -64 -145 -41 19 11
31 20 25 20 -14 0 -82 -38 -70 -39 17 -1 -335 -119 -415 -139 -41 -10 -92 -26
-113 -34 -21 -9 -35 -12 -32 -6 8 12 -71 110 -207 254 -111 119 -208 230 -208
238 0 7 69 47 80 47 5 0 37 -26 72 -57 35 -32 54 -48 44 -35 -31 36 -9 25 39
-19 25 -23 48 -39 52 -36 9 9 34 -13 27 -24 -3 -5 3 -12 13 -16 10 -4 27 -15
37 -25 11 -10 23 -18 28 -18 4 0 10 -11 14 -25 3 -14 9 -23 14 -20 4 2 18 -8
31 -22 l24 -27 -30 19 -30 18 19 -21 c11 -12 24 -22 31 -22 6 0 40 -28 75 -61
62 -59 63 -62 45 -76 -15 -12 -16 -14 -3 -10 9 3 33 9 52 13 20 3 36 9 36 11
0 3 -44 49 -99 102 -136 132 -226 232 -327 364 -48 62 -91 118 -97 124 -6 9
-2 15 16 22 14 5 28 15 32 20 9 16 33 13 53 -6 11 -10 28 -25 38 -33 10 -9 74
-66 141 -128 68 -62 130 -112 140 -112 14 0 12 4 -8 27 -13 15 4 3 38 -26 35
-30 61 -57 59 -60 -3 -4 38 -53 90 -110 71 -78 92 -107 84 -116 -9 -11 -3 -11
32 -3 24 5 48 11 55 13 6 2 -25 41 -69 87 -90 94 -293 326 -382 437 l-59 74
22 19 c62 49 108 15 432 -313 188 -192 223 -231 210 -240 -17 -11 -11 -10 50
13 l27 9 -60 62 c-33 34 -93 103 -134 152 -41 50 -97 117 -125 150 -88 104
-154 188 -207 264 -59 84 -57 101 11 101 36 0 48 -8 131 -84z m-819 -676 c44
-47 118 -128 164 -180 47 -52 173 -187 281 -300 109 -113 259 -272 333 -355
75 -82 217 -238 317 -345 238 -257 383 -420 378 -425 -4 -4 -385 403 -533 570
-164 184 -409 449 -491 530 -111 110 -253 262 -418 445 -76 85 -209 228 -295
316 -240 248 -301 313 -301 320 0 8 424 -424 565 -576z m-679 240 c99 -25 189
-67 268 -124 125 -90 145 -128 141 -264 -3 -81 -7 -99 -29 -133 -58 -87 -167
-130 -341 -134 -66 -1 -111 1 -100 5 17 6 13 9 -20 18 -22 6 -56 13 -75 16
-25 4 -20 0 20 -14 67 -23 44 -26 -31 -4 -138 40 -298 155 -343 245 -33 68
-36 162 -6 224 72 149 297 221 516 165z m-1356 -310 c0 -6 29 -10 68 -10 220
-1 423 -93 516 -232 43 -66 46 -74 46 -139 0 -124 -44 -200 -154 -268 -28 -18
-58 -25 -112 -29 -46 -3 -71 -8 -67 -15 4 -6 -4 -7 -23 -3 -16 4 -49 9 -74 12
-89 9 -224 47 -290 81 -81 41 -167 113 -204 170 -57 89 -41 214 39 299 25 26
45 51 45 56 0 5 4 7 9 3 5 -3 12 3 16 13 4 14 12 18 30 14 23 -4 29 3 27 29
-1 3 5 6 13 6 8 0 12 -4 9 -9 -6 -9 8 -11 30 -2 9 3 13 11 9 17 -4 6 0 8 9 5
8 -4 21 -2 29 3 19 12 29 11 29 -1z m-820 -245 c31 -16 43 -47 30 -80 -12 -33
-42 -46 -103 -47 -40 -1 -62 -8 -95 -30 l-43 -29 -19 23 c-11 13 -19 28 -20
35 0 6 -17 25 -37 41 l-38 30 30 12 c32 12 79 5 70 -10 -8 -14 21 -24 43 -15
11 5 13 9 5 12 -7 3 -13 9 -13 14 0 6 5 7 10 4 7 -4 9 2 4 19 -5 21 -2 28 17
36 30 13 122 4 159 -15z m-320 -90 c35 -18 56 -65 41 -94 -16 -29 -43 -41 -93
-41 -51 0 -84 16 -111 51 -17 24 -18 30 -6 55 26 54 97 66 169 29z m-248 -55
c28 -8 35 -14 31 -29 -4 -15 5 -25 36 -40 23 -12 41 -26 41 -31 0 -13 -50 -1
-71 17 -14 12 -18 11 -29 -2 -7 -8 -19 -15 -26 -15 -17 0 -18 -12 -2 -28 25
-25 -3 -23 -33 2 -36 31 -44 29 -30 -7 20 -53 -17 -39 -38 14 -9 22 -10 21 -8
-11 1 -25 -2 -34 -12 -32 -9 2 -11 -3 -6 -15 4 -10 9 -25 13 -33 3 -8 -13 5
-36 30 -34 38 -43 43 -59 34 -13 -9 -18 -23 -17 -58 0 -25 -3 -46 -7 -46 -9 0
-98 103 -120 140 -13 21 -15 30 -6 30 7 0 18 -9 25 -20 9 -15 19 -19 40 -15
19 4 22 3 9 -3 -16 -6 -16 -10 -5 -19 9 -7 22 -6 45 3 29 12 31 16 26 49 -3
19 -3 35 0 35 4 0 29 -9 56 -20 54 -21 65 -16 55 23 -7 31 9 41 86 56 3 0 21
-4 42 -9z m-418 -102 c1 -8 11 -24 23 -37 12 -13 20 -32 18 -42 -2 -10 1 -22
7 -25 7 -5 9 0 6 14 -4 12 -3 24 2 27 11 7 27 -16 34 -51 7 -33 -6 -45 -72
-64 -29 -8 -37 -6 -58 15 -14 14 -29 25 -33 25 -17 0 -42 40 -39 62 2 16 17
30 48 46 24 12 41 22 37 22 -4 0 -2 6 5 14 14 16 19 14 22 -6z m3950 -58 c87
-13 234 -58 306 -95 161 -81 245 -158 303 -274 28 -57 32 -77 35 -167 5 -121
-5 -148 -87 -236 -90 -98 -143 -118 -401 -153 -14 -2 -70 3 -125 10 -55 8
-104 15 -110 16 -5 0 1 5 15 9 23 7 22 8 -11 9 -42 1 -115 25 -213 70 -69 31
-103 36 -49 7 15 -8 24 -15 19 -16 -10 0 -76 40 -76 46 0 3 5 2 12 -2 7 -4 8
-3 4 4 -4 6 -12 9 -20 6 -23 -9 -140 120 -181 201 -33 65 -39 87 -43 159 -5
97 15 180 56 233 28 38 123 108 188 141 73 37 243 51 378 32z m-4284 -85 c61
-31 78 -90 35 -123 -13 -11 -21 -23 -17 -27 4 -5 2 -5 -4 -2 -6 4 -26 2 -45
-3 -29 -9 -36 -7 -51 11 -10 12 -18 18 -18 14 0 -3 -7 0 -15 9 -9 8 -14 21
-13 28 2 7 -3 12 -11 10 -8 -2 -11 3 -8 12 4 9 2 18 -3 21 -20 12 -9 36 23 50
42 19 91 19 127 0z m-270 -80 c12 -13 27 -22 33 -18 5 3 6 -3 2 -17 -4 -13 -3
-20 2 -17 5 3 9 -2 10 -11 1 -9 4 -27 8 -39 12 -38 -12 -26 -39 19 l-25 42
-12 -47 c-12 -50 -19 -56 -39 -32 -7 8 -23 14 -35 13 -19 -2 -22 -5 -14 -21 6
-10 9 -28 7 -40 -2 -18 -13 -8 -56 52 -30 44 -48 79 -43 84 5 5 28 -2 55 -17
47 -26 82 -34 71 -17 -3 5 -1 12 5 16 5 3 10 22 10 41 0 42 25 46 60 9z m3026
-23 c6 -4 13 -15 17 -24 5 -14 -3 -20 -41 -32 -26 -7 -82 -30 -126 -50 -43
-20 -80 -36 -83 -36 -5 0 -33 66 -33 78 0 5 19 12 43 15 52 7 71 12 125 31 23
8 42 13 42 10 0 -3 8 0 18 5 21 12 24 13 38 3z m-3241 -49 c9 -21 25 -54 36
-74 10 -20 19 -39 19 -43 0 -12 -40 -6 -91 14 -28 12 -54 18 -57 15 -3 -3 0
-22 6 -42 12 -38 10 -49 -5 -40 -17 10 -105 148 -99 154 3 3 30 0 60 -7 29 -7
59 -10 65 -6 6 4 11 1 11 -7 0 -15 29 -32 37 -23 8 8 -8 27 -17 21 -8 -5 -21
55 -13 68 10 18 32 4 48 -30z m1275 5 c17 -5 30 -14 30 -19 0 -5 7 -9 15 -9 9
0 18 -7 21 -15 4 -8 12 -15 20 -15 8 0 14 -4 14 -8 0 -4 29 -24 65 -43 35 -18
69 -44 74 -57 6 -12 22 -27 36 -32 14 -5 25 -13 25 -18 0 -4 33 -13 73 -20
115 -20 167 -33 167 -42 0 -8 39 -25 51 -23 3 1 6 -4 6 -12 0 -8 -4 -12 -8 -9
-4 2 -10 0 -14 -6 -4 -6 6 -10 24 -10 58 0 31 -19 -31 -22 l-63 -3 58 -14 c51
-13 60 -13 67 0 7 11 29 13 97 10 48 -1 93 -7 98 -11 39 -30 173 -90 203 -90
36 0 59 -18 203 -161 26 -26 67 -60 92 -78 59 -40 87 -77 87 -112 0 -26 3 -29
34 -29 27 0 39 -7 55 -29 26 -36 26 -41 2 -41 -10 0 -26 11 -35 25 -9 14 -24
25 -34 24 -10 0 -12 -3 -5 -6 7 -2 20 -20 29 -39 9 -19 24 -34 33 -34 10 0 34
-29 59 -69 23 -38 49 -74 57 -81 8 -7 12 -16 9 -21 -3 -5 0 -9 5 -9 6 0 11
-11 11 -25 0 -33 20 -74 51 -105 32 -32 83 -100 75 -100 -4 0 3 -18 14 -40 14
-27 21 -65 24 -117 2 -43 4 -82 6 -88 8 -32 -1 -36 -36 -16 -19 12 -39 21 -45
21 -5 0 -9 -30 -9 -67 0 -94 -42 -283 -89 -400 l-20 -52 27 -20 c20 -15 23
-20 10 -21 -9 0 -20 5 -23 11 -4 6 -19 -6 -35 -28 -31 -42 -31 -56 0 -28 11
10 20 15 20 11 0 -5 -14 -21 -31 -36 -23 -22 -29 -24 -24 -10 8 24 -11 35 -23
14 -13 -24 -45 -11 -37 15 4 13 0 20 -16 24 -15 4 -19 2 -15 -8 3 -8 0 -12 -7
-9 -7 2 -18 -5 -25 -16 -9 -15 -9 -20 0 -20 6 0 1 -11 -12 -25 -13 -14 -21
-27 -18 -30 6 -6 44 46 41 56 -1 4 7 5 17 2 21 -5 28 -43 9 -43 -5 0 -9 -10
-7 -22 2 -13 -2 -23 -9 -23 -7 0 -44 -27 -84 -60 -39 -33 -79 -64 -88 -70 -9
-5 -48 -31 -86 -56 -114 -75 -233 -135 -340 -169 -55 -18 -105 -36 -110 -41
-15 -11 -162 -43 -325 -70 -200 -33 -461 -32 -665 3 -133 23 -206 38 -255 55
-8 3 -64 23 -124 44 -112 40 -146 47 -146 29 0 -5 -6 -10 -14 -10 -8 0 -28
-17 -46 -37 l-31 -38 26 41 c24 39 25 42 11 76 -21 48 -45 56 -73 23 -29 -33
-39 -73 -24 -97 10 -17 10 -17 -9 -6 -24 15 -24 23 -5 78 13 38 13 41 0 30
-13 -11 -18 -11 -28 0 -9 10 -9 13 0 17 22 8 -5 42 -63 79 -121 77 -379 337
-473 477 -58 85 -139 268 -160 359 -35 147 -52 348 -31 348 6 0 10 -18 10 -40
0 -22 6 -57 14 -77 8 -21 17 -67 20 -103 16 -192 104 -403 239 -571 110 -137
307 -311 307 -271 0 5 -55 66 -122 136 -147 153 -222 254 -295 401 -72 143
-79 163 -98 298 -12 92 -13 137 -5 228 12 136 12 166 0 127 -4 -15 -11 -75
-15 -133 -5 -64 -11 -103 -17 -97 -12 12 -11 189 2 230 27 85 28 92 19 87 -14
-9 -11 18 5 40 14 22 30 74 27 91 -1 7 14 41 33 77 19 36 38 88 42 116 5 41 9
49 22 42 9 -5 21 -3 33 8 25 21 24 30 -2 24 -16 -4 -20 -2 -17 8 3 8 15 13 29
11 18 -2 29 4 39 23 7 14 19 25 26 25 7 0 15 13 19 29 3 16 17 41 30 55 15 16
19 27 12 30 -7 2 -6 5 3 5 16 2 50 66 50 94 0 9 8 22 18 29 18 14 62 73 62 84
0 12 51 54 66 54 7 0 14 5 14 10 0 6 8 10 18 10 11 0 27 9 37 20 9 10 20 19
24 18 18 -2 31 4 47 19 16 17 16 18 -7 24 l-24 6 27 11 c14 6 29 16 33 21 10
17 27 13 23 -6 -4 -23 16 -29 21 -7 6 33 56 71 102 79 24 4 51 11 59 15 8 4
29 10 45 14 23 5 27 4 15 -4 -12 -9 -10 -11 10 -7 14 3 41 8 60 11 l35 6 -42
-20 c-29 -14 -40 -25 -37 -35 8 -21 22 -19 29 5 6 19 25 28 25 12 0 -4 32 -6
70 -4 49 3 70 1 70 -7 0 -7 4 -9 10 -6 5 3 18 1 29 -5 15 -7 23 -6 35 5 8 8
23 15 33 15 11 0 25 6 31 12 13 13 16 14 73 16 19 1 44 11 56 21 11 10 29 21
39 24 26 8 148 -2 184 -15z m-1485 -75 c20 -48 15 -60 -39 -84 -32 -14 -43
-24 -39 -35 6 -16 21 -13 92 17 24 11 46 17 49 15 13 -14 -12 -36 -60 -54
-101 -37 -91 -41 -143 43 -26 42 -46 78 -44 80 3 2 154 52 166 55 2 0 10 -17
18 -37z m3623 -38 c11 -16 29 -19 150 -24 94 -5 115 -9 123 -24 6 -9 15 -17
22 -17 25 0 122 -52 171 -92 150 -122 196 -189 221 -322 19 -104 14 -167 -21
-242 -26 -54 -60 -95 -49 -58 5 17 5 17 -7 -1 -27 -41 -105 -111 -154 -137
-84 -45 -155 -59 -324 -64 -141 -4 -164 -3 -253 20 -269 69 -445 243 -469 464
-6 48 -14 94 -18 104 -5 9 -7 42 -4 75 5 67 40 128 82 145 58 23 72 32 72 45
0 8 5 11 10 8 6 -3 10 -1 10 5 0 6 5 8 10 5 6 -4 10 -3 9 2 -3 20 2 34 10 28
6 -3 13 0 18 7 13 21 104 59 145 61 21 1 38 5 38 9 0 4 13 5 29 2 16 -3 31 -1
35 4 8 13 134 11 144 -3z m-4643 -309 c17 -7 45 -28 63 -46 39 -41 42 -82 10
-131 -26 -39 -116 -88 -175 -96 -78 -10 -163 31 -178 87 -6 21 -3 19 17 -10
17 -26 36 -38 68 -47 91 -24 213 9 250 69 31 51 26 90 -14 126 -49 42 -97 56
-177 49 -81 -7 -132 -29 -161 -70 -26 -36 -35 -115 -18 -148 9 -18 9 -21 0
-13 -23 22 -28 79 -11 130 27 83 122 129 241 117 30 -3 69 -11 85 -17z m812
-87 c28 -14 46 -31 58 -57 10 -20 19 -39 21 -42 1 -3 -6 -25 -16 -47 -24 -54
-80 -84 -155 -84 -94 0 -155 51 -155 131 0 32 22 99 33 100 1 0 20 7 42 15 48
18 113 12 172 -16z m4762 -1021 c11 -10 12 -10 7 -1 -14 24 21 2 42 -26 56
-77 40 -141 -35 -141 -53 0 -110 42 -123 91 -10 37 -9 44 11 65 25 27 76 32
98 12z m-428 -193 c25 -9 60 -28 78 -43 31 -27 32 -28 34 -126 l3 -99 -33 -20
c-30 -17 -32 -21 -20 -36 19 -22 38 -101 25 -101 -6 0 -5 -6 2 -15 15 -18 53
-19 83 -4 21 12 22 11 4 -8 -15 -17 -24 -19 -60 -12 -23 4 -47 8 -54 9 -20 0
-49 38 -62 81 -16 52 -41 49 -59 -6 -10 -30 -10 -46 -2 -65 11 -24 11 -24 -7
-7 -12 12 -20 38 -23 80 -5 59 -6 62 -35 68 -16 4 -22 7 -13 8 9 0 19 5 22 10
9 14 -5 41 -21 41 -9 0 -13 6 -9 15 4 11 -3 17 -25 22 -16 3 -34 14 -40 25 -6
11 -13 17 -16 14 -3 -3 2 -17 11 -31 9 -14 12 -25 7 -25 -18 0 -38 46 -40 92
-1 39 3 53 21 71 31 31 116 42 163 23 36 -15 67 -57 46 -64 -6 -2 -11 -9 -11
-16 0 -10 -49 -46 -64 -46 -3 0 -3 8 1 18 6 16 5 16 -14 0 -28 -25 -66 -22
-93 7 -22 23 -23 28 -11 48 13 20 13 21 -2 8 -9 -7 -16 -24 -15 -37 1 -12 4
-21 7 -19 2 3 9 -5 15 -18 10 -18 22 -23 76 -27 l65 -5 -30 -17 c-41 -24 -23
-22 27 2 51 25 63 16 23 -16 -33 -26 -23 -33 13 -8 12 8 22 23 22 32 0 9 7 25
14 35 8 10 12 28 10 40 -4 20 -4 20 6 -2 8 -18 7 -31 -5 -54 -8 -16 -15 -32
-15 -34 0 -8 45 10 62 24 19 17 33 82 23 112 -9 29 -60 57 -139 77 -57 14 -77
15 -113 6 -65 -18 -111 -52 -134 -100 -19 -39 -20 -48 -9 -85 7 -23 17 -49 23
-57 7 -8 2 -7 -10 4 -27 22 -38 72 -28 122 7 41 79 119 116 127 42 9 162 -1
210 -18z m-7222 -345 c258 -505 231 -459 266 -454 34 5 24 0 -53 -27 -29 -9
-50 -14 -47 -9 3 5 -15 -3 -40 -17 -25 -14 -48 -23 -51 -20 -3 3 4 8 15 12 12
3 21 11 21 16 0 6 -86 180 -190 387 -105 207 -190 380 -190 385 0 4 22 7 49 7
28 0 53 5 56 11 4 6 8 9 10 7 1 -2 70 -136 154 -298z m7942 260 c20 -6 43 -18
50 -28 11 -14 11 -15 -1 -4 -17 14 -44 16 -35 2 3 -5 1 -10 -4 -10 -6 0 -11
-4 -11 -9 0 -4 12 -6 27 -3 21 4 25 2 20 -11 -3 -9 -2 -19 3 -22 6 -4 10 4 10
16 0 18 2 19 15 9 20 -17 19 -53 -2 -79 -20 -23 -118 -49 -146 -38 -30 11 -58
69 -55 112 3 35 8 42 38 57 41 21 43 21 91 8z m-5109 -427 c52 -71 104 -144
116 -164 23 -38 99 -112 144 -139 16 -9 25 -19 22 -22 -3 -4 4 -9 15 -13 11
-3 46 -22 77 -40 57 -34 63 -35 117 -20 18 5 33 3 40 -4 8 -8 4 -11 -15 -11
-14 0 -31 -7 -38 -15 -10 -13 -9 -15 8 -15 12 0 27 -8 34 -18 7 -10 25 -33 40
-51 l27 -31 33 20 c40 24 75 25 108 4 51 -34 61 -68 40 -131 -9 -24 -16 -30
-36 -27 -14 1 -39 -5 -55 -14 -29 -17 -30 -16 -48 7 -14 18 -20 20 -23 10 -4
-9 -9 -5 -17 14 -14 36 -22 34 -14 -3 4 -22 2 -30 -7 -28 -18 4 -21 -43 -4
-69 8 -12 42 -50 77 -85 114 -115 175 -247 218 -478 7 -36 16 -68 21 -71 15
-10 21 -121 9 -152 -8 -21 -16 -27 -30 -22 -16 5 -21 -5 -36 -67 -9 -40 -28
-100 -41 -132 -13 -33 -22 -69 -19 -80 3 -12 2 -15 -1 -8 -3 7 -29 -25 -62
-79 -54 -86 -120 -169 -229 -286 -137 -147 -573 -355 -750 -357 -58 -1 -63 -3
-63 -23 0 -23 -25 -33 -32 -13 -2 8 -53 7 -163 0 -259 -19 -544 18 -677 86
-28 14 -28 14 -29 -18 l-2 -33 -7 35 c-4 19 -8 26 -9 16 -2 -37 -43 -107 -70
-120 -14 -7 -45 -16 -69 -19 -61 -8 -82 13 -87 84 -4 69 10 99 54 120 18 8 31
20 29 25 -1 5 11 10 27 12 29 3 29 3 10 -12 -20 -15 -20 -15 3 -16 25 0 66
-16 144 -57 84 -43 237 -75 463 -96 57 -6 342 12 371 23 13 5 24 16 24 25 0 8
3 14 8 14 16 -3 23 2 17 11 -4 7 -13 7 -26 0 -11 -6 -25 -8 -31 -4 -8 5 -5 10
8 14 13 5 2 9 -36 14 -30 3 -68 8 -85 9 -16 2 -5 5 27 6 50 1 56 3 51 20 -3
11 -15 22 -27 24 -18 4 -18 4 4 6 18 1 31 11 44 36 11 19 25 35 33 35 7 0 13
5 13 11 0 7 -10 9 -26 5 -75 -19 -265 -37 -328 -31 -235 22 -515 124 -659 240
-71 56 -224 210 -240 240 -15 29 -61 93 -91 128 -9 9 -28 17 -42 17 -24 0 -26
-3 -21 -29 10 -49 118 -219 184 -291 35 -37 87 -82 115 -100 29 -18 78 -50
108 -70 78 -53 168 -97 268 -130 93 -31 96 -37 10 -19 -69 13 -94 23 -210 80
-223 109 -309 190 -487 454 -62 91 -83 131 -91 174 -7 31 -19 87 -27 125 -51
224 85 583 302 801 52 52 122 93 363 210 72 35 132 70 132 77 0 7 -5 20 -10
28 -7 12 -12 12 -22 2 -16 -16 -38 -15 -38 2 0 7 14 16 32 20 17 3 29 8 26 11
-19 19 -259 -74 -324 -125 -80 -63 -140 -105 -125 -87 7 9 29 26 48 38 19 12
32 23 29 26 -10 10 -163 -114 -246 -199 -122 -124 -190 -248 -252 -458 -22
-76 -27 -85 -22 -45 3 28 21 95 39 150 19 55 32 101 30 103 -9 9 -56 -114 -83
-220 -37 -139 -49 -257 -31 -300 11 -27 10 -32 -6 -44 -17 -13 -17 -15 2 -71
11 -32 36 -97 56 -145 36 -89 34 -126 -3 -66 -11 18 -35 78 -53 133 -30 95
-32 107 -31 250 0 164 11 227 65 365 34 89 134 249 179 287 16 13 38 38 49 56
22 35 161 158 226 199 74 47 140 83 151 83 6 0 18 5 25 11 8 6 47 29 88 50 70
37 72 39 43 42 -22 2 -29 7 -26 17 5 11 -2 13 -33 9 -21 -3 -54 -10 -73 -16
-41 -12 -247 -125 -257 -140 -4 -7 -1 -8 8 -3 29 17 -7 -13 -76 -61 -151 -106
-307 -285 -337 -387 -6 -23 -21 -58 -33 -77 -40 -65 -39 -64 -25 -55 10 6 11
4 5 -11 -4 -10 -19 -55 -32 -99 -22 -70 -26 -102 -28 -260 -3 -123 1 -204 10
-255 8 -41 17 -99 20 -128 6 -44 10 -52 24 -47 9 4 33 9 53 12 69 10 90 -39
42 -96 -24 -28 -53 -44 -39 -21 4 6 -6 10 -23 10 -22 0 -31 6 -35 21 -4 16 -2
19 10 15 17 -7 63 18 63 34 0 15 -26 12 -40 -5 -7 -8 -16 -13 -20 -10 -10 6
-27 -15 -32 -40 -4 -19 -4 -19 -16 3 -9 15 -10 28 -3 40 7 14 6 25 -4 39 -18
26 -75 194 -75 221 0 11 8 23 18 25 9 3 -1 5 -23 6 -22 1 -35 5 -30 9 7 4 11
60 11 142 1 161 15 234 78 393 122 314 377 592 694 757 34 18 62 37 62 42 0 4
3 7 8 5 12 -3 111 84 117 104 3 10 30 30 59 44 51 25 58 26 142 18 49 -5 107
-5 129 -1 22 4 61 7 87 7 54 1 87 14 233 89 16 9 53 18 81 20 43 4 62 -1 110
-25 57 -29 125 -43 274 -59 63 -6 227 -55 239 -71 9 -11 71 -55 71 -49 0 13
-80 139 -130 206 -73 97 -102 140 -97 140 3 0 47 -57 99 -127z m3909 115 c74
-25 129 -95 129 -164 0 -38 -30 -93 -61 -113 -20 -12 -18 -9 8 20 72 77 48
161 -62 218 -48 24 -132 40 -121 23 4 -7 17 -12 29 -12 37 -1 117 -58 133 -95
25 -62 19 -107 -23 -148 -20 -20 -43 -37 -52 -38 -46 -3 -99 4 -126 17 -16 8
-21 12 -11 9 11 -3 45 -8 75 -12 44 -4 59 -2 69 10 12 14 10 15 -14 8 -39 -10
-107 2 -141 25 -15 10 -32 17 -36 16 -5 -1 -6 1 -3 6 3 5 -3 16 -14 24 -16 15
-19 15 -24 1 -3 -8 -4 -19 0 -24 3 -5 1 -9 -5 -9 -16 0 -33 69 -27 105 19 100
167 171 277 133z m1421 -26 c27 -11 88 -71 88 -87 0 -27 -43 -57 -75 -52 -17
3 -42 -2 -57 -11 -25 -15 -29 -14 -49 4 -11 10 -24 18 -28 17 -8 -2 -2 40 7
47 4 3 8 14 10 25 9 55 51 78 104 57z m-484 -137 c28 -9 54 -20 57 -25 4 -6
-3 -6 -20 0 -15 6 -43 9 -63 9 -20 -1 -28 -4 -18 -6 15 -4 16 -7 5 -14 -10 -6
-5 -9 17 -9 18 0 42 -9 55 -20 23 -19 23 -19 4 -20 -12 0 -26 5 -33 12 -9 9
-12 9 -12 0 0 -7 4 -12 9 -12 11 0 22 -41 26 -90 3 -44 -17 -75 -57 -89 -58
-20 -85 -14 -133 32 -47 46 -56 44 -28 -4 10 -16 32 -34 51 -40 18 -6 31 -13
29 -16 -10 -9 -75 26 -95 52 -17 21 -22 41 -22 86 0 37 -4 59 -12 61 -20 7 67
57 125 73 33 9 43 14 26 14 -61 2 -127 -28 -168 -77 -26 -30 -41 -41 -41 -30
0 25 79 112 109 119 49 12 137 9 189 -6z m-765 -239 c18 -7 40 -23 51 -34 18
-21 18 -22 -9 -32 -22 -8 -31 -7 -46 6 -9 8 -28 14 -41 11 -20 -4 -19 -5 10
-12 17 -4 32 -11 32 -16 0 -5 -15 -16 -32 -24 -27 -12 -29 -14 -8 -11 14 2 35
8 48 11 17 6 21 4 16 -8 -7 -18 -35 -27 -91 -27 -44 0 -77 28 -66 56 3 8 0 14
-6 14 -18 0 -13 25 9 45 11 10 37 21 58 25 20 4 38 8 40 9 1 0 17 -5 35 -13z
m1620 -48 c26 -13 49 -55 43 -76 -4 -10 -18 -30 -32 -43 -21 -19 -37 -24 -90
-26 -35 -1 -74 2 -87 7 -15 6 -6 7 32 4 30 -3 67 -2 81 1 26 6 27 8 19 42 -4
21 -6 39 -4 43 2 3 -2 12 -8 21 -14 19 -55 31 -63 18 -3 -5 -16 -9 -29 -9 -14
0 -29 -9 -35 -20 -13 -25 -2 -26 16 -2 12 16 13 16 14 -4 0 -32 44 -68 75 -62
16 4 24 1 22 -6 -7 -21 -86 -13 -123 12 -19 12 -34 27 -34 32 0 21 41 75 62
82 27 8 116 -1 141 -14z m-1428 -140 c7 -8 6 -9 -3 -4 -14 8 -73 -2 -69 -12 1
-4 -13 -22 -31 -40 -38 -38 -44 -56 -7 -22 15 14 25 18 25 10 0 -7 11 -1 26
14 27 27 54 34 54 15 0 -5 5 -7 10 -4 6 3 10 -2 10 -12 0 -14 2 -15 9 -4 6 9
11 10 15 2 10 -16 -15 -57 -54 -86 -33 -24 -56 -33 -46 -17 5 9 -35 8 -51 -1
-14 -9 -29 11 -35 47 -4 22 1 36 25 63 31 35 31 36 7 29 -24 -7 -24 -6 -6 8
11 9 28 16 38 16 10 0 18 5 18 11 0 13 50 3 65 -13z m-655 -18 c0 -27 114
-198 325 -488 87 -119 122 -170 107 -157 -6 6 -51 66 -101 135 -51 69 -131
179 -180 245 -48 66 -105 146 -126 177 -37 57 -38 57 -60 39 -13 -9 -65 -35
-117 -56 -51 -21 -124 -52 -163 -68 -87 -38 -164 -66 -330 -121 -71 -24 -174
-62 -227 -85 -53 -22 -132 -52 -175 -66 -43 -13 -116 -41 -163 -61 -47 -20
-152 -60 -235 -89 -82 -29 -166 -60 -185 -69 -32 -15 -33 -17 -7 -13 21 3 27
0 27 -14 0 -11 4 -19 8 -19 18 0 48 -70 55 -130 14 -123 14 -124 -8 -128 -17
-3 -18 -1 -5 8 21 15 -34 2 -69 -16 -14 -8 -30 -14 -35 -14 -12 0 -46 -31 -46
-42 0 -11 36 -10 58 2 9 5 43 21 74 34 l57 25 26 -56 c14 -31 24 -57 23 -59
-2 -1 -16 -6 -32 -10 -22 -5 -27 -4 -21 6 5 7 4 11 -1 8 -5 -3 -18 -8 -29 -12
-16 -6 -17 -9 -5 -17 12 -8 10 -9 -6 -4 -19 5 -120 -32 -176 -65 -12 -7 -18
-7 -18 0 0 6 7 13 15 16 10 4 13 13 10 25 -5 13 -1 19 10 19 9 0 13 -4 10 -10
-9 -15 -3 -13 61 19 33 15 76 34 96 40 42 14 51 23 42 44 -7 20 -50 8 -169
-49 -87 -41 -92 -45 -92 -75 0 -56 -57 -80 -68 -29 -4 17 -11 30 -16 30 -5 0
-9 13 -9 30 0 22 -4 28 -15 24 -10 -4 -18 3 -26 22 -9 26 -7 31 18 51 30 25
48 29 58 13 3 -5 11 -10 16 -10 6 0 7 5 4 10 -4 6 -1 17 5 25 14 17 50 20 50
4 0 -5 5 -7 10 -4 12 7 13 35 2 52 -6 9 -22 9 -72 -3 -36 -9 -90 -17 -122 -19
l-56 -4 -17 37 c-20 41 -44 72 -57 72 -5 0 -3 -10 3 -22 12 -22 11 -22 -8 -5
-11 9 -28 17 -39 17 -15 1 -12 4 11 17 53 28 408 170 571 228 88 31 202 74
254 95 157 66 405 159 585 220 243 83 602 224 650 256 18 11 25 24 22 36 -3
11 0 18 9 18 8 0 14 -5 14 -10z m1483 -54 c70 -29 82 -72 36 -130 -20 -25 -22
-26 -34 -9 -13 17 -14 17 -29 -2 -15 -19 -15 -19 -16 10 0 36 -14 62 -24 46
-4 -6 -4 -15 -1 -21 3 -5 1 -10 -4 -10 -6 0 -11 -11 -11 -25 0 -14 -3 -25 -7
-25 -5 0 -6 22 -5 50 2 27 5 50 6 50 0 0 16 4 34 10 26 7 33 6 29 -3 -2 -7 -1
-21 4 -32 7 -18 8 -17 8 7 1 15 10 33 21 41 11 8 17 17 13 20 -9 10 -55 9 -50
0 3 -5 -12 -9 -32 -9 -21 -1 -56 -11 -79 -22 -23 -11 -42 -18 -42 -15 0 11 47
42 73 48 15 4 27 11 27 16 0 14 -23 11 -64 -11 l-39 -19 23 24 c19 21 33 25
77 25 30 0 68 -6 86 -14z m-1497 -134 c21 -39 21 -44 6 -49 -9 -3 -54 -23
-100 -44 -46 -22 -94 -39 -108 -39 -13 0 -24 -5 -24 -11 0 -5 -5 -7 -10 -4
-17 11 -49 -5 -43 -21 4 -10 -3 -14 -26 -14 -41 0 -161 -39 -167 -54 -2 -6
-17 -13 -32 -14 -25 -1 -92 -28 -184 -72 -23 -12 -38 -14 -40 -8 -3 7 -15 5
-35 -6 -18 -9 -39 -13 -47 -10 -36 14 -27 94 11 108 8 4 11 1 7 -5 -4 -8 -1
-8 14 0 26 14 55 14 47 1 -3 -5 -1 -10 5 -10 6 0 10 -6 9 -12 -1 -7 -1 -23 0
-36 1 -20 3 -21 21 -10 11 7 20 18 20 25 0 16 92 58 250 113 74 26 134 50 132
55 -3 9 86 44 131 52 26 5 46 27 35 38 -2 3 -42 -9 -89 -26 -46 -17 -124 -45
-174 -61 -49 -16 -110 -39 -134 -50 -121 -54 -181 -70 -181 -48 0 6 4 10 10
10 5 0 33 11 62 24 29 12 100 40 158 60 132 47 204 74 257 98 23 10 51 18 62
18 12 0 21 4 21 9 0 10 77 39 99 37 8 0 25 -20 37 -44z m-2794 -111 c31 -30
69 -79 84 -110 30 -60 63 -112 79 -123 6 -4 6 -8 2 -8 -5 0 0 -14 10 -30 14
-24 15 -34 6 -48 -8 -14 -6 -40 8 -108 11 -49 22 -135 26 -191 l6 -102 36 18
c20 10 63 26 96 35 33 10 109 35 170 57 60 21 114 39 120 39 21 -1 -74 -38
-215 -85 -80 -26 -161 -56 -181 -66 -34 -17 -37 -22 -43 -77 -12 -103 -64
-282 -105 -356 -21 -39 -42 -81 -46 -94 -6 -22 -5 -23 42 -16 43 5 53 3 79
-19 28 -23 40 -26 127 -28 53 -1 94 -6 91 -11 -3 -4 -51 -8 -107 -8 -96 0
-103 -1 -112 -22 -9 -20 -17 -23 -65 -21 -35 2 -59 8 -66 18 -23 32 -48 16
-129 -79 -139 -165 -390 -335 -619 -420 -115 -43 -377 -112 -481 -126 -151
-21 -448 -24 -573 -6 -107 15 -296 67 -316 86 -5 6 -4 16 4 25 17 21 73 14
178 -21 39 -13 102 -26 140 -29 126 -9 307 -13 277 -6 -19 4 25 10 115 14 80
4 175 13 213 20 37 8 67 10 67 6 0 -4 15 -2 33 5 17 8 55 17 82 21 28 4 58 12
69 17 10 6 36 12 58 14 21 2 51 10 67 18 16 9 31 13 34 10 6 -6 67 23 176 83
96 53 341 257 341 284 0 5 4 9 10 9 5 0 7 -8 3 -17 -8 -25 49 40 98 110 31 44
38 62 30 70 -9 9 -17 8 -31 -1 -11 -7 -20 -10 -20 -8 0 15 15 38 31 46 15 8
21 5 32 -16 l14 -27 43 74 c23 41 51 89 62 108 10 19 17 40 14 47 -3 8 -1 14
4 14 15 0 68 196 55 208 -3 3 -12 -3 -19 -14 -13 -17 -14 -12 -12 51 2 41 8
71 15 73 19 6 11 128 -14 197 -7 20 -6 20 9 1 15 -19 16 -19 17 10 2 28 2 28
9 -6 l7 -35 2 36 c1 32 -22 130 -37 153 -3 5 -9 0 -13 -12 -5 -12 -15 -22 -23
-22 -16 0 -32 33 -17 38 5 2 2 16 -7 32 -15 26 -15 30 2 62 17 31 17 36 2 73
-9 21 -30 61 -47 88 -17 28 -32 58 -34 68 -2 10 -15 35 -29 56 -51 74 -31 67
66 -26z m2848 4 c0 -8 -6 -15 -14 -15 -8 0 -18 -5 -22 -12 -5 -8 0 -9 14 -6
37 10 24 -8 -18 -25 -22 -8 -37 -11 -34 -5 8 13 -2 10 -156 -51 -69 -27 -136
-59 -149 -71 -13 -12 -39 -23 -56 -25 -38 -5 -240 -82 -258 -99 -7 -6 -27 -19
-45 -28 -31 -16 -32 -16 -47 5 -15 21 -14 23 10 45 14 12 32 22 40 22 17 0
239 86 285 111 39 21 263 106 352 133 32 10 60 22 64 27 9 15 34 10 34 -6z
m887 -5 c49 -30 80 -101 63 -146 -11 -28 -64 -54 -107 -54 -47 1 -116 43 -139
84 -14 25 -24 33 -27 25 -3 -8 -6 4 -6 26 -1 29 2 36 9 25 5 -8 10 -12 10 -8
0 3 3 14 7 24 4 12 3 15 -5 10 -8 -5 -10 -1 -5 10 4 11 8 13 11 6 3 -9 9 -8
25 3 32 22 124 20 164 -5z m-810 -76 c-3 -4 -17 -8 -29 -9 -13 -2 -49 -15 -80
-29 -84 -38 -111 -49 -128 -51 -8 -1 -37 -13 -65 -27 -27 -14 -81 -37 -120
-51 -38 -14 -95 -37 -125 -51 -31 -14 -85 -31 -120 -39 -36 -7 -75 -19 -87
-25 -12 -7 -24 -8 -27 -4 -5 8 132 72 154 72 5 0 60 22 122 49 62 26 136 56
163 66 239 84 303 105 324 105 13 0 21 -3 18 -6z m43 -87 c0 -5 -12 -6 -26 -3
-15 4 -23 3 -20 -2 3 -5 -12 -12 -34 -16 -21 -3 -65 -19 -97 -35 -129 -65
-165 -81 -178 -81 -7 0 -37 -11 -66 -23 -30 -13 -88 -37 -129 -53 -41 -16 -86
-34 -100 -41 -28 -14 -33 -12 -25 9 8 20 217 120 328 157 49 17 94 34 100 40
7 5 29 12 50 16 20 4 37 11 37 17 0 5 4 6 10 3 5 -3 20 1 32 9 12 9 32 16 45
16 12 0 25 4 28 10 7 11 45 -9 45 -23z m-6727 -2 c56 -15 121 -45 162 -75 17
-12 21 -28 23 -88 2 -61 -1 -82 -22 -125 -36 -76 -76 -116 -141 -142 l-40 -16
35 28 c19 15 39 28 45 28 5 0 10 6 10 13 0 8 7 19 15 25 43 33 60 69 59 126
l-2 56 -6 -56 c-10 -94 -81 -167 -191 -195 -76 -19 -132 -14 -206 20 -51 24
-114 91 -114 123 0 7 -4 13 -10 13 -15 0 -12 -22 10 -65 l20 -40 -21 21 c-27
27 -35 92 -18 151 9 36 28 63 70 106 97 97 196 125 322 92z m6774 -70 c1 -5
-11 -11 -29 -11 -17 -1 -37 -9 -43 -18 -7 -9 -18 -16 -25 -16 -22 0 -179 -59
-265 -100 -44 -21 -91 -41 -105 -45 -14 -4 -30 -11 -36 -16 -16 -13 -137 -49
-146 -43 -32 20 11 41 292 141 129 46 219 80 290 111 29 13 62 11 67 -3z m25
-60 c0 -6 -26 -21 -58 -34 -84 -34 -429 -178 -494 -206 -30 -13 -74 -26 -98
-29 -23 -3 -48 -8 -55 -11 -6 -4 -4 0 6 8 13 10 15 17 7 22 -6 4 -29 -7 -50
-24 -44 -35 -55 -38 -64 -15 -12 31 -6 53 21 74 l27 21 13 -28 13 -28 -6 35
-5 35 31 -35 c16 -19 38 -34 48 -34 9 0 58 19 107 43 79 38 267 114 408 165
26 10 47 22 47 28 0 6 6 8 13 5 7 -3 26 1 42 8 33 15 46 14 47 0z m-1372 -12
c0 15 85 -26 109 -52 34 -36 59 -137 43 -168 -8 -14 -8 -31 0 -57 10 -32 9
-39 -12 -61 -12 -13 -27 -22 -31 -19 -5 3 -9 -1 -9 -10 0 -8 -6 -17 -12 -19
-9 -4 -8 -6 2 -6 25 -1 59 27 78 66 l18 35 57 -94 c31 -51 68 -106 82 -123
l26 -30 -22 45 c-12 25 -41 77 -66 117 -25 40 -42 77 -38 83 10 15 142 12 174
-4 15 -8 40 -32 56 -53 15 -21 47 -57 71 -79 l44 -42 -34 -25 c-39 -30 -243
-128 -339 -163 -37 -14 -94 -41 -126 -60 -32 -19 -74 -37 -93 -40 l-34 -6 -48
127 c-26 70 -44 135 -41 144 7 24 64 81 81 81 8 0 14 5 14 11 0 6 4 9 9 7 11
-4 97 -128 133 -193 15 -27 28 -42 28 -32 0 29 -28 88 -69 141 -21 28 -47 64
-57 80 l-18 28 47 -4 c25 -3 52 -1 59 4 10 7 10 8 -2 7 -31 -5 -86 15 -117 41
-17 16 -42 32 -55 35 -28 9 -74 44 -69 53 5 10 -31 92 -41 92 -4 0 -8 5 -8 11
0 5 5 7 10 4 6 -4 10 6 10 22 0 22 -2 25 -11 13 -8 -12 -9 -9 -4 10 14 56 25
66 83 78 91 18 96 19 110 9 6 -5 12 -7 12 -4z m1430 -62 c5 -11 10 -22 10 -25
0 -2 -55 -26 -122 -52 -376 -145 -505 -197 -518 -209 -8 -7 -42 -25 -75 -40
-56 -24 -60 -25 -72 -9 -18 25 -17 28 22 63 42 36 51 38 60 11 9 -27 20 -25
53 9 26 28 48 38 377 163 97 37 194 74 218 82 9 3 17 10 17 16 0 17 19 11 30
-9z m1930 -290 c68 -57 93 -71 125 -71 19 0 23 4 18 17 -19 48 109 -79 237
-237 74 -92 304 -332 325 -340 16 -6 3 -15 -65 -47 l-85 -39 -39 55 c-21 31
-57 76 -80 101 -92 102 -223 260 -251 302 -9 15 -21 25 -26 22 -5 -3 -7 1 -4
8 10 28 -157 227 -245 291 -25 18 -25 18 5 1 17 -9 55 -38 85 -63z m-1345
-214 c53 -67 133 -169 179 -227 46 -58 126 -161 178 -230 51 -69 163 -217 248
-329 230 -302 281 -371 276 -371 -5 0 -180 225 -444 575 -117 154 -284 372
-373 485 -153 196 -199 264 -199 292 0 7 9 -6 20 -30 11 -24 63 -98 115 -165z
m-7116 108 c63 -22 97 -50 121 -101 75 -154 -115 -361 -330 -357 -111 1 -205
54 -239 133 -25 58 -26 71 -6 136 27 91 132 182 237 204 55 12 163 4 217 -15z
m8116 -55 c3 -5 15 -10 25 -10 13 0 17 -5 14 -14 -3 -9 3 -17 15 -21 12 -3 21
-13 21 -22 0 -12 8 -15 40 -10 25 3 45 1 51 -6 5 -7 31 -40 57 -74 109 -143
436 -493 461 -494 10 0 6 -5 -9 -11 -14 -6 -59 -26 -101 -45 -87 -38 -90 -38
-83 -18 3 8 -3 31 -15 50 -34 59 -213 265 -224 258 -6 -3 -7 -1 -4 4 7 11 -20
40 -29 31 -3 -3 4 -21 15 -39 11 -19 29 -52 41 -74 l21 -40 -22 25 c-12 14
-32 38 -45 55 -12 16 -25 27 -28 24 -6 -5 133 -173 217 -263 l55 -58 -73 -34
c-41 -19 -77 -34 -82 -33 -4 0 -50 57 -101 127 -97 133 -139 187 -126 163 5
-9 3 -12 -4 -7 -7 4 -12 12 -12 18 0 6 -8 16 -17 23 -15 11 -19 9 -30 -12 -17
-33 -16 -38 3 -22 15 12 16 11 10 -8 -6 -17 1 -31 30 -60 35 -36 29 -20 -8 21
-19 21 -23 36 -10 36 8 0 57 -82 54 -92 -3 -12 150 -179 171 -187 20 -8 20 -9
-10 -24 -17 -9 -55 -26 -85 -37 -29 -11 -73 -31 -98 -45 -45 -23 -227 -105
-235 -105 -2 0 -2 6 1 13 2 7 -19 47 -49 88 -29 41 -84 120 -121 177 -37 57
-74 106 -82 109 -8 3 -12 8 -9 12 2 4 -7 19 -21 34 -14 15 -22 27 -19 27 4 0
-2 12 -12 28 -29 41 -57 111 -49 120 4 4 13 -1 21 -11 12 -16 13 -15 20 10 5
15 7 32 6 37 -1 5 5 3 14 -4 9 -7 14 -19 11 -27 -6 -14 9 -17 63 -14 23 2 31
-1 26 -8 -5 -8 1 -10 19 -5 28 7 77 -28 56 -41 -6 -4 -8 -15 -5 -25 5 -15 2
-17 -17 -13 -19 5 -15 -3 22 -41 24 -25 50 -46 56 -46 7 0 26 -14 43 -31 18
-17 36 -27 42 -23 7 4 9 3 6 -3 -4 -6 8 -20 27 -31 19 -11 69 -61 111 -111 72
-84 92 -100 108 -85 9 9 -287 369 -365 445 -44 42 -45 45 -17 52 28 7 14 30
-15 25 -19 -4 -22 -1 -18 18 2 12 13 24 23 27 10 3 17 1 14 -3 -9 -14 5 -38
25 -43 13 -3 17 0 13 9 -6 17 11 18 29 1 7 -7 25 -20 40 -30 26 -16 28 -16 38
3 8 15 17 19 31 15 16 -5 19 -1 19 29 0 31 4 36 28 41 15 3 45 11 66 16 38 10
41 9 60 -18 11 -15 41 -48 65 -73 24 -25 36 -35 27 -23 -17 21 -17 22 11 25
34 4 36 19 6 33 -13 5 -23 17 -23 27 0 9 -9 20 -20 23 -11 3 -20 11 -20 16 0
6 -4 7 -10 4 -5 -3 -10 -1 -10 5 0 6 -15 32 -32 58 -56 80 -108 174 -108 194
0 6 -10 23 -22 36 l-23 25 32 -17 c17 -9 35 -20 38 -26z m400 -53 c1 -15 75
-99 131 -151 7 -6 38 -43 70 -82 68 -81 196 -224 236 -263 l27 -26 -77 -35
-76 -36 -41 57 c-48 68 -172 212 -178 207 -3 -2 -15 6 -28 17 -12 11 -19 14
-15 8 4 -7 2 -13 -4 -13 -14 0 -40 25 -40 39 0 6 -6 11 -12 11 -10 0 -9 3 1 9
10 7 11 13 2 30 -7 12 -9 27 -5 33 4 6 3 8 -3 5 -14 -9 -37 19 -56 66 -9 20
-21 37 -28 37 -7 0 -9 3 -6 6 4 4 -1 20 -11 36 -15 25 -15 30 -2 38 8 6 21 8
28 5 7 -2 24 1 38 7 20 10 24 17 19 37 l-6 26 17 -25 c10 -13 19 -32 19 -43z
m-2025 -99 c0 -5 -15 -8 -34 -8 -19 0 -37 -4 -40 -9 -12 -19 22 -30 79 -26 33
2 65 -1 72 -7 14 -11 17 -46 7 -73 -15 -38 -134 -65 -134 -30 0 8 8 15 18 15
20 0 82 36 82 48 0 4 -29 6 -64 4 -64 -4 -65 -4 -85 29 -23 37 -21 41 36 74
34 19 39 19 50 6 7 -9 13 -19 13 -23z m-1590 -174 c0 -29 -4 -33 -46 -43 -57
-15 -129 -48 -170 -78 -41 -30 -56 -29 -52 4 3 28 45 65 76 68 24 1 155 75
166 93 12 20 26 -3 26 -44z m1007 -76 c11 -13 28 -45 38 -71 26 -68 13 -77
-65 -49 -33 11 -60 19 -60 16 0 -3 9 -19 21 -36 52 -72 -22 -26 -80 50 -43 57
-31 68 44 42 55 -19 105 -26 105 -15 0 3 -11 23 -25 45 -28 45 -13 56 22 18z
m-5355 -20 c9 -7 44 -47 78 -88 53 -64 100 -110 250 -244 74 -67 199 -144 223
-138 4 1 7 -22 7 -52 0 -106 32 -145 118 -147 53 -1 55 -2 25 -11 -43 -14
-100 -2 -129 27 -18 18 -24 35 -24 69 l0 44 -67 37 c-193 105 -377 282 -508
488 -14 22 -15 27 -3 27 8 0 21 -6 30 -12z m6500 -55 c-37 -20 -79 -46 -111
-69 -1 -2 0 -7 3 -13 4 -6 14 -3 27 10 11 11 24 17 28 14 5 -2 28 2 51 10 59
21 61 19 15 -12 -21 -15 -34 -28 -27 -31 9 -3 9 -9 0 -25 -10 -20 -10 -21 5
-8 10 7 17 19 17 26 0 7 11 15 24 17 22 5 24 3 15 -20 -5 -14 -7 -27 -4 -30 3
-3 5 -1 5 5 0 6 9 13 21 16 15 4 19 2 15 -9 -6 -16 19 -20 29 -4 9 15 22 12
29 -6 3 -8 2 -12 -4 -9 -6 3 -10 -1 -10 -10 0 -12 6 -15 20 -10 11 4 20 2 20
-4 0 -6 -7 -11 -15 -11 -8 0 -15 -9 -15 -20 0 -13 5 -18 15 -14 12 5 15 -2 15
-30 0 -27 3 -34 15 -30 8 4 15 1 15 -5 0 -6 -7 -11 -15 -11 -22 0 -18 -17 5
-23 11 -3 20 -2 20 3 0 4 9 10 20 13 11 3 20 1 20 -5 0 -16 -31 -42 -52 -43
-11 -1 -23 -6 -26 -12 -4 -6 -16 -7 -27 -3 -14 5 -25 1 -37 -13 -13 -14 -18
-16 -18 -6 0 8 -9 4 -24 -12 -28 -30 -25 -65 5 -74 27 -9 24 -16 -21 -61 -23
-23 -40 -49 -40 -62 0 -15 4 -21 11 -16 6 3 15 0 20 -7 6 -9 9 -10 9 -2 0 6
-7 19 -16 27 -18 19 -13 31 17 39 18 5 20 2 15 -19 -9 -33 0 -46 22 -35 25 14
56 24 65 23 10 -3 9 6 -3 29 -13 24 -32 25 -23 2 6 -16 5 -17 -13 -3 -10 8
-21 15 -23 17 -2 1 10 14 25 28 24 22 25 25 8 20 -16 -4 -24 2 -37 30 -23 48
-22 52 13 60 17 4 30 11 30 16 0 5 11 4 26 -1 16 -7 23 -7 19 0 -11 18 17 11
31 -7 12 -17 13 -16 8 3 -4 16 0 23 18 27 13 3 34 8 48 12 19 5 16 1 -12 -17
-29 -18 -35 -27 -28 -38 8 -13 10 -12 10 4 0 15 3 16 15 6 12 -10 15 -10 15 1
0 12 2 12 9 0 5 -7 14 -10 20 -7 6 4 11 4 11 1 0 -10 -27 -35 -32 -29 -3 2
-11 -3 -19 -12 -12 -15 -12 -16 8 -10 12 4 24 2 27 -3 4 -6 13 -8 20 -5 12 5
66 -41 66 -56 0 -3 -15 -11 -32 -18 -87 -35 -98 -42 -92 -57 4 -8 10 -15 15
-15 4 0 5 8 2 18 -6 15 -5 16 12 2 14 -12 19 -12 23 -2 3 9 7 10 17 2 11 -9
12 -6 7 12 -5 21 -4 22 11 9 11 -9 17 -10 17 -2 0 6 3 10 8 9 4 -1 18 2 31 6
16 6 28 3 39 -7 13 -14 8 -19 -54 -48 -38 -18 -71 -35 -74 -38 -3 -3 -16 -7
-30 -9 -13 -1 -28 -6 -32 -10 -8 -8 32 -72 46 -72 5 0 3 7 -4 15 -7 9 -10 18
-6 22 3 3 6 1 6 -5 0 -7 5 -12 10 -12 6 0 10 6 10 14 0 12 17 21 44 24 5 0 13
6 17 14 7 11 11 10 19 -2 8 -13 10 -13 10 1 0 10 16 23 40 33 47 19 53 20 45
6 -3 -5 -1 -18 4 -28 13 -24 -14 -51 -84 -83 -66 -30 -72 -31 -79 -6 -3 12 -7
19 -10 16 -7 -7 16 -79 25 -79 4 0 9 -10 13 -23 3 -13 12 -24 20 -24 13 0 13
5 1 34 -10 24 -11 32 -2 26 18 -11 37 -12 37 -2 0 17 17 9 28 -13 11 -22 11
-21 6 5 -7 29 11 39 19 10 4 -14 5 -12 6 5 0 12 6 22 12 22 6 0 8 -7 5 -16 -4
-9 -2 -13 5 -8 6 4 15 0 20 -7 6 -9 9 -10 9 -2 0 6 -4 15 -10 18 -5 3 -10 14
-10 23 0 12 5 10 18 -9 14 -23 19 -25 30 -13 17 18 36 18 29 0 -4 -10 1 -12
16 -9 12 2 -21 -17 -73 -42 -52 -25 -99 -44 -105 -41 -16 6 -57 -32 -50 -46 4
-7 -3 -2 -14 12 -11 14 -21 19 -21 12 0 -7 -11 -17 -25 -22 -14 -5 -25 -14
-25 -19 0 -6 -6 -8 -13 -5 -8 3 -20 -3 -28 -12 -8 -10 -9 -15 -3 -11 15 9 25
-17 17 -40 -6 -17 -5 -17 14 0 22 19 43 23 43 7 0 -5 -4 -10 -10 -10 -5 0 -10
-4 -10 -10 0 -5 8 -6 17 -3 13 5 15 2 10 -11 -4 -10 -3 -15 3 -11 13 8 70 25
70 20 0 -10 -130 -85 -156 -89 -29 -5 -30 -4 -30 28 1 22 5 31 11 26 14 -12
16 40 2 55 -8 8 -21 10 -41 4 -21 -6 -32 -5 -38 4 -8 12 -8 16 -11 69 -2 33
-21 38 -22 5 0 -12 -6 -21 -12 -20 -7 2 -13 -2 -13 -8 0 -19 -22 3 -39 40 -26
54 -55 101 -63 101 -5 0 -8 7 -8 15 0 8 -7 15 -15 15 -8 0 -15 7 -15 15 0 14
-9 18 -27 13 -5 -1 -7 -8 -5 -14 2 -12 -29 -36 -63 -47 -19 -6 -19 -6 -2 6 10
7 25 17 33 22 21 15 22 95 0 107 -11 6 -14 14 -8 21 5 7 6 21 2 31 -4 14 -9
16 -14 8 -10 -16 -37 -15 -35 1 3 23 -1 37 -11 37 -5 0 -10 -8 -10 -18 0 -25
-7 -31 -31 -25 -13 4 -19 14 -19 35 0 16 -4 27 -9 23 -13 -7 -34 32 -27 50 3
10 0 12 -11 8 -13 -5 -14 0 -8 28 4 19 11 35 16 37 4 2 5 10 2 18 -4 12 -8 11
-20 -6 -21 -30 -33 -24 -31 16 1 20 -4 39 -11 44 -9 5 -10 10 -2 14 16 11 13
26 -5 26 -11 0 -15 6 -11 20 3 11 0 18 -7 17 -6 -1 -10 8 -8 21 2 12 -2 22 -8
22 -6 0 -8 5 -5 10 10 16 -13 39 -34 35 -21 -4 -228 -97 -293 -132 -48 -26
-68 -60 -42 -70 12 -4 81 34 104 57 9 9 108 60 116 60 5 0 -6 -10 -23 -21 -37
-24 -40 -33 -15 -49 14 -9 11 -10 -16 -6 -38 6 -75 -10 -110 -48 l-24 -25 41
4 c31 3 39 1 34 -11 -3 -8 -1 -14 5 -14 6 0 12 5 14 12 6 16 28 1 28 -19 0 -9
-19 -33 -42 -55 -23 -21 -38 -38 -34 -38 14 0 71 34 79 48 4 6 12 12 17 12 15
0 12 -27 -4 -42 -11 -11 -11 -17 -1 -31 15 -21 26 -22 18 -2 -3 9 1 23 9 33 9
9 18 24 21 32 3 11 8 7 15 -12 6 -14 19 -32 29 -38 12 -8 14 -13 6 -16 -7 -3
-28 -16 -47 -29 -36 -25 -154 -70 -162 -62 -3 3 9 9 25 15 37 13 38 17 7 63
-18 25 -22 39 -14 47 16 16 1 30 -28 24 -24 -4 -25 -3 -15 17 11 20 8 26 -14
21 -5 -1 -21 -3 -35 -6 -40 -6 -121 -37 -174 -67 -27 -15 -55 -27 -62 -27 -24
0 -15 19 16 35 16 8 29 20 27 26 -1 7 4 14 12 17 8 3 11 0 7 -7 -12 -19 5 -12
58 22 28 19 66 39 84 47 26 10 30 15 21 26 -6 8 -18 14 -25 14 -8 0 -11 7 -8
18 5 15 4 15 -6 -1 -6 -10 -9 -25 -6 -33 3 -8 2 -13 -3 -10 -5 3 -15 -1 -22
-10 -7 -8 -25 -22 -41 -30 -38 -20 -37 -6 6 89 39 84 48 94 69 72 9 -8 23 -15
32 -15 12 0 16 -6 12 -19 -4 -18 -1 -17 37 6 22 15 86 48 141 74 55 25 108 56
119 67 14 16 23 19 37 12 24 -14 29 -12 23 5 -9 23 7 18 37 -11 24 -23 30 -25
64 -15 21 6 42 8 47 5 5 -3 15 0 23 6 13 10 12 16 -1 41 -8 16 -19 27 -23 25
-5 -3 -8 5 -8 19 0 20 6 25 38 30 21 4 43 13 49 20 6 8 26 17 43 20 32 7 84
27 122 47 20 11 20 11 0 -12 l-20 -22 37 18 c21 10 34 22 31 28 -4 6 1 5 10
-2 15 -13 11 -17 -31 -39z m-1482 -43 c0 -5 -20 -21 -45 -36 -25 -14 -45 -30
-45 -34 0 -18 40 -20 79 -4 54 21 60 14 16 -20 -33 -26 -44 -49 -27 -60 4 -2
28 4 52 15 76 34 78 15 3 -24 -76 -39 -88 -43 -78 -28 13 22 -14 19 -29 -4
-18 -27 -148 -93 -153 -78 -2 6 -26 45 -54 88 -28 42 -48 79 -45 82 11 12 52
-27 81 -76 27 -47 33 -51 59 -46 16 3 44 15 63 26 38 23 39 18 -21 93 -16 20
-27 38 -25 39 20 11 156 76 162 76 4 1 7 -3 7 -9z m-5307 -30 c65 -29 124 -89
133 -135 18 -97 -24 -216 -97 -279 -49 -41 -175 -81 -254 -80 -84 1 -140 19
-187 62 -151 136 -72 359 155 443 68 25 181 20 250 -11z m4968 -126 c5 -15 8
-28 7 -29 -2 -1 -22 -7 -45 -14 -39 -11 -43 -15 -43 -44 0 -59 29 -70 98 -37
51 25 52 25 52 0 0 -27 -73 -64 -109 -55 -63 16 -99 91 -67 141 16 23 72 64
89 64 4 0 12 -12 18 -26z m419 -232 c0 -10 -5 -23 -12 -30 -15 -15 -3 -16 23
-1 12 6 28 7 37 3 9 -4 26 -6 37 -4 20 2 20 2 1 -19 l-20 -22 30 16 c40 21 51
19 58 -10 7 -28 35 -32 94 -16 42 13 41 6 -5 -18 l-38 -19 50 -8 c28 -4 56 -7
63 -6 19 4 14 -8 -10 -28 -23 -19 -23 -19 -3 -33 11 -9 23 -13 27 -11 18 11 6
-9 -14 -27 -13 -10 -17 -18 -10 -19 6 0 12 -5 12 -11 0 -6 7 -17 15 -25 13
-14 15 -14 15 0 0 9 16 33 35 54 25 29 31 42 23 50 -8 8 -5 14 13 20 55 21 72
24 65 13 -4 -6 -13 -11 -19 -11 -19 0 -52 -69 -49 -101 2 -16 0 -34 -4 -40 -4
-7 -8 -27 -10 -44 -2 -29 0 -32 17 -28 17 5 20 11 14 39 -7 39 1 42 46 19 29
-16 30 -16 40 15 6 16 15 30 20 30 12 0 11 -6 -2 -28 -15 -24 19 -87 47 -87
14 0 22 -10 28 -37 6 -24 17 -40 30 -44 19 -6 19 -7 1 -20 -12 -9 -34 -13 -57
-10 -21 2 -41 -1 -45 -6 -4 -7 2 -9 15 -6 12 4 22 2 22 -3 0 -8 -11 -10 -35
-9 -8 1 -28 -22 -41 -45 -6 -11 -24 -24 -40 -30 -16 -5 -31 -12 -34 -15 -6 -6
-32 -10 -77 -13 -17 -1 -29 -6 -26 -11 3 -5 0 -7 -8 -4 -7 2 -22 -4 -33 -14
-22 -20 -26 -17 -44 25 -11 26 -11 28 8 22 12 -4 20 -2 20 5 0 6 4 8 10 5 6
-4 7 1 3 11 -4 12 -3 15 5 10 7 -4 12 -2 12 3 0 6 7 11 16 11 21 0 67 37 55
44 -5 3 -11 -1 -15 -9 -3 -8 -17 -15 -31 -15 -14 0 -25 -5 -25 -11 0 -5 -4 -7
-10 -4 -5 3 -23 -1 -40 -10 -27 -14 -32 -14 -55 1 -31 20 -32 34 -2 34 20 1
67 31 67 44 0 3 -7 6 -15 6 -8 0 -15 -4 -15 -8 0 -4 -8 -8 -17 -9 -10 -1 -28
-4 -40 -8 -17 -5 -23 -3 -23 7 0 8 -9 23 -20 33 -23 20 -17 39 10 30 10 -3 21
-1 25 4 4 7 -1 8 -11 4 -12 -4 -15 -3 -10 5 9 15 -9 16 -34 2 -14 -8 -21 -5
-34 14 -8 13 -18 36 -22 50 -5 21 -12 26 -35 26 -16 0 -29 -4 -29 -10 0 -5 -9
-10 -21 -10 -29 0 -14 17 22 25 23 5 28 10 19 20 -8 10 -7 16 7 25 10 6 12 10
3 7 -15 -3 -140 146 -140 167 1 6 8 -2 16 -17 15 -27 17 -28 34 -12 11 10 20
12 24 6 4 -5 -2 -14 -11 -20 -30 -17 -10 -19 27 -3 26 11 30 17 18 19 -11 3
-18 14 -18 28 0 25 -21 38 -46 28 -15 -6 -94 26 -94 38 0 13 27 29 59 35 25 5
30 4 25 -9 -3 -8 -1 -18 4 -21 12 -7 25 22 16 35 -8 14 3 10 20 -7 15 -14 16
-14 16 5 0 12 6 21 15 21 8 0 15 -8 15 -18z m-1310 -172 c0 -5 -6 -10 -13 -10
-7 0 -26 -14 -43 -31 l-29 -32 40 7 c22 4 52 9 66 12 30 6 59 -17 59 -45 0
-27 -29 -48 -101 -74 l-64 -23 -17 35 c-10 20 -29 48 -42 62 -23 25 -25 39 -5
39 4 0 24 -27 44 -60 34 -56 63 -72 52 -29 -4 15 0 19 20 19 30 0 95 29 88 40
-2 4 -36 5 -75 2 l-70 -5 0 31 c0 21 8 36 28 51 29 22 62 28 62 11z m-3789
-124 c31 -12 69 -32 85 -43 19 -14 40 -20 59 -17 17 2 22 1 13 -2 -15 -5 -16
-17 -11 -100 7 -118 -9 -166 -80 -241 -60 -63 -130 -93 -215 -92 l-57 0 55 15
c97 25 159 55 191 92 34 38 79 127 78 152 0 8 -6 2 -12 -15 -35 -88 -103 -160
-179 -190 -64 -24 -176 -18 -239 13 -25 12 -51 22 -57 22 -7 0 -21 15 -32 33
-13 20 -20 26 -20 15 0 -22 59 -90 74 -85 14 5 66 -21 66 -33 0 -36 -126 41
-153 94 -44 85 -28 206 39 284 33 39 122 94 184 113 53 16 153 9 211 -15z
m6049 -4 c0 -30 13 -34 27 -10 11 21 12 20 13 -22 0 -36 3 -41 11 -27 5 9 15
17 21 17 6 0 4 -10 -5 -24 -9 -13 -13 -33 -10 -44 3 -15 0 -20 -13 -19 -9 1
-19 -3 -21 -8 -5 -17 23 -49 36 -41 9 6 9 12 -1 24 -11 15 -11 15 4 4 13 -11
23 -10 55 3 l38 15 -25 -20 c-29 -23 -113 -65 -260 -127 -58 -25 -123 -54
-145 -65 l-40 -19 25 20 c14 11 75 41 135 67 181 76 185 78 185 87 0 5 -22 34
-50 65 -27 31 -50 63 -50 71 0 15 49 70 63 71 4 0 7 -8 7 -18z m-1875 -103
c33 -6 74 -17 90 -24 149 -64 181 -79 188 -91 4 -8 14 -14 21 -14 14 0 67 -55
60 -62 -2 -3 7 -11 21 -18 14 -7 24 -18 23 -24 -2 -6 16 -46 40 -88 73 -134
78 -223 18 -353 -27 -61 -106 -149 -158 -179 -26 -15 -17 -3 38 55 140 145
174 285 102 421 -16 32 -23 38 -26 25 -4 -18 -4 -18 -19 0 -13 17 -14 16 -7
-7 9 -34 15 -291 5 -260 l-7 25 -6 -30 c-17 -83 -126 -189 -227 -221 -60 -19
-185 -23 -309 -11 -67 6 -78 10 -123 47 -77 65 -140 140 -171 205 -24 50 -28
71 -27 125 1 36 6 81 10 100 4 19 6 36 5 38 -7 6 -36 -98 -36 -127 0 -17 -4
-31 -10 -31 -24 0 8 210 37 242 9 10 13 18 8 18 -4 0 -2 7 5 15 6 8 8 20 4 26
-4 8 -3 9 4 5 7 -4 12 -3 12 3 0 5 3 16 6 25 4 12 0 16 -15 16 -12 0 -21 5
-21 10 0 9 24 14 59 13 9 -1 10 2 3 9 -13 13 28 55 74 77 16 7 49 24 74 37 39
21 54 23 120 19 41 -3 102 -10 135 -16z m-1031 -72 c9 -7 27 -30 39 -52 l23
-40 -56 -37 c-63 -43 -66 -44 -73 -20 -4 9 -18 37 -33 62 l-26 44 22 18 c25
20 40 23 40 8 0 -5 5 -10 11 -10 5 0 7 5 3 11 -3 6 0 15 7 20 18 12 22 11 43
-4z m2484 -152 c2 -9 0 -15 -6 -11 -5 3 -13 -1 -16 -9 -5 -13 -2 -14 15 -4 28
15 54 -7 26 -22 -10 -6 -14 -15 -10 -22 4 -7 -1 -6 -11 2 -15 13 -18 12 -23
-8 -3 -14 -8 -18 -13 -11 -5 7 -22 3 -56 -14 -86 -43 -100 -43 -119 -2 -10 20
-22 37 -29 37 -6 1 3 5 19 8 36 9 50 4 36 -13 -6 -6 -6 -18 -2 -25 7 -11 11
-9 20 7 7 14 8 23 1 27 -20 12 -9 22 40 35 28 7 50 17 50 22 0 4 9 8 19 8 11
0 23 5 26 11 10 15 29 6 33 -16z m-2277 -308 c86 -28 172 -79 212 -126 15 -18
27 -36 28 -39 2 -16 9 -41 34 -112 39 -111 39 -195 -2 -283 -76 -160 -238
-260 -417 -256 -28 1 -14 5 47 15 57 9 110 24 150 44 121 61 220 190 233 305
12 100 -56 269 -108 270 -5 0 -9 4 -10 10 -2 5 -14 20 -27 33 -68 68 -211 123
-315 120 l-61 -1 55 -7 55 -7 -55 -2 -55 -3 78 -14 c86 -15 202 -67 261 -115
20 -17 49 -54 63 -83 23 -45 27 -66 31 -171 l4 -120 -33 -50 c-41 -61 -138
-128 -217 -151 -38 -11 -76 -15 -121 -11 -113 9 -138 22 -226 109 -44 44 -66
71 -50 60 17 -11 51 -41 77 -66 60 -58 131 -80 234 -74 58 4 81 11 123 36 28
18 55 32 60 32 13 0 74 76 97 120 12 24 19 64 22 130 l4 96 -44 64 c-37 54
-55 70 -108 97 -35 17 -94 37 -131 44 -58 10 -77 9 -143 -6 -42 -10 -76 -22
-76 -27 0 -4 -22 -24 -48 -43 -35 -25 -57 -52 -80 -97 -20 -40 -30 -52 -26
-33 4 17 11 34 15 40 14 14 11 35 -5 35 -18 0 -38 -32 -65 -109 -26 -72 -25
-149 3 -216 18 -41 100 -131 157 -170 21 -16 37 -30 35 -33 -3 -2 -16 4 -29
14 -13 11 -49 38 -80 61 -68 52 -116 140 -122 224 -13 158 -13 182 -4 168 7
-9 7 -5 3 15 -5 21 -4 27 5 22 6 -4 11 -1 11 8 0 19 90 117 123 135 14 8 28
20 31 28 9 22 -76 -41 -123 -92 -78 -85 -107 -192 -77 -290 12 -41 12 -47 1
-31 -21 28 -38 121 -30 169 14 89 91 222 151 264 22 14 58 39 80 55 23 15 66
32 95 37 86 16 224 6 310 -22z m-85 -159 c62 -30 132 -101 157 -158 49 -109
-2 -269 -100 -318 -60 -31 -105 -35 -175 -16 -35 9 -71 18 -81 19 -26 2 -99
61 -127 102 -34 49 -40 159 -14 235 22 63 91 135 146 152 57 18 141 11 194
-16z m-1131 -120 c33 -59 68 -115 78 -126 17 -19 17 -19 -6 -19 -32 0 -275
-102 -416 -175 -62 -32 -117 -58 -121 -58 -13 0 -142 252 -133 260 4 4 55 25
113 45 58 21 134 54 170 74 75 42 230 110 245 107 6 -2 37 -50 70 -108z
m-1198 -109 c17 -41 32 -77 32 -81 2 -16 -56 -7 -114 17 -33 14 -61 25 -62 25
0 0 5 -21 13 -47 16 -53 18 -73 5 -73 -21 0 -70 153 -53 164 6 3 47 -10 91
-29 45 -19 81 -32 81 -29 0 2 -11 31 -25 64 -29 68 -30 73 -12 68 6 -3 26 -38
44 -79z m1315 -104 c47 -69 108 -180 108 -197 0 -8 -27 -27 -60 -43 -33 -16
-58 -30 -56 -32 2 -2 31 9 65 25 l61 29 24 -36 c13 -20 37 -63 53 -96 17 -33
48 -93 69 -133 47 -89 56 -79 -140 -157 -77 -31 -145 -61 -150 -65 -11 -11 44
10 214 80 147 60 125 71 220 -103 34 -61 80 -140 102 -174 22 -35 38 -69 35
-77 -3 -7 -47 -34 -99 -59 -51 -26 -138 -71 -193 -100 -119 -64 -232 -110
-251 -103 -12 5 -93 165 -110 219 -4 12 -10 24 -14 27 -5 3 -30 50 -57 105
-27 55 -86 164 -131 243 -45 79 -82 146 -82 150 0 4 -11 24 -25 44 -14 21 -55
88 -91 149 -61 104 -71 139 -43 139 6 0 93 39 193 86 143 68 311 136 323 130
0 -1 16 -23 35 -51z m2659 43 c48 -16 117 -67 139 -103 10 -17 22 -49 25 -70
5 -33 1 -48 -24 -87 -16 -26 -45 -54 -63 -63 l-33 -16 32 25 c143 117 61 291
-137 291 -81 0 -128 -24 -146 -75 -7 -19 -13 -27 -13 -17 -1 26 -18 12 -24
-19 -10 -56 33 -144 89 -180 13 -9 41 -22 62 -30 21 -7 28 -13 18 -14 -34 0
-105 40 -136 78 -43 52 -65 123 -51 165 14 40 65 95 106 113 38 17 111 18 156
2z m-3462 -143 c33 -66 58 -121 56 -123 -2 -2 -44 -19 -95 -38 -50 -19 -122
-50 -159 -69 -69 -34 -293 -127 -297 -122 -4 3 -124 247 -124 250 0 5 76 38
205 90 61 25 162 67 225 94 63 28 118 47 122 44 4 -3 34 -60 67 -126z m3351
70 c-16 -19 0 -19 26 0 48 36 173 -29 174 -91 0 -25 -20 -44 -78 -74 -52 -27
-99 -21 -143 18 l-31 27 20 52 c11 29 17 55 14 58 -4 3 0 10 8 15 21 14 24 12
10 -5z m-370 -146 c51 -23 95 -61 116 -101 16 -30 19 -115 5 -137 -6 -10 -8
-1 -4 26 12 91 -44 163 -142 183 -127 26 -224 -35 -225 -142 -1 -27 -2 -30
-11 -16 -18 32 7 89 65 151 52 54 58 57 103 57 26 0 68 -10 93 -21z m-2777
-319 c54 -107 121 -236 148 -286 27 -50 49 -95 49 -98 0 -4 -47 -29 -105 -56
-58 -27 -105 -51 -105 -54 0 -3 28 8 63 24 34 16 80 37 102 46 22 10 43 20 46
21 4 2 44 -67 88 -153 45 -87 95 -177 111 -201 48 -71 48 -72 -115 -158 -60
-32 -146 -77 -190 -101 -83 -44 -211 -83 -225 -68 -11 14 -53 95 -130 259 -39
83 -78 164 -87 180 -102 195 -153 299 -153 309 0 7 10 18 23 25 17 9 18 10 2
6 -35 -11 -38 -10 -51 15 -45 87 -149 306 -149 313 0 4 43 25 95 46 52 21 131
56 175 78 44 22 118 53 165 68 47 15 89 31 94 36 13 11 31 -20 149 -251z
m-930 140 c20 -47 42 -102 51 -122 l16 -37 -43 -12 c-59 -16 -201 -76 -347
-147 -186 -91 -167 -94 -239 41 -34 63 -61 121 -61 130 0 17 -3 16 149 69 63
21 158 59 210 83 143 65 215 93 223 86 3 -3 22 -44 41 -91z m3720 83 c20 -9
37 -22 38 -32 5 -78 -24 -110 -108 -118 -52 -5 -62 -3 -86 18 -14 13 -33 44
-41 67 -13 41 -13 45 5 63 16 16 32 19 87 18 37 -1 84 -8 105 -16z m-419 -206
c36 -24 60 -63 51 -84 -5 -12 -9 -14 -12 -5 -3 6 -9 9 -15 6 -5 -3 -12 3 -15
15 -6 22 -46 30 -58 10 -5 -6 -12 -4 -21 8 -10 14 -13 15 -14 3 0 -21 17 -46
26 -37 4 4 13 2 20 -4 8 -6 22 -9 31 -5 11 3 8 -2 -6 -12 -14 -9 -42 -23 -63
-30 -32 -11 -41 -10 -62 3 -13 9 -32 32 -41 52 -16 34 -16 37 2 61 11 15 31
30 44 33 38 11 105 4 133 -14z m-3206 -105 c16 -27 60 -113 96 -193 37 -79
112 -234 166 -344 54 -110 120 -245 145 -300 25 -55 62 -124 82 -153 55 -79
47 -91 -107 -174 -227 -122 -346 -172 -398 -166 -24 3 -34 16 -79 108 -28 58
-60 125 -69 150 -10 25 -23 52 -29 60 -7 8 -22 43 -33 78 l-21 62 32 15 c18 9
24 13 14 10 -66 -18 -57 -27 -130 129 -37 80 -67 149 -67 153 0 5 31 20 70 33
38 13 68 26 66 28 -4 3 -110 -22 -139 -33 -9 -4 -37 45 -90 152 -94 195 -98
208 -61 217 16 4 94 39 174 78 146 71 301 135 332 137 9 1 29 -19 46 -47z
m2710 -48 c114 -47 142 -149 66 -234 -44 -49 -81 -57 -153 -33 -73 24 -94 54
-94 133 0 70 19 105 74 132 42 22 59 22 107 2z"/>
<path d="M7895 9245 c-112 -20 -172 -59 -224 -145 -57 -95 10 -209 171 -291
132 -67 338 -63 443 9 70 48 104 151 74 229 -25 67 -138 153 -255 193 -65 23
-109 24 -209 5z m137 -81 c25 -8 52 -22 58 -30 7 -7 19 -14 26 -14 17 0 39
-33 58 -88 15 -41 15 -42 -7 -42 -18 0 -19 2 -7 10 13 8 12 10 -2 10 -10 0
-18 -4 -18 -10 0 -5 -11 -10 -25 -10 -51 0 -103 -23 -108 -47 -4 -23 -4 -23
20 -7 26 17 71 25 142 28 48 1 66 -17 29 -29 -20 -7 -18 -9 15 -12 20 -2 37
-9 37 -15 0 -7 -18 -8 -57 -3 -82 11 -103 9 -146 -9 -33 -15 -36 -19 -26 -37
17 -32 2 -35 -28 -5 -23 23 -25 30 -15 46 11 18 -1 40 -15 26 -11 -10 -82 34
-107 67 -14 19 -29 48 -32 66 -9 45 -21 47 -44 9 -27 -45 -27 -10 1 43 38 76
124 94 251 53z"/>
<path d="M6713 8897 c-62 -23 -172 -101 -188 -134 -44 -91 18 -213 146 -290
56 -33 193 -73 252 -73 44 0 149 35 198 66 91 57 116 100 104 177 -14 84 -86
190 -123 181 -24 -6 -51 13 -34 24 17 12 -46 38 -122 52 -77 13 -192 12 -233
-3z m115 -84 c6 -16 14 -41 18 -56 5 -24 10 -27 28 -22 11 4 37 9 57 12 34 5
38 2 63 -40 14 -25 26 -55 26 -66 0 -24 -36 -37 -77 -26 l-28 7 26 -20 c14
-11 37 -22 51 -24 24 -3 25 -5 13 -22 -13 -17 -20 -18 -64 -9 -31 6 -56 6 -66
0 -13 -7 -28 -1 -60 22 -24 17 -48 31 -54 31 -7 0 -11 22 -11 54 0 35 -5 58
-15 66 -19 16 -19 40 -1 75 28 53 77 62 94 18z"/>
<path d="M8645 8409 c-192 -28 -322 -134 -340 -279 -4 -32 -3 -39 4 -25 9 19
10 19 10 -2 1 -13 -3 -23 -7 -23 -5 0 -7 -24 -6 -53 3 -83 52 -172 131 -239
25 -21 41 -38 38 -38 -4 0 12 -15 34 -34 66 -55 271 -125 368 -126 39 0 52 16
18 22 -13 3 -22 1 -19 -3 6 -11 -20 -12 -30 -2 -3 4 -17 8 -29 10 -47 6 -107
26 -107 35 0 6 8 7 18 3 30 -13 86 -25 112 -24 l25 1 -25 8 c-31 10 -21 12
105 15 50 1 101 4 115 6 16 3 24 0 22 -8 -1 -7 2 -13 8 -13 6 0 10 5 10 10 0
6 19 19 43 30 49 23 101 52 121 69 21 18 46 99 56 179 l7 67 2 -68 c1 -71 14
-82 25 -22 14 74 -106 258 -203 313 -38 22 -36 18 32 -50 96 -96 121 -148 114
-235 -3 -44 -14 -83 -33 -121 -34 -65 -85 -97 -210 -134 l-77 -22 -109 22
c-59 12 -132 31 -162 42 -59 22 -164 86 -210 129 l-29 26 20 -30 c33 -48 64
-72 126 -99 31 -14 57 -28 57 -30 0 -9 -155 45 -194 68 -57 33 -121 118 -140
186 -15 56 -18 190 -3 190 5 0 5 5 2 10 -3 6 -2 10 3 10 5 0 17 19 28 42 10
23 39 57 67 79 175 139 600 108 803 -59 63 -51 89 -78 87 -92 0 -3 11 -22 24
-44 37 -58 53 -112 53 -179 0 -78 -45 -172 -110 -230 l-45 -40 44 24 c45 25
97 81 124 134 22 45 28 103 18 168 -13 76 -43 134 -104 203 -46 51 -165 140
-212 158 -25 10 -136 36 -195 46 l-45 7 45 3 45 3 -50 7 c-65 11 -194 10 -270
-1z"/>
<path d="M8765 8230 c37 -8 36 -9 -15 -5 -127 8 -252 -99 -238 -203 24 -173
249 -303 471 -272 115 17 180 57 212 132 34 84 8 166 -80 246 -80 74 -164 105
-290 108 -75 2 -90 0 -60 -6z m91 -76 c18 -9 50 -34 69 -56 35 -38 36 -41 33
-111 -3 -60 -6 -72 -19 -69 -9 1 -22 -5 -29 -13 -16 -20 -32 -19 -56 3 -10 9
-39 27 -64 38 -102 48 -150 122 -112 174 38 51 112 65 178 34z m188 -240 c3
-9 3 -21 -1 -26 -3 -7 -1 -8 5 -4 19 11 14 -9 -6 -27 -24 -22 -88 -48 -104
-42 -7 2 -35 6 -61 9 -61 5 -67 11 -38 39 l23 22 -6 -25 c-3 -14 -3 -20 0 -13
3 6 33 25 67 41 53 26 77 35 108 41 4 0 10 -6 13 -15z"/>
<path d="M5545 7871 c11 -4 40 -12 65 -16 25 -4 47 -11 50 -15 3 -4 53 -19
112 -34 130 -31 326 -104 463 -173 57 -29 205 -125 250 -163 166 -141 345
-394 412 -585 26 -76 28 -89 27 -245 -1 -186 -15 -255 -78 -393 -35 -77 -63
-119 -138 -206 -21 -24 -38 -52 -38 -61 0 -10 -17 -30 -37 -45 l-38 -28 33 34
c56 60 35 55 -30 -8 -87 -83 -322 -221 -456 -267 -128 -44 -265 -81 -360 -96
-39 -7 -70 -16 -67 -20 3 -5 -1 -10 -7 -13 -7 -2 -10 -8 -6 -12 12 -12 222 22
348 57 78 21 157 53 246 98 224 114 347 206 444 330 19 25 47 59 63 75 109
113 177 293 177 467 0 102 -26 299 -51 382 -24 82 -95 227 -151 309 -47 69
-165 197 -182 197 -6 -1 -5 -6 4 -13 8 -7 26 -26 40 -42 23 -27 22 -27 -20 6
-25 19 -62 46 -83 60 -20 13 -35 29 -33 36 3 7 -1 10 -10 6 -7 -3 -14 0 -14 6
0 17 -77 87 -124 115 -23 12 -70 41 -106 63 -96 58 -265 130 -350 149 -41 9
-97 23 -125 31 -55 16 -263 29 -230 14z"/>
<path d="M5551 7816 c14 -7 43 -16 65 -20 91 -15 183 -39 178 -47 -4 -7 56
-29 79 -29 18 0 344 -134 369 -151 14 -11 30 -19 36 -19 16 0 286 -267 322
-317 18 -27 44 -59 59 -72 14 -13 20 -20 12 -16 -9 5 -8 -1 4 -19 17 -25 34
-38 19 -14 -5 7 -3 8 5 4 7 -5 10 -14 7 -22 -3 -7 1 -20 9 -28 8 -7 17 -25 20
-39 4 -15 13 -31 21 -38 8 -6 14 -18 14 -25 0 -8 4 -14 9 -14 5 0 12 -11 15
-25 4 -14 10 -25 15 -25 9 0 24 -51 41 -135 l9 -50 -4 60 c-5 72 -48 207 -103
325 -62 133 -138 228 -262 328 -191 153 -214 166 -460 268 -134 55 -412 134
-473 134 l-32 0 26 -14z"/>
<path d="M4220 7590 c-25 -9 -56 -22 -70 -28 -49 -19 -159 -133 -225 -233
-141 -211 -178 -344 -157 -563 20 -213 71 -370 171 -521 44 -67 272 -305 291
-305 31 0 -15 71 -141 219 -89 105 -179 259 -220 378 -59 173 -63 424 -8 559
29 72 120 252 141 280 28 38 179 169 217 189 22 11 63 47 50 44 -2 0 -24 -9
-49 -19z"/>
<path d="M5210 7455 c-8 -2 -48 -9 -88 -16 -40 -7 -77 -18 -83 -26 -6 -7 -15
-10 -20 -7 -22 13 -160 -41 -249 -99 -114 -73 -154 -108 -203 -176 -92 -126
-112 -182 -112 -316 0 -178 54 -291 229 -475 107 -113 166 -154 298 -206 160
-65 250 -85 413 -91 123 -4 155 -2 261 20 199 40 375 129 486 244 97 100 167
282 154 399 -8 69 -44 184 -60 190 -7 3 -26 -2 -42 -11 -26 -13 -30 -13 -41 1
-15 21 10 64 38 64 21 0 26 -16 7 -23 -7 -2 -1 -4 13 -4 l27 0 -15 36 c-66
156 -231 304 -435 387 -43 17 -74 34 -70 38 4 4 -7 5 -23 1 -20 -4 -26 -3 -17
3 10 7 -9 15 -65 30 -43 12 -94 23 -113 26 -42 7 -269 15 -290 11z m-115 -74
c0 -31 1 -32 30 -26 16 3 66 9 111 12 129 9 374 -40 511 -102 58 -26 184 -119
251 -184 44 -43 102 -126 102 -146 0 -6 -20 -12 -44 -14 -42 -2 -46 0 -93 56
-105 125 -208 205 -293 227 -17 5 -13 0 13 -14 54 -30 45 -33 -15 -5 -29 14
-62 25 -73 26 -20 0 -20 0 0 8 15 6 0 13 -60 27 -62 14 -120 19 -257 19 -98 0
-178 -3 -178 -6 0 -4 -21 -14 -47 -24 -93 -34 -192 -103 -230 -161 -42 -64
-51 -69 -23 -14 11 22 18 40 16 40 -11 0 -82 -110 -98 -153 -21 -54 -24 -169
-7 -232 29 -106 201 -296 324 -357 198 -100 437 -132 605 -82 183 55 308 151
377 291 37 76 38 80 38 189 0 62 3 115 7 119 16 16 70 -19 95 -62 23 -41 25
-51 21 -142 -5 -131 -40 -206 -143 -306 -164 -160 -401 -235 -668 -213 -168
13 -299 58 -465 157 -163 97 -241 198 -307 396 -23 68 -27 91 -22 155 9 133
73 253 176 330 61 46 224 127 273 135 l36 7 -16 29 c-16 27 -16 29 3 43 31 24
50 15 50 -23z m367 -215 c97 -19 182 -54 268 -111 81 -54 129 -108 167 -191
23 -49 28 -73 28 -140 0 -103 -24 -152 -116 -238 -71 -66 -136 -96 -210 -96
-22 0 -39 -3 -39 -7 0 -5 -21 -9 -48 -10 -26 -2 -61 -4 -79 -6 -44 -6 -219 18
-271 37 -68 25 -218 133 -257 186 -63 86 -90 156 -89 235 0 87 25 147 87 209
116 115 353 171 559 132z"/>
<path d="M5163 7100 c-51 -12 -122 -58 -129 -84 -7 -30 33 -111 78 -155 40
-40 199 -152 249 -176 49 -24 81 -14 102 30 18 37 21 81 11 134 -9 45 -24 38
-24 -11 0 -44 -29 -120 -49 -133 -6 -3 -49 12 -95 34 -62 30 -97 55 -135 97
-69 76 -86 108 -66 127 8 9 34 18 57 22 24 4 67 17 97 30 30 12 62 20 73 17
21 -5 88 -79 88 -98 0 -12 29 -28 37 -20 9 8 -56 94 -101 133 -63 55 -119 71
-193 53z"/>
<path d="M5535 6763 c3 -16 24 -58 45 -95 21 -37 49 -96 61 -130 12 -35 24
-64 25 -66 9 -13 214 123 214 142 0 22 -66 82 -127 116 -62 33 -149 60 -196
60 -27 0 -29 -2 -22 -27z"/>
<path d="M5238 6687 c-6 -11 -28 -39 -50 -63 l-40 -43 18 -58 c25 -79 60 -113
116 -113 163 1 358 33 358 59 0 23 -91 136 -140 173 -35 26 -80 30 -80 6 0
-14 30 -69 64 -118 52 -74 52 -77 -2 -27 -28 26 -55 47 -59 47 -4 0 -45 35
-91 78 -77 72 -84 77 -94 59z"/>
<path d="M3998 7138 c-22 -36 -38 -77 -38 -99 0 -11 -6 -22 -13 -25 -8 -3 -14
-10 -14 -17 0 -7 -10 -49 -22 -94 -28 -107 -27 -155 8 -295 31 -125 65 -197
163 -343 43 -64 64 -85 108 -110 92 -50 98 -40 23 38 -88 91 -123 143 -184
272 -61 126 -79 206 -79 351 0 109 14 190 53 302 17 47 16 52 -5 20z"/>
<path d="M7037 6622 c-9 -10 -17 -33 -17 -51 0 -103 -93 -401 -151 -482 -17
-24 -16 -39 1 -39 4 0 19 25 35 55 29 58 41 70 30 33 -6 -22 -5 -22 6 -3 7 11
16 22 20 25 30 21 83 209 100 356 14 112 7 140 -24 106z"/>
<path d="M6787 6445 c-17 -63 -99 -220 -151 -288 -67 -89 -182 -201 -261 -254
-166 -111 -385 -199 -582 -234 -56 -9 -110 -22 -120 -28 -18 -10 -16 -11 82
-11 45 -1 227 43 330 79 61 22 146 58 190 82 197 106 422 317 500 469 24 47
46 138 34 146 -9 5 -13 -8 -10 -38 1 -9 -5 -30 -14 -45 -9 -15 -13 -19 -9 -8
4 11 6 29 5 40 0 11 4 32 10 47 6 14 9 37 7 50 -3 21 -4 21 -11 -7z"/>
<path d="M6720 5920 c0 -5 -5 -10 -10 -10 -6 0 -38 -22 -73 -49 -92 -72 -166
-117 -311 -189 -193 -96 -301 -131 -495 -163 -69 -11 -131 -25 -138 -31 -7 -6
-13 -7 -13 -3 0 4 -6 2 -13 -4 -14 -11 -59 -10 -277 8 -249 20 -380 46 -610
121 -75 24 -126 37 -128 30 -2 -5 -10 -10 -18 -10 -36 0 5 -22 128 -70 107
-42 166 -57 307 -82 156 -28 198 -31 366 -31 324 0 475 26 791 137 91 31 217
95 317 159 100 64 223 177 205 189 -18 11 -28 10 -28 -2z"/>
<path d="M4624 5835 c1 -8 27 -27 57 -42 30 -14 61 -32 69 -38 35 -29 185 -78
315 -105 119 -24 164 -28 288 -28 81 1 147 5 147 9 0 5 -30 9 -67 9 -204 1
-507 74 -709 171 -88 43 -103 46 -100 24z"/>
<path d="M4688 5683 c-38 -10 -21 -23 97 -70 72 -28 228 -67 357 -88 131 -21
339 -31 364 -17 17 10 16 11 -11 12 -26 1 -27 3 -10 10 15 6 7 9 -30 8 -39 0
-45 -2 -25 -8 23 -8 23 -8 -8 -9 -18 -1 -40 5 -47 13 -8 7 -67 21 -132 31
-141 20 -291 55 -389 88 -77 27 -139 38 -166 30z"/>
<path d="M7531 7982 c-9 -7 9 -11 55 -14 100 -6 199 -47 253 -106 94 -103 153
-180 177 -230 24 -52 25 -55 10 -92 -9 -23 -12 -42 -6 -45 5 -3 12 6 16 20 3
13 10 22 15 19 5 -3 7 -9 4 -14 -3 -5 -1 -11 5 -15 6 -4 9 21 6 70 -2 42 0 71
5 64 4 -8 11 -11 14 -7 8 8 -24 87 -51 123 -12 17 -24 39 -28 50 -8 26 -85 92
-150 128 -53 29 -77 31 -27 1 67 -40 33 -36 -53 6 -76 37 -102 45 -161 47 -38
2 -76 0 -84 -5z"/>
<path d="M7563 7924 c37 -7 82 -20 100 -28 17 -7 41 -17 51 -20 10 -4 16 -9
13 -12 -3 -3 -26 2 -51 10 -25 9 -65 18 -89 21 -33 4 -28 1 23 -13 141 -38
234 -99 271 -176 16 -34 16 -37 2 -16 -60 83 -125 125 -239 154 -87 22 -184
31 -184 17 0 -16 -18 -13 -22 4 -2 11 -20 4 -73 -31 -82 -54 -131 -98 -152
-138 -23 -45 -13 -125 24 -185 37 -58 17 -58 -21 0 -15 21 -28 39 -31 39 -5 0
33 -102 42 -110 2 -3 8 -5 12 -5 4 0 25 -14 46 -31 86 -68 244 -110 371 -100
82 6 120 18 152 48 12 12 22 17 22 11 0 -6 -16 -25 -35 -41 -43 -38 -94 -47
-234 -39 -80 4 -100 3 -81 -5 14 -6 77 -11 140 -11 99 0 122 3 163 23 26 12
52 31 58 41 5 10 22 25 37 33 30 15 80 98 88 144 3 15 9 29 15 30 5 2 9 27 9
56 0 57 -25 106 -102 198 -65 76 -239 150 -348 147 -44 -1 -43 -2 23 -15z m21
-175 c50 -14 118 -76 118 -109 0 -14 -5 -40 -13 -57 -13 -32 -12 -34 21 -62
19 -16 38 -27 42 -24 4 2 5 -4 1 -14 -18 -47 -106 -71 -194 -53 -32 7 -59 16
-59 21 0 17 39 30 58 20 28 -15 59 -2 73 30 6 16 9 32 5 36 -3 3 -6 0 -6 -7 0
-17 -30 -50 -45 -50 -29 0 -164 92 -187 128 -51 77 -46 100 27 133 45 21 102
24 159 8z"/>
<path d="M7979 7440 c-11 -26 -103 -143 -133 -171 -24 -21 -43 -28 -100 -32
-101 -9 -237 9 -336 43 -79 27 -106 31 -84 11 5 -4 30 -14 57 -21 46 -12 59
-24 35 -32 -6 -2 35 -12 92 -22 166 -30 304 -12 382 47 41 32 101 137 96 170
-2 16 -5 18 -9 7z"/>
<path d="M3495 7708 c-11 -6 -26 -18 -32 -26 -16 -20 -17 -93 -2 -126 30 -66
172 -75 236 -14 48 45 20 134 -53 164 -40 17 -121 18 -149 2z m154 -36 c44
-22 52 -64 15 -81 -33 -15 -81 -14 -87 2 -3 6 -6 2 -6 -11 -1 -20 3 -22 22
-17 17 5 19 4 7 -4 -23 -16 -45 -13 -74 10 -24 19 -39 58 -17 44 5 -3 11 9 13
27 2 25 9 34 28 39 42 12 63 10 99 -9z"/>
<path d="M2768 5784 c-10 -3 -18 -9 -18 -13 0 -5 -39 -23 -86 -41 -78 -29
-107 -51 -90 -67 3 -3 54 4 113 15 60 12 124 24 143 26 19 2 47 7 63 10 15 3
39 9 54 12 27 5 26 6 -22 30 -50 24 -125 37 -157 28z"/>
<path d="M3490 5733 c0 -17 -2 -38 -6 -46 -5 -15 30 -34 76 -39 14 -2 27 -6
30 -9 3 -3 51 -25 108 -48 57 -22 116 -49 130 -60 15 -10 59 -34 97 -54 39
-19 91 -53 116 -76 26 -22 49 -38 51 -35 3 2 11 -2 18 -11 15 -18 55 -21 44
-2 -5 8 -2 8 9 -2 15 -11 17 -11 17 2 0 8 2 22 5 29 8 21 -36 61 -145 132
-121 80 -130 85 -174 90 -19 2 -40 7 -45 10 -5 4 -12 2 -15 -3 -4 -5 -2 -12 4
-16 14 -8 13 -35 -1 -35 -14 0 -38 30 -39 47 0 6 8 13 17 15 29 5 -77 55 -178
84 -52 14 -100 33 -106 42 -11 14 -13 11 -13 -15z"/>
<path d="M2820 5674 c-102 -16 -152 -29 -197 -51 -57 -28 -72 -49 -23 -32 50
18 55 4 9 -24 l-44 -28 65 5 c101 6 219 36 267 66 36 23 40 29 24 33 -10 2
-42 0 -71 -5 -67 -12 -75 -4 -13 11 79 21 94 30 48 29 -22 0 -51 -2 -65 -4z"/>
<path d="M3220 5640 c19 -4 59 -13 89 -19 80 -16 76 -24 -8 -16 -125 12 -73
-17 106 -60 156 -37 340 -119 484 -216 130 -87 163 -120 244 -244 86 -131 108
-179 141 -305 65 -245 35 -440 -109 -708 -63 -117 -81 -142 -153 -210 -127
-119 -173 -150 -401 -267 -201 -103 -243 -129 -190 -119 12 2 0 -6 -26 -20
-67 -33 -69 -38 -6 -20 259 74 392 135 544 249 55 41 104 75 109 75 5 0 6 14
2 32 -6 30 -5 31 8 13 14 -19 16 -19 51 15 89 86 206 289 261 455 68 206 58
441 -29 664 -22 58 -62 137 -88 176 -67 99 -198 248 -214 241 -7 -2 -21 5 -32
16 -16 19 -60 50 -198 142 -81 54 -218 94 -340 101 -27 1 -90 10 -139 19 -92
17 -177 22 -106 6z"/>
<path d="M3345 5479 c39 -10 78 -24 88 -29 9 -6 30 -8 45 -4 18 4 23 3 14 -4
-11 -7 -7 -11 14 -16 49 -13 187 -79 247 -119 32 -21 61 -36 64 -34 2 3 -7 13
-21 23 -15 9 -24 19 -22 22 3 2 19 -7 36 -22 17 -14 26 -26 19 -26 -7 0 -3
-10 10 -24 12 -13 30 -22 39 -20 9 3 39 -4 67 -14 39 -14 55 -27 72 -57 12
-21 20 -42 17 -46 -6 -10 35 -81 58 -100 11 -8 24 -35 29 -60 6 -24 21 -61 35
-81 37 -53 67 -232 60 -353 -10 -177 -43 -266 -151 -410 -37 -49 -76 -109 -87
-133 -24 -51 -31 -50 -17 2 13 48 4 59 -14 16 -12 -28 -16 -30 -28 -18 -11 13
-19 8 -56 -35 -47 -56 -117 -109 -178 -136 -23 -10 -53 -29 -68 -43 -14 -13
-44 -33 -67 -43 -43 -19 -50 -35 -25 -55 34 -28 207 48 249 109 21 30 42 46
83 61 76 29 119 60 191 141 81 91 104 138 188 374 35 98 44 284 20 405 -26
128 -54 190 -98 219 -29 19 -35 27 -27 37 29 35 -146 226 -302 330 -53 35 -99
64 -102 64 -3 0 -34 13 -69 29 -77 36 -135 54 -146 47 -5 -3 -40 1 -78 9 -38
8 -89 14 -114 14 l-45 0 70 -20z"/>
<path d="M2460 5441 c-30 -15 -85 -46 -121 -69 -36 -23 -70 -42 -74 -42 -5 0
-20 -10 -33 -22 -14 -13 -22 -17 -17 -10 6 11 3 12 -14 3 -11 -7 -21 -16 -21
-21 0 -6 -4 -9 -8 -7 -4 1 -57 -50 -118 -113 -155 -163 -267 -346 -281 -458
-7 -62 10 -95 33 -65 9 12 13 14 14 5 0 -7 4 -11 9 -8 5 4 11 0 14 -6 2 -7 8
12 12 42 15 111 73 260 131 337 13 18 23 38 22 45 -2 6 2 12 7 13 6 0 28 20
50 43 65 73 243 199 362 258 116 57 153 84 115 84 -11 0 -22 4 -24 9 -1 5 -28
-3 -58 -18z"/>
<path d="M2895 5140 c-49 -11 -91 -17 -93 -15 -6 6 -103 -30 -167 -63 -188
-94 -310 -247 -334 -418 -10 -70 -2 -163 19 -218 8 -23 6 -26 -41 -41 -64 -22
-58 -30 7 -10 27 8 51 11 55 7 3 -4 26 -36 51 -72 139 -198 366 -310 629 -310
68 0 109 5 207 26 20 4 26 -3 47 -51 14 -30 27 -55 29 -55 3 0 -4 25 -15 57
-10 31 -19 59 -19 63 0 4 17 10 38 13 54 9 204 102 271 168 156 154 191 382
91 587 -85 171 -255 283 -503 331 -129 25 -156 25 -272 1z m320 -52 c53 -17
156 -77 229 -133 16 -12 17 -17 5 -31 -8 -10 -29 -23 -47 -31 -28 -12 -36 -11
-63 3 -17 8 -29 18 -26 21 3 2 15 -1 27 -7 12 -6 24 -10 26 -7 5 5 -178 91
-230 107 -22 7 -90 12 -158 12 l-119 0 -14 28 c-19 36 -19 35 8 37 12 1 45 7
72 12 64 13 238 6 290 -11z m-396 -21 c5 -12 12 -37 16 -54 6 -32 6 -33 -27
-33 -92 0 -259 -131 -312 -244 -25 -54 -28 -67 -24 -155 l3 -96 63 -83 c74
-96 141 -153 214 -180 144 -53 329 -55 458 -5 198 77 288 188 313 384 12 100
7 128 -44 212 -35 56 -35 63 -8 77 16 9 26 8 45 -5 53 -35 119 -179 131 -284
10 -104 -41 -233 -134 -335 -68 -76 -132 -122 -201 -143 -46 -15 -55 -15 -63
-3 -7 13 -9 13 -9 -1 0 -11 -9 -16 -30 -16 -16 0 -27 4 -25 8 9 14 -28 19 -65
9 -25 -7 -46 -7 -62 -1 -13 6 -70 15 -128 21 -124 14 -205 39 -312 96 -35 19
-54 18 -34 -2 9 -8 14 -20 10 -25 -3 -5 2 -12 10 -15 9 -3 16 -10 16 -15 0
-29 -124 79 -172 149 -29 42 -29 44 -14 77 15 32 15 37 1 65 -9 16 -21 81 -27
143 -12 116 -11 116 -37 12 -8 -35 -9 -31 -4 25 10 130 27 166 118 258 72 71
96 88 181 127 55 25 106 49 114 54 19 11 29 5 39 -22z m436 -293 c13 -14 15
-30 9 -95 -5 -62 -4 -79 7 -79 17 0 59 40 59 57 0 30 49 -3 50 -34 0 -17 -107
-63 -147 -63 -35 0 -35 0 -29 38 18 115 19 152 5 152 -8 0 -22 -22 -32 -50
-20 -55 -33 -62 -47 -26 -5 13 -14 27 -19 31 -21 12 -11 32 27 50 20 10 44 22
52 26 24 13 47 10 65 -7z m-191 -85 c14 -17 26 -37 26 -44 0 -7 14 -24 31 -38
46 -36 38 -73 -21 -103 -55 -29 -101 -30 -124 -5 -19 21 -15 38 27 99 48 72
12 98 -58 42 -29 -23 -41 -28 -51 -19 -45 37 21 97 108 98 29 1 42 -5 62 -30z
m-242 -66 c10 -9 18 -23 18 -31 0 -14 -13 -14 -66 3 -53 17 -76 -77 -28 -114
37 -29 70 -26 111 9 45 40 65 40 61 -2 -6 -64 -107 -100 -177 -63 -82 42 -107
131 -52 186 23 23 38 29 72 29 25 0 50 -7 61 -17z"/>
<path d="M845 4335 c-5 -2 -36 -11 -67 -20 -56 -15 -59 -18 -88 -75 -34 -68
-37 -90 -13 -127 24 -36 71 -53 147 -53 55 0 70 4 112 33 60 40 102 114 88
155 -14 41 -88 92 -132 91 -20 0 -41 -2 -47 -4z m16 -77 c0 -10 2 -10 6 0 7
17 40 15 47 -4 10 -27 7 -79 -7 -97 -7 -10 -32 -20 -59 -23 -41 -5 -50 -3 -72
20 -15 14 -26 30 -26 35 0 6 18 22 40 36 22 14 40 30 40 35 0 15 30 12 31 -2z"/>
<path d="M1043 3763 c4 -3 -14 -14 -40 -22 -92 -31 -149 -152 -107 -229 10
-19 36 -47 58 -61 35 -23 50 -26 125 -26 79 0 90 2 131 30 71 48 103 121 84
192 -9 32 -65 54 -145 56 -38 1 -69 5 -69 9 0 14 49 20 115 16 35 -2 62 -1 59
3 -6 11 -137 39 -180 39 -21 0 -34 -3 -31 -7z m11 -65 c3 -13 6 -33 6 -45 0
-14 7 -23 21 -25 11 -2 28 -15 37 -30 15 -25 15 -28 -3 -47 -10 -12 -15 -21
-11 -21 20 0 75 31 85 47 10 17 10 17 11 -4 0 -38 -45 -63 -116 -63 -63 0 -94
15 -94 44 0 7 -14 32 -31 56 l-31 42 24 25 c42 46 92 56 102 21z"/>
<path d="M1355 3020 c-22 -11 -50 -20 -61 -20 -28 0 -34 -17 -34 -94 0 -77 22
-110 81 -126 70 -19 156 14 218 85 25 29 31 45 31 80 0 25 -4 45 -9 45 -5 0
-12 8 -14 18 -3 9 -6 -5 -7 -33 -4 -80 -7 -94 -20 -110 -20 -24 -62 -52 -90
-59 l-25 -7 23 20 c27 24 29 35 3 21 -11 -5 -28 -10 -38 -10 -13 1 -9 5 12 17
37 19 73 52 87 77 6 10 -6 2 -27 -18 -32 -32 -38 -35 -48 -22 -8 11 -20 14
-37 9 l-25 -7 30 -7 30 -6 -44 -21 c-33 -15 -50 -18 -63 -11 -24 13 -23 48 4
76 22 23 12 33 -10 11 -16 -16 -15 -5 2 36 14 33 40 49 81 51 11 0 22 5 25 10
9 18 -34 14 -75 -5z"/>
<path d="M5860 2813 c0 -3 8 -15 18 -26 16 -20 16 -20 -3 -14 -19 7 -19 7 -1
-8 10 -8 24 -12 30 -8 6 3 8 3 4 -2 -4 -4 8 -25 27 -46 57 -64 82 -187 50
-249 -9 -17 -16 -33 -16 -37 0 -12 -33 -53 -42 -53 -4 0 -21 -9 -36 -21 -57
-42 -272 -64 -313 -31 -53 42 -118 105 -113 110 3 3 17 -5 33 -19 26 -23 26
-23 -2 8 -16 18 -32 30 -36 28 -4 -2 -7 1 -8 8 0 7 -7 30 -16 52 -21 55 -20
94 4 133 11 18 18 37 15 42 -3 5 0 12 6 16 8 5 9 3 4 -7 -5 -8 -5 -11 0 -7 13
12 16 68 4 68 -36 0 -99 -125 -99 -198 0 -20 12 -62 27 -92 14 -30 27 -59 27
-65 3 -34 121 -146 154 -147 73 -1 292 21 308 31 18 12 18 12 -1 6 -39 -13
-300 -26 -303 -15 -2 5 -9 10 -15 10 -7 0 -20 11 -29 24 l-17 23 37 -18 c23
-12 57 -19 93 -19 84 0 211 19 234 35 11 8 40 28 65 46 l45 31 -34 -36 c-19
-20 -32 -38 -29 -41 3 -3 28 20 57 50 107 118 103 257 -10 362 -41 38 -119 88
-119 76z"/>
<path d="M5570 2649 c-47 -14 -56 -24 -37 -44 14 -13 43 -20 100 -24 5 -1 7
-7 5 -13 -5 -15 -40 -17 -49 -4 -8 10 -29 -1 -29 -15 0 -5 7 -9 15 -9 8 0 15
-3 15 -7 0 -5 21 -8 46 -8 32 0 49 5 59 18 11 15 17 16 38 6 31 -14 66 -6 98
22 13 11 18 18 12 14 -8 -4 -13 1 -13 13 0 30 -19 40 -95 46 -38 2 -83 7 -100
10 -16 3 -46 0 -65 -5z"/>
<path d="M4745 2254 c-52 -19 -59 -27 -46 -53 11 -20 13 -20 36 -5 14 9 32 13
41 10 9 -4 23 -1 31 6 11 9 16 9 22 -1 11 -16 -11 -90 -29 -101 -12 -7 -11
-11 1 -26 13 -16 12 -17 -11 -10 -62 17 -85 17 -115 -3 -21 -15 -25 -21 -15
-25 73 -27 99 -32 129 -25 38 8 52 24 49 54 -2 14 6 24 25 32 21 9 27 19 27
43 0 38 -23 84 -52 104 -27 19 -41 19 -93 0z"/>
<path d="M6530 10114 c-47 -12 -93 -25 -102 -29 -35 -14 -16 -61 61 -147 65
-73 113 -57 56 18 -26 34 -32 50 -16 39 6 -3 46 -51 89 -108 99 -127 190 -227
206 -227 7 0 21 9 31 20 18 20 18 22 -37 78 -67 69 -133 152 -122 152 4 0 56
-48 116 -106 76 -75 112 -105 124 -100 8 3 22 6 30 6 32 0 7 32 -136 174 -82
83 -147 152 -145 155 3 3 27 -16 53 -42 46 -45 74 -58 86 -38 7 11 -166 167
-192 173 -9 3 -55 -6 -102 -18z"/>
<path d="M6030 9979 c-98 -30 -120 -40 -120 -56 0 -18 70 -121 103 -152 20
-18 32 -22 52 -17 l27 7 -28 37 c-15 20 -43 54 -63 75 -19 20 -31 37 -27 37
10 0 91 -90 131 -145 53 -73 208 -255 217 -255 18 0 48 21 48 34 0 7 -32 50
-71 97 -77 92 -95 119 -80 119 8 0 49 -40 162 -164 41 -44 48 -48 77 -41 18 3
32 10 32 14 0 10 -164 193 -262 293 -43 43 -78 84 -78 91 0 7 35 -23 77 -65
72 -74 91 -87 106 -72 8 9 -41 65 -115 132 -67 60 -83 62 -188 31z"/>
<path d="M5567 9834 c-3 -3 -25 -10 -48 -15 -64 -15 -109 -39 -109 -58 0 -10
28 -54 63 -99 57 -75 87 -96 102 -72 7 11 -30 71 -77 127 l-32 38 43 -40 c24
-22 64 -71 91 -110 26 -38 72 -97 101 -131 30 -33 66 -75 82 -92 29 -34 57
-41 76 -18 13 15 -10 49 -103 155 -96 111 -61 100 57 -17 63 -62 118 -112 123
-112 21 0 54 32 47 45 -5 7 -79 86 -167 175 -87 89 -155 164 -152 167 3 4 35
-21 70 -55 37 -36 73 -62 85 -62 12 0 21 3 21 8 0 4 -37 44 -83 90 -81 81 -83
82 -133 82 -28 0 -53 -3 -57 -6z"/>
<path d="M2110 9816 c0 -26 77 -126 97 -126 5 0 35 -25 68 -55 70 -64 94 -72
69 -22 -22 41 -126 169 -160 196 -30 24 -74 28 -74 7z"/>
<path d="M2001 9748 c37 -69 182 -238 205 -238 20 0 25 30 10 58 -27 50 -180
202 -204 202 -20 0 -21 -2 -11 -22z"/>
<path d="M3514 8960 c-25 -10 -29 -15 -38 -53 -5 -21 -1 -33 18 -52 28 -28 66
-32 111 -10 22 11 24 13 6 9 -16 -4 -21 -3 -17 5 4 6 14 11 22 11 22 0 12 70
-12 87 -20 15 -59 16 -90 3z"/>
<path d="M268 8826 c-105 -30 -194 -123 -204 -212 -11 -90 44 -157 167 -206
75 -30 220 -29 300 1 75 28 147 77 170 115 23 37 33 103 24 146 -10 44 -68
106 -129 138 -45 23 -64 26 -166 29 -74 1 -132 -3 -162 -11z m243 -62 c69 -20
143 -93 147 -145 2 -26 0 -30 -8 -19 -8 11 -9 9 -5 -11 5 -21 -1 -32 -33 -61
-56 -51 -99 -63 -228 -63 -106 0 -113 1 -159 30 -62 39 -85 81 -75 136 9 46
18 55 115 109 59 33 79 39 131 40 33 0 85 -7 115 -16z"/>
<path d="M2835 8744 c-71 -25 -186 -61 -255 -79 -114 -31 -244 -73 -327 -106
-38 -15 -39 -22 -14 -74 10 -21 16 -46 13 -57 -2 -10 1 -18 7 -18 6 0 11 5 11
10 0 6 11 15 25 20 14 5 25 14 25 20 0 13 -13 13 -27 -1 -8 -8 -13 -7 -18 1
-4 7 -2 16 5 20 15 9 5 30 -15 30 -14 0 -27 24 -18 34 11 11 21 6 58 -30 20
-19 40 -32 43 -29 4 4 -8 20 -27 36 -19 16 -32 31 -28 35 8 8 66 -38 66 -53 1
-7 9 -13 19 -12 11 0 12 2 4 6 -10 4 -9 10 5 25 17 19 17 20 0 29 -27 16 -20
25 31 44 26 9 61 23 79 31 40 18 41 18 46 -8 4 -21 4 -20 6 3 1 24 7 28 59 39
32 6 70 13 85 13 15 1 27 5 27 8 0 4 10 9 22 12 26 7 49 -4 26 -12 -13 -5 -12
-9 4 -25 18 -20 18 -20 17 0 -4 42 2 53 32 59 17 4 42 13 57 21 15 8 37 14 49
14 12 0 25 5 28 10 3 6 18 7 32 4 19 -5 24 -3 21 7 -8 24 -39 19 -173 -27z"/>
<path d="M2145 8529 c-35 -9 -197 -52 -270 -70 -27 -7 -51 -13 -53 -14 -2 -2
10 -24 25 -49 24 -41 31 -46 53 -41 35 9 47 22 32 37 -9 9 -18 9 -38 -1 -27
-12 -27 -12 -12 10 8 13 31 32 51 42 l37 19 20 -23 c11 -13 19 -30 20 -37 0
-7 5 -10 10 -7 14 8 3 46 -18 62 -19 15 -16 19 21 28 22 6 26 4 21 -8 -3 -8
-1 -18 5 -21 5 -4 12 2 15 12 7 19 70 47 86 37 10 -6 50 15 50 27 0 10 -15 9
-55 -3z"/>
<path d="M744 8425 c-95 -99 -233 -144 -387 -125 -127 15 -251 55 -299 98 -11
9 -18 11 -18 4 0 -20 105 -83 161 -97 231 -60 406 -29 532 93 39 38 78 86 65
81 -2 -1 -26 -25 -54 -54z"/>
<path d="M42 8318 c-7 -7 -12 -42 -13 -82 0 -39 -3 -65 -6 -58 -17 44 -23 -35
-23 -334 l0 -335 77 7 c49 4 81 12 86 20 4 8 19 14 33 14 13 0 48 13 77 29 28
16 58 27 65 24 6 -3 12 0 12 6 0 14 27 14 32 1 5 -16 88 28 128 67 19 19 49
42 65 50 40 21 80 53 67 53 -14 0 -6 53 13 90 7 14 26 51 42 83 15 32 37 69
48 81 17 19 75 144 75 163 0 3 -25 -17 -55 -46 -57 -54 -120 -87 -187 -98 -30
-4 -39 -3 -34 5 10 16 -35 32 -90 32 -64 0 -54 16 14 23 70 6 156 38 219 80
45 31 113 108 113 129 0 5 -30 -11 -66 -37 -36 -25 -92 -59 -123 -75 -63 -32
-139 -50 -127 -31 4 6 13 11 20 11 7 0 13 7 13 15 0 8 -9 15 -21 15 -18 0 -18
2 -6 11 11 7 -7 8 -60 4 -112 -10 -260 27 -370 92 -3 2 -11 -2 -18 -9z"/>
<path d="M9470 7180 c-212 -43 -345 -164 -370 -336 -12 -86 -13 -117 -1 -110
10 6 21 -26 21 -62 0 -13 11 -47 25 -75 29 -60 142 -200 155 -192 5 3 24 -13
42 -35 32 -40 213 -170 236 -170 7 0 40 -15 74 -33 42 -22 95 -39 158 -51 52
-9 111 -21 131 -26 49 -13 186 -13 249 1 46 10 50 13 50 40 0 26 -2 28 -25 19
-14 -5 -25 -6 -25 -1 0 5 11 12 25 15 24 6 25 10 25 72 l0 67 -32 -6 c-18 -3
-40 -8 -48 -11 -10 -4 -27 11 -52 47 -46 65 -296 333 -309 329 -5 -1 -8 2 -7
8 3 11 -48 71 -204 241 -59 64 -105 119 -101 123 3 3 16 6 27 6 12 0 31 7 44
15 21 15 25 13 99 -57 104 -98 238 -242 478 -517 l100 -114 3 98 3 97 -36 42
c-19 22 -63 75 -97 116 -66 80 -130 151 -218 242 l-56 57 55 20 54 20 48 -52
c27 -29 94 -99 149 -157 l100 -105 0 117 0 116 -41 30 c-23 17 -84 52 -136 79
-52 26 -105 54 -119 61 -13 7 -39 13 -57 13 -17 0 -63 7 -102 14 -116 23 -221
24 -315 5z m175 -502 c47 -45 85 -86 85 -91 0 -15 264 -288 295 -304 l29 -16
-74 -26 -75 -27 -17 31 c-9 16 -18 28 -20 25 -1 -2 -36 32 -77 75 -41 44 -100
105 -130 135 -31 30 -93 95 -138 145 l-82 89 37 23 c59 36 74 31 167 -59z
m-184 -141 c14 -12 70 -74 124 -137 108 -125 132 -150 149 -150 6 0 -4 -8 -22
-17 -18 -9 -37 -24 -43 -35 -9 -16 -12 -17 -37 -4 -35 19 -74 56 -142 136 -70
82 -118 131 -150 152 -22 14 -23 18 -10 32 20 20 71 46 90 46 8 -1 27 -11 41
-23z"/>
<path d="M1645 6922 l-27 -41 21 -23 c39 -41 164 -252 420 -706 42 -75 48 -82
71 -76 14 3 27 7 29 9 8 8 -89 189 -219 410 -96 163 -203 349 -236 409 l-32
59 -27 -41z"/>
<path d="M1515 6775 c-47 -41 -48 -44 -24 -45 22 0 38 -23 138 -195 62 -108
132 -230 156 -273 23 -42 63 -114 90 -160 39 -67 45 -85 35 -97 -7 -8 -10 -15
-7 -15 5 0 80 31 85 34 1 2 -16 36 -39 77 -23 41 -73 133 -111 204 -39 72 -81
144 -93 160 -47 63 -157 275 -174 332 -6 21 -8 20 -56 -22z"/>
<path d="M0 2616 c0 -8 121 -288 190 -441 37 -82 98 -222 135 -310 108 -259
148 -349 240 -545 87 -185 148 -324 188 -432 11 -32 25 -58 29 -58 4 0 -1 21
-11 48 -44 109 -202 475 -251 577 -28 61 -82 182 -120 270 -37 88 -102 239
-145 335 -42 96 -93 211 -112 255 -117 267 -143 322 -143 301z"/>
<path d="M9980 2184 c-30 -19 -54 -40 -52 -47 2 -7 14 -23 26 -37 12 -14 43
-59 69 -100 44 -73 162 -220 176 -220 20 0 41 63 41 124 l0 65 -67 87 c-38 47
-84 104 -103 125 l-35 39 -55 -36z"/>
<path d="M9555 1943 c-64 -33 -63 -31 -37 -48 21 -16 195 -234 245 -308 15
-23 32 -43 37 -45 7 -3 109 56 129 74 2 1 -30 43 -71 91 -41 48 -107 127 -147
176 -40 49 -79 87 -89 87 -9 -1 -39 -13 -67 -27z"/>
<path d="M8538 1864 c-33 -17 -37 -56 -11 -94 24 -35 35 -41 63 -34 62 14 80
75 35 119 -28 28 -48 31 -87 9z"/>
<path d="M9151 1736 c-24 -18 -43 -37 -42 -42 1 -5 43 -60 94 -122 97 -119
165 -207 183 -238 10 -16 15 -15 72 20 34 21 62 40 62 42 0 6 -242 307 -278
347 -14 15 -31 27 -36 26 -6 0 -31 -15 -55 -33z"/>
<path d="M8763 1542 c-29 -15 -52 -29 -52 -32 -1 -3 40 -57 89 -120 50 -63
116 -152 146 -197 l56 -82 58 29 c32 16 61 34 65 40 3 5 -38 67 -92 136 -54
69 -120 154 -146 190 -27 35 -54 64 -60 64 -7 -1 -36 -13 -64 -28z"/>
<path d="M8382 1347 l-63 -33 51 -59 c28 -33 59 -69 69 -80 10 -11 60 -76 111
-145 51 -69 94 -127 96 -129 1 -1 30 14 63 34 41 25 58 42 52 49 -5 6 -44 58
-86 116 -107 144 -216 280 -224 280 -3 -1 -34 -16 -69 -33z"/>
<path d="M9893 1104 l-62 -15 97 -147 c52 -81 115 -184 140 -229 24 -46 50
-83 57 -83 8 0 20 -7 29 -15 8 -9 31 -22 51 -30 l35 -15 0 264 c0 242 -1 264
-17 271 -38 16 -266 15 -330 -1z"/>
<path d="M9726 1021 c-73 -52 -122 -111 -113 -134 3 -7 71 -46 151 -87 80 -40
146 -75 146 -79 0 -4 -6 -14 -12 -23 -26 -31 -63 -48 -108 -48 -47 0 -204 25
-220 35 -14 9 -23 -40 -15 -83 26 -140 127 -295 240 -367 158 -102 256 -142
396 -164 l49 -8 0 162 0 162 -72 6 c-40 3 -90 11 -111 17 -52 15 -105 66 -122
115 -17 51 -5 67 77 96 32 12 58 23 58 26 0 13 -63 125 -90 158 -18 22 -64 87
-103 145 -38 58 -73 109 -77 113 -3 4 -37 -15 -74 -42z"/>
<path d="M7503 679 c-187 -99 -298 -155 -378 -191 -44 -20 -124 -57 -178 -82
-54 -25 -100 -46 -102 -46 -16 0 -675 -323 -700 -343 -19 -15 -10 -16 122 -17
l142 0 203 102 c375 187 462 230 583 283 66 29 199 91 296 139 97 47 182 86
188 86 16 0 14 6 -21 66 -18 30 -38 54 -45 54 -7 0 -57 -23 -110 -51z"/>
<path d="M545 405 c-143 -73 -318 -157 -390 -186 -72 -29 -136 -57 -142 -62
-8 -6 -13 -36 -13 -83 l0 -74 43 0 c24 0 47 4 52 8 6 5 29 14 51 20 23 7 124
52 225 101 101 48 222 105 269 126 217 96 230 104 230 146 0 39 -39 139 -53
138 -7 -1 -129 -61 -272 -134z"/>
<path d="M7680 419 c-159 -85 -331 -172 -420 -213 -85 -38 -271 -130 -364
-180 l-49 -26 159 0 159 0 120 60 c66 33 126 60 133 60 18 0 117 51 252 129
63 36 133 76 155 88 28 15 39 27 37 40 -6 32 -52 93 -70 93 -9 0 -60 -23 -112
-51z"/>
<path d="M7945 167 c-33 -19 -118 -64 -190 -100 l-130 -67 174 0 c169 0 175 1
222 26 27 15 56 38 65 51 15 24 14 27 -13 71 -16 26 -37 48 -48 50 -11 1 -47
-13 -80 -31z"/>
</g>
</svg>
