<?xml version="1.0" standalone="no"?>
<!DOCTYPE svg PUBLIC "-//W3C//DTD SVG 20010904//EN"
 "http://www.w3.org/TR/2001/REC-SVG-20010904/DTD/svg10.dtd">
<svg version="1.0" xmlns="http://www.w3.org/2000/svg"
 width="1024.000000pt" height="1024.000000pt" viewBox="0 0 1024.000000 1024.000000"
 preserveAspectRatio="xMidYMid meet">

<g transform="translate(0.000000,1024.000000) scale(0.100000,-0.100000)"
fill="#000000" stroke="none">
<path d="M1261 9675 c-117 -26 -244 -127 -304 -243 -72 -141 -72 -135 -72
-817 l0 -610 48 -95 c32 -63 51 -115 56 -155 10 -75 -2 -182 -23 -203 -15 -15
-16 -14 -16 10 0 56 -19 35 -25 -27 -4 -36 -11 -68 -16 -71 -5 -3 -9 3 -9 13
0 13 -5 9 -19 -13 -10 -17 -31 -40 -46 -52 -15 -12 -25 -22 -21 -22 12 0 51
22 58 34 4 6 8 -131 8 -304 l0 -314 -57 57 c-32 32 -74 68 -93 80 l-35 22 30
-40 c42 -54 65 -92 65 -105 0 -6 7 -18 15 -26 8 -9 14 -27 14 -42 l-2 -27 -4
28 c-2 15 -8 25 -13 22 -4 -3 -15 10 -24 28 -9 17 -25 43 -36 57 -11 14 -2
-11 20 -55 36 -70 41 -91 47 -172 5 -75 3 -101 -12 -140 -28 -76 -76 -120
-145 -134 l-35 -7 35 -1 c49 -1 129 39 169 84 37 42 36 28 14 253 -5 54 -4 62
10 57 10 -4 18 1 22 15 5 17 10 19 18 11 8 -8 11 -49 10 -119 -11 -561 -12
-786 -6 -837 l8 -59 45 -8 c25 -4 59 -10 75 -13 l30 -5 -3 371 c-3 360 -2 371
18 404 11 18 40 43 63 54 38 18 50 19 107 10 36 -5 103 -20 150 -34 102 -29
363 -88 509 -116 58 -11 128 -27 156 -35 27 -8 92 -21 145 -29 52 -7 172 -32
265 -53 94 -22 220 -50 280 -61 333 -66 367 -77 419 -146 55 -72 56 -78 56
-436 0 -183 -3 -329 -7 -325 -5 4 -10 130 -13 279 l-6 272 -2 -310 c-1 -170
-6 -316 -11 -324 -8 -12 -20 -11 -78 7 -37 12 -124 33 -193 47 -69 13 -136 27
-150 30 -14 3 0 -5 31 -18 31 -14 79 -27 105 -31 110 -13 159 -27 184 -51 46
-44 69 -103 71 -181 2 -79 -7 -103 -51 -134 l-30 -21 -118 26 c-64 15 -198 46
-297 71 -99 24 -214 51 -255 59 -157 33 -207 92 -212 252 -2 106 6 112 135
109 l102 -2 -105 25 c-58 14 -121 35 -140 47 l-35 20 4 293 c2 203 0 292 -7
287 -6 -3 -13 4 -15 16 -7 36 -12 -250 -8 -429 4 -190 18 -176 -134 -138 -128
32 -172 32 -87 1 35 -13 64 -26 66 -27 1 -2 12 -17 24 -33 22 -29 30 -62 13
-51 -17 10 -20 -11 -12 -65 5 -29 5 -68 0 -87 -10 -46 -55 -93 -88 -93 -30 0
-168 28 -321 63 -58 14 -145 33 -195 42 -112 22 -129 30 -115 54 13 26 14 66
1 135 -6 33 -8 62 -6 65 3 2 5 -1 5 -8 0 -7 4 -9 10 -6 15 9 -12 54 -59 100
-23 21 -41 37 -41 35 0 -3 7 -23 15 -45 17 -48 19 -159 4 -220 -6 -24 -21 -53
-34 -65 -23 -21 -24 -21 -111 -6 -49 8 -103 18 -120 22 l-31 6 -5 -244 c-3
-133 -5 -475 -4 -758 l1 -515 28 -82 c43 -129 70 -182 138 -273 86 -116 151
-176 253 -234 80 -44 113 -55 384 -122 163 -41 351 -86 417 -100 66 -14 307
-72 535 -129 228 -57 498 -122 600 -145 102 -23 250 -57 330 -76 80 -18 195
-45 255 -58 61 -13 155 -35 210 -49 97 -24 220 -53 590 -138 99 -22 241 -56
315 -74 74 -18 162 -38 195 -45 33 -6 204 -47 380 -89 176 -43 381 -92 455
-109 265 -62 530 -125 825 -197 629 -154 755 -185 910 -221 151 -35 506 -120
910 -219 99 -24 209 -49 245 -56 88 -15 235 -13 293 5 104 31 194 111 264 232
84 146 121 277 133 476 6 87 7 1255 4 2843 l-5 2695 -24 85 c-46 159 -137 311
-241 404 -67 59 -171 116 -231 126 l-42 7 18 -35 c28 -55 38 -310 15 -380 -19
-59 -40 -89 -28 -42 6 26 2 24 -27 -19 -19 -27 -46 -59 -62 -70 -27 -20 -28
-20 -155 -2 -70 10 -192 31 -272 47 -80 15 -203 38 -275 49 -71 11 -195 34
-275 50 -80 16 -219 42 -309 59 -191 36 -223 51 -322 153 -81 83 -99 118 -99
193 0 68 23 113 76 145 34 22 43 39 47 97 1 21 8 34 20 37 9 2 17 8 17 13 0 9
-55 20 -400 83 -118 21 -314 57 -435 80 -121 23 -283 53 -360 66 -77 14 -205
38 -285 54 -80 16 -190 36 -245 45 -55 9 -269 49 -475 90 -368 72 -626 120
-805 150 -49 8 -134 24 -187 35 -54 11 -132 25 -175 31 -43 6 -143 23 -223 39
-80 16 -190 36 -245 45 -55 8 -192 34 -305 56 -343 68 -501 97 -580 109 -41 6
-165 29 -275 50 -387 75 -461 89 -605 114 -80 14 -183 32 -230 41 -103 18
-203 18 -289 0z m157 -2 c-15 -2 -42 -2 -60 0 -18 2 -6 4 27 4 33 0 48 -2 33
-4z m69 -9 c-3 -3 -12 -4 -19 -1 -8 3 -5 6 6 6 11 1 17 -2 13 -5z m117 -21
c50 -10 80 -19 66 -20 -22 -3 -187 33 -166 36 4 1 49 -7 100 -16z m129 -30
c-7 -2 -19 -2 -25 0 -7 3 -2 5 12 5 14 0 19 -2 13 -5z m-491 -230 c35 -38 45
-60 53 -115 7 -44 5 -50 -23 -78 -45 -45 -81 -44 -130 3 -43 41 -58 92 -42
141 24 74 96 98 142 49z m315 5 c20 -17 45 -67 41 -84 -2 -12 -12 -8 -43 15
-48 37 -59 38 -79 9 -24 -34 -20 -92 8 -125 23 -26 26 -27 58 -15 46 16 65 15
72 -4 8 -22 -1 -34 -40 -50 -51 -22 -77 -17 -111 19 -44 46 -53 69 -53 132 0
52 3 60 35 92 30 30 40 34 67 29 17 -3 37 -11 45 -18z m165 -28 c66 -19 88
-83 48 -138 l-20 -27 22 -52 c12 -29 19 -56 15 -59 -9 -9 -43 22 -68 63 -30
48 -49 43 -49 -12 0 -25 -4 -45 -9 -45 -16 0 -20 13 -25 81 -3 35 -8 94 -12
132 l-7 67 34 0 c19 0 51 -5 71 -10z m153 -85 c41 -140 42 -140 74 -30 13 41
28 75 35 75 30 0 36 -25 36 -152 0 -120 -1 -128 -20 -128 -17 0 -19 8 -22 73
l-3 72 -20 -62 c-26 -83 -42 -82 -85 3 l-19 39 -1 -47 c0 -44 -11 -61 -24 -39
-9 14 -18 249 -11 261 17 28 41 2 60 -65z m323 -2 c47 -5 53 -8 50 -27 -3 -18
-10 -21 -46 -21 -41 0 -42 -1 -42 -32 0 -31 2 -33 35 -33 23 0 37 -6 44 -19
14 -25 5 -31 -46 -31 l-43 0 0 -50 c0 -27 -2 -50 -4 -50 -2 0 -11 3 -20 6 -13
5 -16 27 -16 135 0 145 -8 134 88 122z m390 -124 c2 -13 13 -31 24 -40 l21
-17 -21 -27 c-31 -39 -29 -82 3 -97 31 -14 29 -42 -3 -46 -18 -3 -26 5 -43 44
-18 39 -19 50 -9 69 15 29 6 45 -26 45 -14 0 -38 10 -53 21 -51 38 -55 11 -6
-37 25 -24 50 -44 55 -44 6 0 10 -3 10 -6 0 -13 -35 -64 -47 -68 -21 -9 -66
12 -90 42 l-23 27 0 -27 c0 -18 -5 -28 -15 -28 -8 0 -15 6 -15 13 0 9 -10 12
-30 9 -39 -6 -70 21 -70 59 0 34 14 44 58 41 31 -3 32 -1 22 18 -7 14 -19 20
-33 18 -46 -6 -63 26 -22 42 52 20 90 -14 103 -93 6 -32 14 -45 40 -60 25 -15
36 -17 45 -8 8 8 0 22 -33 56 -38 39 -42 46 -29 61 26 31 51 34 95 8 46 -26
54 -23 54 16 0 47 32 54 38 9z m-791 -1 c-3 -8 -6 -5 -6 6 -1 11 2 17 5 13 3
-3 4 -12 1 -19z m964 -90 c24 -38 21 -103 -5 -143 -23 -34 -41 -31 -81 13 -37
40 -45 84 -24 125 27 50 80 52 110 5z m121 -12 c12 -17 9 -25 -17 -48 -20 -17
-25 -31 -25 -70 0 -26 -4 -48 -10 -48 -19 0 -30 40 -30 108 l0 70 38 -1 c20 0
40 -5 44 -11z m834 -46 c28 -16 63 -43 78 -61 28 -33 76 -121 76 -139 0 -11
-68 -14 -94 -4 -9 3 -16 15 -16 25 0 10 -13 33 -29 51 -25 28 -36 33 -76 33
-39 0 -51 -5 -71 -28 -21 -24 -24 -38 -24 -105 0 -118 45 -192 126 -208 37 -7
64 15 64 52 0 19 5 24 25 24 13 0 34 -4 47 -9 13 -5 31 -12 41 -15 17 -6 17
-8 -4 -38 -71 -104 -119 -128 -205 -103 -223 65 -280 445 -79 536 55 26 82 24
141 -11z m-2467 -70 c8 -4 -15 -6 -51 -3 -84 7 -109 1 -130 -34 -10 -15 -18
-23 -18 -17 0 20 40 62 63 67 28 6 117 -3 136 -13z m2828 -6 c94 -21 143 -56
178 -128 21 -43 26 -65 22 -93 -7 -41 -47 -88 -83 -97 l-25 -7 31 -45 c33 -47
94 -184 86 -192 -3 -2 -25 0 -50 4 l-45 9 -54 105 c-47 92 -58 106 -88 116
l-34 12 -3 -100 c-3 -98 -3 -100 -25 -94 -12 3 -34 6 -49 6 l-26 0 1 266 2
266 45 -5 c25 -3 78 -13 117 -23z m-2628 -55 c6 -18 11 -53 11 -79 l0 -47 -60
-16 c-68 -19 -119 -59 -156 -123 -52 -89 -40 -263 25 -358 47 -68 137 -153
169 -161 33 -7 42 -31 42 -112 0 -41 -2 -44 -22 -38 -149 45 -309 257 -343
455 -20 111 -19 136 5 226 31 113 43 137 100 193 61 60 118 89 177 90 37 1 42
-2 52 -30z m46 1 c-16 -6 -12 -8 18 -8 33 1 45 -6 103 -63 35 -35 74 -78 85
-96 11 -17 29 -33 41 -35 56 -8 146 -278 135 -403 -3 -33 -10 -61 -16 -63 -6
-2 -11 -16 -11 -31 0 -74 -98 -194 -197 -242 -39 -19 -127 -30 -137 -17 -2 1
-6 36 -9 76 l-6 72 50 0 c65 0 107 18 147 64 88 100 96 216 30 399 -17 47 -31
66 -77 103 -31 24 -84 59 -118 76 l-63 31 0 73 c0 70 1 74 23 73 21 0 21 -1 2
-9z m2905 -6 l50 -7 23 -76 c13 -42 39 -129 57 -193 19 -65 36 -116 38 -113 2
2 12 41 23 87 23 100 65 257 71 263 2 2 31 -3 65 -12 l62 -17 1 -210 c0 -116
3 -235 7 -265 l6 -54 -42 6 c-24 3 -46 8 -49 12 -4 4 -9 88 -12 188 l-5 182
-49 -173 -49 -173 -31 3 c-28 3 -33 9 -54 68 -13 36 -37 116 -52 179 -16 62
-32 116 -35 119 -3 3 -5 -75 -5 -172 l0 -178 -32 7 c-60 13 -59 9 -61 289 -2
200 1 255 10 251 7 -2 35 -7 63 -11z m-2445 -45 c35 -11 67 -24 71 -30 4 -8
-1 -9 -17 -3 -13 4 -69 21 -124 36 -83 23 -91 27 -47 23 29 -3 81 -15 117 -26z
m355 -74 c52 -16 214 -49 494 -100 110 -20 211 -41 224 -46 45 -17 15 -20 -44
-5 -33 8 -149 31 -259 51 -110 19 -252 48 -315 62 -63 15 -138 31 -167 37 -28
6 -55 15 -60 20 -10 11 68 -1 127 -19z m2908 -26 l122 -22 0 -50 0 -50 -37 7
c-21 3 -72 9 -113 12 l-75 7 -3 -55 c-3 -63 -12 -58 121 -79 l77 -12 0 -45 0
-45 -65 7 c-36 4 -79 9 -94 12 l-29 6 -4 -100 c-1 -55 -5 -102 -8 -105 -3 -2
-22 -2 -43 1 -29 3 -41 10 -48 29 -5 13 -9 136 -9 272 l0 249 43 -9 c23 -4 97
-18 165 -30z m-3698 -185 c22 -20 40 -41 40 -48 0 -6 -16 6 -35 27 -37 40 -55
45 -79 21 -9 -8 -16 -12 -16 -8 0 9 33 43 42 43 5 1 26 -15 48 -35z m4023 2
c42 -17 84 -67 96 -114 15 -56 17 -307 3 -306 -7 1 -28 2 -47 3 -32 1 -35 4
-35 31 0 37 -4 37 -43 4 -26 -22 -38 -25 -71 -21 -80 11 -145 117 -115 189 17
42 56 58 144 58 68 0 75 2 75 20 0 28 -35 60 -67 60 -15 0 -37 -9 -49 -21 -18
-17 -28 -19 -51 -12 -41 14 -45 63 -6 90 15 11 35 23 43 26 28 10 91 7 123 -7z
m639 -30 c4 -6 8 -30 8 -54 0 -41 1 -43 28 -40 26 3 27 1 30 -51 l3 -54 -36 6
-36 6 3 -112 3 -112 31 -3 c34 -3 44 -20 44 -76 l0 -29 -52 6 c-96 11 -128 72
-128 240 0 88 -2 97 -19 97 -19 0 -31 34 -31 87 0 22 3 24 29 18 l28 -6 -5 51
-5 50 49 -7 c27 -3 52 -11 56 -17z m-276 -32 c66 -31 124 -144 75 -144 -37 0
-68 19 -75 44 -11 43 -108 52 -114 10 -3 -23 34 -50 102 -75 55 -20 104 -65
117 -108 9 -32 8 -44 -6 -75 -22 -46 -60 -66 -122 -66 -66 1 -126 30 -162 81
-39 53 -39 66 0 71 25 4 39 -1 64 -23 58 -51 111 -62 124 -26 13 34 -2 51 -64
71 -37 11 -71 32 -101 60 -38 37 -44 48 -44 84 0 29 7 49 26 71 43 51 106 60
180 25z m-3486 -4 c12 -7 16 -46 21 -202 3 -106 3 -201 1 -211 -3 -13 -12 -17
-31 -15 -25 3 -26 6 -34 88 -4 47 -5 120 -2 162 l6 77 -49 -6 c-48 -5 -51 -4
-66 24 -18 36 -13 43 32 43 24 0 42 8 58 25 25 27 40 30 64 15z m233 -54 c41
-17 72 -52 86 -97 13 -41 4 -74 -27 -103 l-21 -18 34 -33 c27 -25 35 -40 35
-66 -1 -97 -109 -151 -191 -96 -69 47 -106 137 -55 137 18 0 31 -10 47 -40 23
-41 48 -54 90 -48 19 2 25 10 27 36 3 33 -18 61 -79 104 -20 13 -22 19 -11 30
7 7 27 18 45 24 60 20 41 104 -25 104 -21 0 -31 -6 -38 -26 -8 -20 -14 -24
-33 -19 -12 4 -28 13 -36 21 -20 19 -1 58 41 84 39 23 67 25 111 6z m3812 -47
c75 -20 140 -111 152 -211 l6 -51 -64 7 c-35 4 -92 13 -127 21 l-64 13 7 -27
c7 -32 58 -81 85 -81 11 0 28 5 38 11 21 13 112 4 112 -11 0 -23 -62 -78 -94
-84 -50 -9 -126 11 -160 42 -89 84 -103 264 -26 341 26 26 44 34 85 40 6 0 28
-4 50 -10z m-3505 -28 c64 -47 90 -116 90 -244 0 -133 -31 -177 -125 -177 -43
0 -55 4 -77 28 -46 51 -71 93 -60 104 12 12 43 -3 90 -44 26 -22 37 -26 52
-18 24 13 50 50 50 71 0 15 -6 16 -41 8 -38 -9 -46 -7 -82 18 -52 36 -81 99
-74 161 11 103 100 150 177 93z m-1480 -1 c0 -5 -2 -10 -4 -10 -3 0 -8 5 -11
10 -3 6 -1 10 4 10 6 0 11 -4 11 -10z m5241 -30 c26 0 29 -4 29 -30 0 -16 2
-30 5 -30 2 0 21 11 41 25 55 38 68 31 72 -38 l3 -57 -40 0 c-31 0 -44 -6 -61
-27 -19 -25 -20 -34 -14 -136 l7 -110 -44 7 c-24 4 -47 10 -51 14 -5 5 -12
312 -8 386 0 4 7 5 16 2 9 -3 29 -6 45 -6z m-2911 -115 c91 -19 282 -57 425
-85 628 -122 692 -136 682 -147 -3 -2 -63 7 -134 21 -70 14 -207 39 -303 56
-96 17 -188 34 -205 37 -27 5 -28 4 -16 -11 9 -11 27 -16 50 -15 20 2 46 -3
58 -9 12 -7 33 -12 47 -12 14 0 27 -6 27 -12 1 -7 3 -38 5 -68 5 -88 6 -92 18
-80 22 22 106 7 147 -27 9 -8 65 -20 125 -26 60 -7 119 -19 131 -25 29 -16 41
-59 21 -78 -15 -15 -48 -10 -48 7 0 5 -11 9 -25 9 -14 0 -25 4 -25 9 0 4 -12
6 -27 3 -21 -4 -25 -2 -20 12 4 9 2 16 -3 16 -6 0 -10 -4 -10 -10 0 -11 -59
-14 -84 -4 -9 3 -16 15 -16 25 0 10 -4 19 -10 19 -5 0 -10 -9 -10 -20 0 -31
-50 -28 -51 3 -1 16 -2 18 -6 5 -9 -34 -83 -1 -83 36 0 13 -6 23 -15 23 -8 0
-12 -4 -9 -9 3 -4 2 -14 -3 -20 -4 -7 -8 -39 -8 -70 0 -32 -6 -63 -13 -70 -14
-14 -157 5 -487 67 -126 24 -252 47 -280 50 -59 9 -123 38 -148 69 -82 96 -90
255 -16 326 54 50 101 51 319 5z m-1348 -273 c9 -32 21 -41 33 -22 11 17 35
11 35 -9 0 -10 7 -21 15 -25 13 -4 14 -2 5 14 -9 17 -8 20 9 20 11 0 22 -9 26
-20 7 -23 -12 -63 -26 -55 -5 4 -9 -5 -9 -19 0 -14 -4 -26 -10 -26 -5 0 -10
15 -10 34 0 18 -7 39 -15 46 -13 11 -15 8 -15 -14 0 -26 -2 -27 -42 -24 l-43
3 -2 45 c-2 25 -1 55 2 68 8 34 37 24 47 -16z m3128 -66 c157 -30 382 -74 500
-96 301 -58 612 -120 629 -125 8 -3 12 -8 9 -11 -6 -5 -243 37 -558 100 -96
19 -339 67 -540 106 l-365 72 -44 -49 c-35 -38 -41 -42 -28 -18 27 53 65 88
90 82 12 -3 150 -31 307 -61z m-2885 4 c17 -14 19 -48 5 -70 -12 -19 -21 -9
-29 31 -8 40 -31 51 -31 15 0 -13 5 -28 10 -31 6 -4 8 -11 4 -16 -13 -21 -36
14 -30 45 4 19 3 27 -3 21 -5 -6 -11 -23 -13 -40 l-4 -30 -13 26 c-10 21 -11
31 -1 49 10 19 18 22 51 17 22 -3 46 -11 54 -17z m113 -10 c13 0 12 -3 -3 -20
-10 -11 -15 -28 -12 -40 3 -14 1 -20 -6 -17 -7 2 -13 18 -15 35 -4 40 -22 42
-22 3 0 -43 -17 -47 -24 -6 -9 46 0 58 36 51 17 -3 37 -6 46 -6z m68 -8 c6 -4
13 -15 17 -24 5 -15 2 -16 -23 -11 -19 3 -30 1 -30 -6 0 -6 14 -11 30 -11 17
0 30 -5 30 -11 0 -8 -13 -9 -41 -5 -26 4 -38 3 -34 -4 3 -5 19 -10 35 -10 16
0 32 -4 35 -10 10 -17 -47 -11 -67 7 -24 21 -23 42 4 70 23 25 28 26 44 15z
m4586 -51 c112 -22 354 -67 538 -100 185 -34 360 -67 390 -75 30 -8 91 -19
135 -26 44 -6 134 -23 200 -36 66 -14 172 -34 235 -44 112 -20 185 -38 178
-46 -2 -2 -114 19 -248 46 -135 27 -290 56 -345 65 -117 18 -89 13 -545 100
-442 83 -691 125 -747 125 -33 0 -50 -7 -79 -32 -20 -17 -41 -43 -47 -57 -6
-15 -13 -129 -17 -256 l-6 -230 -2 233 c-2 250 2 276 49 322 25 23 75 49 96
50 7 0 104 -18 215 -39z m-6209 -25 c62 -14 166 -36 232 -49 66 -13 235 -47
375 -75 140 -28 305 -60 365 -71 247 -46 812 -162 834 -171 46 -20 12 -21 -70
-1 -46 11 -129 27 -184 36 -55 9 -134 25 -175 35 -41 10 -192 41 -335 69 -530
102 -583 112 -740 145 -88 19 -203 43 -255 54 -52 11 -123 24 -157 27 -57 7
-63 6 -87 -18 -14 -15 -26 -22 -26 -16 0 20 53 59 82 59 16 0 79 -11 141 -24z
m4092 -48 c22 -10 26 -17 23 -47 -3 -30 -7 -36 -29 -39 -31 -4 -44 11 -52 61
-5 32 -3 37 13 37 11 0 31 -5 45 -12z m155 -36 c3 -4 19 -8 35 -9 68 -3 151
-15 160 -24 5 -5 23 -9 40 -9 17 0 41 -7 53 -16 19 -13 22 -24 20 -57 -3 -48
-27 -60 -54 -29 -9 12 -24 17 -35 15 -11 -3 -19 -1 -19 5 0 6 -9 8 -20 5 -15
-4 -20 0 -20 13 0 15 -2 16 -9 5 -13 -21 -78 4 -84 32 l-4 22 -8 -23 c-5 -16
-12 -21 -24 -16 -9 3 -35 8 -58 9 -63 5 -83 20 -83 62 l0 36 52 -7 c29 -4 55
-10 58 -14z m760 -9 c30 -9 80 -18 110 -21 33 -2 64 -12 79 -23 13 -10 34 -19
47 -19 13 0 24 -4 24 -8 0 -5 14 -19 32 -32 23 -17 43 -23 75 -21 24 0 57 -6
73 -14 26 -14 47 -48 42 -69 -2 -5 10 -6 26 -3 41 8 50 -2 57 -69 6 -48 3 -69
-10 -97 -36 -77 -65 -83 -235 -46 -52 11 -158 31 -235 44 -170 29 -191 35
-174 46 11 6 10 9 -4 15 -10 4 -17 17 -17 33 0 21 -5 27 -22 28 -32 3 -108 85
-108 117 0 32 36 125 58 149 14 16 26 18 72 12 30 -4 80 -14 110 -22z m-2506
-123 c67 -16 157 -36 201 -44 44 -7 159 -29 255 -49 96 -19 265 -52 375 -72
203 -37 487 -91 760 -145 83 -17 236 -43 342 -60 106 -16 248 -41 315 -54 68
-13 143 -27 168 -31 25 -3 126 -22 225 -41 99 -20 204 -40 233 -46 64 -12 100
-41 145 -116 63 -105 75 -162 81 -397 6 -212 -3 -488 -17 -502 -12 -11 -25 16
-38 77 -21 104 -208 420 -310 526 -38 40 -69 70 -69 68 0 -3 18 -27 40 -55 65
-83 195 -361 234 -501 45 -162 20 -436 -55 -593 -50 -105 -113 -189 -196 -259
-137 -115 -274 -161 -462 -154 -103 3 -107 2 -82 -13 96 -58 391 -107 484 -80
23 7 50 17 59 22 10 5 25 9 33 9 20 0 81 39 138 89 26 22 53 44 61 48 19 11
82 103 107 154 11 24 27 55 35 69 8 15 14 55 14 105 0 61 3 76 11 62 7 -12 9
-127 7 -335 -3 -278 -5 -321 -20 -347 -42 -73 -97 -115 -151 -115 -43 0 -182
28 -427 86 -80 18 -197 45 -260 58 -63 14 -248 55 -410 91 -394 89 -429 97
-615 139 -88 21 -243 55 -345 76 -102 22 -275 59 -385 84 -110 24 -297 65
-415 91 -141 30 -229 55 -256 70 -52 30 -101 86 -128 144 -21 46 -21 53 -21
916 l0 870 30 60 c27 54 37 63 93 93 35 17 71 32 80 32 8 0 70 -13 136 -30z
m3880 -31 c43 -34 96 -139 96 -191 0 -52 -15 -101 -42 -140 -16 -23 -27 -28
-59 -28 -58 0 -100 21 -146 74 -85 96 -76 228 20 286 42 26 97 26 131 -1z
m-6332 -44 c3 -27 7 -117 7 -198 l1 -148 -22 6 c-13 4 -27 11 -32 16 -5 5 -12
71 -14 147 l-4 138 -34 -4 c-26 -3 -35 0 -41 14 -10 27 63 85 102 82 28 -3 30
-6 37 -53z m7016 18 c24 -20 40 -73 23 -73 -6 0 -25 9 -43 20 -58 35 -78 24
-78 -44 0 -18 6 -41 14 -51 12 -17 18 -18 65 -7 28 6 58 9 67 5 15 -6 16 0 11
46 -7 56 0 111 14 111 11 0 18 -47 22 -158 3 -80 1 -92 -12 -90 -10 2 -17 16
-19 36 l-3 32 -37 -25 c-51 -35 -75 -32 -127 18 -35 34 -45 51 -45 76 0 91 89
153 148 104z m-6791 -25 c34 -27 73 -92 73 -120 0 -18 -9 -38 -25 -52 -22 -20
-23 -25 -11 -36 8 -6 22 -31 31 -55 15 -39 15 -45 1 -73 -21 -40 -44 -52 -100
-52 -55 0 -100 34 -127 98 -21 49 -18 62 14 62 16 0 29 -13 47 -48 21 -40 29
-47 55 -47 21 0 33 7 44 26 13 24 13 29 -3 54 -10 15 -33 33 -51 41 -58 24
-53 44 15 61 43 11 50 36 19 69 -27 29 -64 31 -79 4 -23 -43 -77 -10 -59 37
18 48 113 67 156 31z m248 -42 c19 -8 46 -32 62 -57 23 -36 28 -54 30 -113 0
-39 4 -94 8 -123 7 -49 6 -54 -23 -83 -35 -35 -75 -39 -129 -13 -66 31 -116
141 -79 175 12 11 12 17 -1 42 -21 41 -13 120 17 151 19 21 32 27 73 34 4 0
23 -5 42 -13z m6775 -44 c11 -13 20 -35 20 -47 0 -21 -4 -22 -51 -21 -58 1
-72 -9 -34 -26 19 -9 28 -9 37 0 7 7 20 12 31 12 15 0 18 -6 15 -32 -3 -31 -5
-33 -41 -32 -22 1 -51 10 -65 22 -23 17 -27 27 -26 67 0 39 5 52 27 71 31 27
59 22 87 -14z m236 2 c-5 -18 -2 -32 9 -44 11 -12 13 -20 6 -25 -25 -15 -6
-99 25 -118 15 -8 19 -37 7 -37 -5 0 -23 9 -41 20 -40 24 -55 60 -42 96 13 33
13 34 -5 34 -19 0 -19 5 1 57 19 48 51 62 40 17z m-101 -25 c33 -30 35 -34 35
-96 0 -56 -2 -64 -17 -61 -14 2 -19 15 -21 61 -3 53 -5 57 -27 57 -24 0 -25
-3 -25 -55 0 -30 -4 -55 -9 -55 -16 0 -20 15 -23 82 -5 100 24 122 87 67z
m-6081 13 c7 -12 -6 -27 -26 -30 -20 -3 -25 24 -5 31 19 8 25 8 31 -1z m50 -7
c-4 -8 -1 -15 5 -15 6 0 11 6 11 13 0 6 6 3 12 -8 6 -11 16 -23 21 -26 5 -4 4
-10 -3 -14 -8 -5 -16 -1 -22 9 -12 22 -31 10 -23 -15 5 -16 2 -19 -22 -18 -18
1 -22 3 -10 6 14 4 17 11 13 28 -7 26 1 55 15 55 4 0 6 -7 3 -15z m80 -30 c13
-20 14 -25 2 -25 -7 0 -16 11 -18 25 -3 14 -4 25 -3 25 2 0 10 -11 19 -25z
m-307 -55 c48 -11 99 -22 112 -26 20 -4 22 -9 17 -35 -3 -16 -28 -66 -55 -112
-27 -45 -60 -112 -73 -149 -24 -71 -32 -77 -63 -54 -17 12 -18 18 -6 69 7 31
34 92 61 137 55 91 58 83 -45 110 -60 15 -74 31 -61 66 7 18 8 18 113 -6z
m288 -60 c15 -6 32 -24 41 -45 19 -46 8 -90 -42 -161 -23 -35 -39 -73 -47
-113 -11 -56 -14 -61 -37 -61 -52 0 -57 12 -38 85 10 36 30 86 45 111 16 25
34 55 42 68 25 39 9 56 -53 56 -30 0 -57 4 -60 9 -3 5 -1 23 6 41 11 32 11 32
64 26 29 -3 65 -10 79 -16z m5493 3 c6 -10 13 -37 17 -60 4 -24 10 -45 15 -48
4 -2 19 22 33 55 35 80 57 81 56 3 -1 -122 -22 -177 -32 -83 l-3 35 -17 -37
c-10 -21 -24 -38 -31 -38 -8 0 -26 24 -40 53 l-24 52 -1 -47 c-1 -27 -5 -48
-10 -48 -16 0 -19 23 -13 103 4 66 7 77 23 77 10 0 22 -8 27 -17z m-1101 -445
c-1 -79 -3 -15 -3 142 0 157 2 221 3 143 2 -79 2 -207 0 -285z m-4132 386 c27
-18 55 -81 55 -125 0 -46 -25 -85 -85 -130 -31 -23 -54 -47 -52 -53 2 -6 22
-16 44 -22 61 -18 83 -33 83 -56 0 -16 -5 -19 -22 -15 -13 3 -59 13 -103 22
-44 9 -84 21 -89 26 -18 16 13 86 50 116 114 90 137 131 97 175 -20 22 -42 23
-72 2 -20 -15 -23 -22 -17 -60 6 -49 -1 -54 -31 -21 -48 53 -51 90 -10 135 16
17 31 22 74 22 32 0 63 -6 78 -16z m4618 -31 c14 -16 38 -43 52 -60 19 -23 43
-38 79 -48 29 -9 73 -28 97 -44 39 -25 48 -37 79 -117 19 -51 36 -114 38 -147
4 -57 4 -58 -19 -53 -102 23 -311 65 -483 96 -165 29 -160 25 -153 119 6 87
31 150 69 169 12 6 54 18 93 27 74 17 105 37 105 67 0 25 12 23 43 -9z m847 8
c5 -11 10 -45 10 -75 0 -55 0 -56 -30 -56 -32 0 -80 19 -80 31 0 4 4 19 10 33
7 20 16 26 40 26 16 0 30 4 30 9 0 17 -19 22 -40 11 -17 -9 -20 -8 -20 9 0 34
63 43 80 12z m124 -43 c5 -23 13 -128 9 -128 -1 0 -9 7 -17 16 -10 9 -16 33
-16 60 0 37 -3 44 -20 44 -22 0 -36 -36 -25 -69 5 -15 2 -21 -9 -21 -13 0 -16
12 -16 53 0 30 3 57 7 60 3 4 23 7 44 7 32 0 39 -4 43 -22z m109 -20 c11 -15
23 -50 27 -78 l7 -51 -46 7 c-25 4 -52 11 -58 16 -17 14 -16 61 2 104 17 42
38 42 68 2z m111 -20 l16 -22 0 23 c0 20 2 22 16 10 24 -19 16 -186 -10 -204
-21 -16 -49 -9 -72 16 -21 23 -10 38 16 21 41 -25 41 -5 1 41 -39 44 -48 80
-27 112 20 31 40 32 60 3z m-7553 -22 c10 -20 15 -23 29 -14 9 6 29 8 43 4 24
-6 27 -12 27 -46 0 -21 -4 -42 -10 -45 -5 -3 -10 -1 -10 4 0 6 -11 11 -25 11
-14 0 -25 6 -26 13 0 6 -4 3 -9 -8 l-8 -20 -7 20 c-26 67 -35 85 -46 85 -6 0
-8 -7 -5 -16 3 -9 6 -21 6 -27 0 -7 4 -6 10 3 7 11 10 7 10 -17 0 -26 -3 -30
-20 -26 -21 6 -37 60 -26 88 9 25 55 18 67 -9z m7693 2 c14 -6 28 -20 32 -30
5 -18 6 -18 19 -2 11 16 18 17 66 6 29 -7 63 -22 75 -33 21 -20 24 -20 46 -5
56 39 88 4 88 -96 0 -60 -2 -68 -19 -68 -29 0 -82 42 -102 80 -15 27 -19 30
-19 14 0 -23 -29 -37 -49 -24 -14 8 2 60 19 60 5 0 10 5 10 10 0 6 -16 10 -35
10 l-35 0 6 -39 c6 -39 6 -40 -25 -39 -19 1 -31 6 -31 15 0 7 5 13 10 13 6 0
10 13 10 29 0 17 -4 33 -10 36 -6 4 -10 -7 -10 -27 0 -40 -29 -62 -70 -53 -47
10 -63 36 -55 89 9 60 32 76 79 54z m-7502 -47 c10 -9 -5 -72 -17 -69 -5 2 -9
15 -7 30 3 28 -12 46 -23 28 -4 -6 -1 -17 5 -25 10 -12 9 -16 -5 -21 -24 -10
-36 8 -29 45 6 30 9 32 38 25 17 -3 34 -9 38 -13z m62 -58 c-15 -23 -42 -39
-51 -29 -4 4 -1 13 9 20 12 9 14 16 7 29 -17 29 1 41 25 18 16 -16 18 -25 10
-38z m150 30 c-11 -48 -28 -83 -41 -83 -7 0 -13 4 -13 9 0 5 -8 11 -19 14 -14
3 -17 11 -14 31 7 35 16 39 40 16 24 -21 33 -17 33 17 0 13 5 23 10 23 6 0 8
-11 4 -27z m-104 -22 c0 -36 -14 -61 -26 -48 -8 7 8 87 17 87 5 0 9 -18 9 -39z
m7822 -14 c4 -6 7 -38 7 -70 0 -32 5 -65 11 -72 10 -12 9 -15 -4 -15 -20 0
-26 15 -35 82 -3 28 -11 53 -17 55 -13 4 -24 -28 -24 -69 0 -38 -16 -35 -24 3
-11 57 -7 97 11 108 19 10 63 -3 75 -22z m-7648 3 c22 -8 25 -13 19 -41 -4
-23 -3 -30 5 -25 7 4 12 16 12 27 0 12 7 19 20 19 17 0 19 -3 10 -19 -16 -32
-12 -36 10 -8 14 17 26 23 40 20 24 -6 48 -50 43 -75 -5 -20 -33 -24 -50 -7
-5 5 -24 11 -42 11 -17 1 -31 5 -31 10 0 5 -4 6 -10 3 -7 -4 -81 26 -98 40 -1
1 3 14 9 29 13 28 24 31 63 16z m7696 -15 c0 -14 -4 -25 -10 -25 -5 0 -10 11
-10 25 0 14 5 25 10 25 6 0 10 -11 10 -25z m-1055 -106 c66 -12 202 -39 302
-60 100 -21 240 -47 310 -59 184 -29 183 -29 183 -51 0 -15 -7 -19 -32 -19
-42 0 -256 34 -373 60 -136 29 -443 88 -503 96 -45 6 -52 10 -52 29 0 27 9 37
29 31 9 -3 70 -14 136 -27z m-5902 -29 c38 -14 45 -24 27 -35 -6 -4 -7 -11 -4
-17 5 -7 11 -5 20 6 9 13 20 16 48 10 46 -8 50 -16 35 -59 -13 -36 -49 -50
-49 -19 0 8 4 13 9 9 5 -3 13 4 16 16 5 14 2 25 -6 30 -21 13 -29 11 -29 -7 0
-8 5 -12 10 -9 15 9 12 -4 -4 -21 -20 -19 -34 -18 -41 6 -7 21 -25 28 -25 9 0
-6 -9 -8 -20 -4 -11 4 -20 2 -20 -4 0 -19 -22 -12 -27 9 -3 11 -9 20 -14 20
-5 0 -9 18 -9 39 0 35 3 39 23 37 12 -1 39 -9 60 -16z m262 -81 c33 -6 71 -11
85 -11 24 1 61 -12 87 -31 20 -15 4 -28 -19 -16 -16 9 -19 8 -16 -3 2 -7 14
-17 26 -23 25 -11 30 -30 6 -21 -9 3 -33 9 -55 12 -34 6 -39 10 -40 33 0 26 0
26 -11 4 -15 -30 -28 -29 -28 2 0 14 -5 25 -10 25 -6 0 -8 -11 -4 -25 5 -19 2
-25 -10 -25 -11 0 -16 9 -17 28 0 27 0 27 -11 4 -7 -13 -17 -21 -26 -17 -7 3
-25 5 -38 5 -30 0 -40 23 -25 56 7 17 17 24 29 20 9 -3 44 -10 77 -17z m5605
-34 c107 -19 362 -66 595 -110 99 -18 197 -36 218 -40 33 -5 37 -9 37 -36 0
-34 12 -34 -210 7 -69 13 -190 35 -270 49 -207 35 -462 86 -482 97 -10 5 -18
18 -18 28 0 24 15 25 130 5z m325 -200 c176 -35 364 -71 418 -80 88 -15 99
-20 108 -42 13 -36 11 -58 -9 -83 -18 -22 -20 -22 -43 -7 -14 9 -63 24 -109
32 -47 9 -107 23 -135 30 -27 8 -111 23 -185 35 -74 12 -164 28 -200 37 -36 8
-114 25 -173 38 -60 12 -113 27 -119 33 -6 6 -8 26 -4 47 l7 37 62 -7 c34 -4
206 -35 382 -70z m-1008 -186 c43 -6 82 -15 88 -20 5 -6 3 -9 -8 -9 -22 0 -22
-33 -2 -90 8 -24 18 -67 21 -96 6 -47 4 -55 -19 -78 -30 -30 -47 -31 -126 -12
-31 8 -72 14 -91 14 -30 -1 -26 -4 35 -24 39 -13 82 -23 98 -23 15 -1 54 -9
87 -18 l60 -16 30 28 c33 32 38 56 15 75 -8 7 -15 19 -15 27 0 11 17 13 92 8
131 -8 177 -36 229 -138 20 -38 21 -52 15 -331 -3 -161 -10 -303 -15 -317 -9
-23 -10 -22 -11 11 -2 35 -2 34 -15 -13 -15 -56 -28 -73 -68 -93 -34 -18 -58
-15 -327 42 -491 104 -495 105 -548 169 -48 59 -52 88 -52 402 0 285 0 291 23
324 12 18 38 44 57 57 30 20 46 23 110 22 101 -3 100 -3 100 23 1 80 63 100
237 76z m1191 -252 c50 -13 96 -27 101 -33 13 -14 21 -72 11 -76 -6 -2 -6 -18
1 -43 15 -54 6 -135 -17 -152 -17 -13 -66 -11 -139 4 -16 4 -35 6 -42 5 -6 -1
-27 7 -47 19 -19 11 -41 17 -47 13 -7 -4 -10 -3 -7 2 3 5 0 15 -8 22 -12 11
-14 9 -14 -9 0 -12 7 -31 17 -41 19 -21 119 -53 218 -68 39 -6 84 -16 102 -22
30 -11 33 -9 76 34 29 31 41 50 35 56 -7 7 -1 16 16 27 21 14 40 17 87 12 71
-6 100 -28 145 -110 l29 -52 -3 -310 c-4 -343 -5 -347 -69 -385 -57 -34 -86
-34 -248 0 -82 17 -222 44 -310 61 -88 17 -184 38 -212 45 -62 17 -115 60
-146 118 -21 39 -22 54 -25 367 l-3 326 27 32 c44 53 77 64 166 58 71 -6 78
-5 78 12 0 37 23 82 49 96 36 20 71 18 179 -8z m-5163 -837 c33 -7 105 -22
160 -36 55 -13 195 -44 310 -69 116 -25 287 -63 380 -85 94 -21 215 -48 270
-59 193 -40 372 -88 396 -106 20 -14 20 -16 4 -11 -27 10 -403 99 -550 131
-740 161 -1047 225 -1072 225 -13 0 -40 -15 -60 -33 -28 -26 -39 -46 -49 -93
-11 -53 -12 -55 -13 -21 -1 41 20 101 47 131 22 25 72 46 97 41 11 -2 47 -9
80 -15z m-2465 -80 c14 -4 -8 -5 -50 -2 -41 2 -77 6 -79 8 -8 7 104 2 129 -6z
m127 -36 c-3 -3 -12 -4 -19 -1 -8 3 -5 6 6 6 11 1 17 -2 13 -5z m211 -49 c105
-24 275 -65 379 -90 103 -25 242 -59 308 -75 66 -16 188 -43 271 -60 220 -45
594 -136 605 -147 6 -6 -32 0 -83 12 -186 45 -487 115 -668 156 -210 47 -297
68 -710 168 -254 62 -323 81 -298 81 3 0 92 -20 196 -45z m5990 -19 c86 -19
184 -40 217 -46 33 -6 103 -22 155 -35 52 -14 147 -33 210 -44 64 -11 226 -47
360 -80 135 -33 281 -66 325 -75 143 -27 353 -75 379 -87 24 -11 31 -22 27
-43 -1 -5 4 -16 12 -25 38 -43 69 -115 83 -192 12 -68 14 -132 9 -334 -4 -137
-11 -266 -16 -286 -10 -42 -71 -107 -108 -116 -14 -3 -65 3 -115 15 -100 23
-593 131 -751 164 -114 23 -263 56 -445 98 -69 15 -228 49 -354 75 -126 25
-243 53 -260 62 -44 22 -94 71 -119 118 -21 39 -22 50 -22 396 l0 355 26 40
c56 85 141 93 387 40z m-6337 -15 c16 -16 29 -39 29 -50 0 -19 -3 -18 -44 9
-24 17 -48 30 -54 30 -25 0 -30 -75 -6 -108 16 -23 39 -27 92 -16 l30 6 -5 75
c-5 62 -4 75 8 71 15 -5 26 -73 28 -170 1 -45 -2 -58 -14 -58 -11 0 -15 11
-15 38 0 20 -4 32 -8 26 -4 -6 -21 -19 -38 -29 -42 -24 -75 -14 -108 33 -34
50 -35 100 0 141 33 40 66 40 105 2z m134 -72 c14 -26 20 -29 45 -24 20 4 37
1 52 -9 12 -9 38 -16 58 -16 37 0 100 -45 100 -72 0 -7 6 -2 13 12 26 53 97
26 97 -37 0 -28 -8 -29 -36 -2 -14 13 -24 17 -29 10 -3 -6 -2 -11 4 -11 16 0
51 -42 51 -62 0 -29 -26 -32 -65 -8 -22 14 -35 29 -35 43 0 14 -13 31 -36 46
-40 28 -54 20 -54 -31 0 -16 -5 -28 -11 -28 -7 0 -9 10 -7 25 3 14 1 28 -3 31
-5 3 -9 -7 -9 -22 0 -26 -1 -26 -42 -20 -24 4 -55 15 -70 26 -18 13 -28 16
-30 8 -3 -7 -12 -9 -23 -5 -16 7 -17 16 -12 82 8 102 16 115 42 64z m2112 -71
c-3 -8 -6 -5 -6 6 -1 11 2 17 5 13 3 -3 4 -12 1 -19z m-1460 -107 c10 -28 21
-51 25 -51 3 0 14 24 23 53 23 68 30 74 50 43 17 -26 17 -53 -1 -115 -9 -32
13 -19 26 15 7 18 17 24 40 24 17 0 39 -4 49 -10 27 -14 44 -64 37 -105 -6
-30 -11 -35 -34 -35 -15 0 -45 12 -66 26 -29 20 -38 23 -33 10 8 -20 3 -20
-28 0 -19 12 -23 22 -19 40 8 30 -3 30 -33 2 -27 -25 -38 -17 -50 35 -9 42
-23 32 -23 -18 0 -33 -4 -45 -15 -45 -12 0 -15 18 -15 104 0 129 6 149 30 108
10 -17 27 -53 37 -81z m-182 48 c45 -40 45 -54 0 -29 -54 31 -54 24 0 -24 42
-37 48 -47 39 -62 -21 -36 -38 -38 -82 -10 -55 34 -60 69 -6 37 20 -12 39 -19
43 -16 8 9 -41 45 -61 45 -14 0 -18 8 -18 35 0 22 6 38 18 44 25 15 28 14 67
-20z m2565 -12 l25 -12 5 -210 c8 -306 -1 -1288 -12 -1302 -16 -20 -119 21
-136 55 -5 9 -12 287 -16 617 -4 330 -10 603 -14 607 -7 7 -376 99 -475 118
-32 7 -56 14 -54 17 7 7 86 -10 325 -68 112 -27 205 -49 208 -49 2 0 4 52 4
115 0 98 2 116 18 125 19 12 84 5 122 -13z m1270 -28 c69 -16 226 -53 350 -80
668 -148 732 -165 772 -200 l23 -20 -22 11 c-32 15 -472 122 -678 164 -93 19
-251 55 -350 79 -247 62 -263 63 -298 35 -16 -13 -32 -39 -37 -58 l-8 -35 -1
32 c-1 41 58 103 98 103 15 0 83 -14 151 -31z m-2185 -609 c0 -347 -3 -630 -7
-630 -5 0 -8 281 -8 623 0 522 3 637 14 637 1 0 1 -284 1 -630z m-1885 595 c0
-14 -4 -25 -10 -25 -5 0 -10 11 -10 25 0 14 5 25 10 25 6 0 10 -11 10 -25z
m2109 -71 c2 -2 2 -6 -1 -9 -7 -8 -138 34 -138 44 0 8 128 -25 139 -35z
m-1354 4 c24 -18 27 -26 22 -61 -3 -22 -1 -50 4 -63 9 -25 3 -30 -20 -15 -9 6
-14 25 -13 54 1 29 -3 49 -13 57 -23 19 -35 2 -35 -51 0 -27 -4 -49 -9 -49 -9
0 -20 115 -13 138 6 19 46 14 77 -10z m2571 1 c17 -5 35 -20 40 -32 5 -12 9
-348 9 -762 l0 -740 -37 -3 c-24 -2 -53 5 -87 23 l-51 25 0 598 c0 328 -3 663
-6 744 l-6 148 23 9 c25 10 60 7 115 -10z m-2442 -28 c22 -24 27 -128 7 -140
-21 -13 -91 20 -97 46 -9 36 2 53 36 53 20 0 30 5 30 15 0 21 -27 30 -45 15
-20 -17 -32 -5 -15 15 17 21 63 19 84 -4z m3051 -402 c130 -32 396 -89 409
-89 5 0 7 62 4 148 -4 81 -2 138 2 127 5 -11 9 -79 9 -151 l1 -132 118 -21
c64 -12 130 -24 145 -27 l28 -6 -6 161 c-3 102 -2 161 5 161 6 0 11 -66 12
-167 l3 -167 125 -27 c69 -16 131 -28 138 -28 9 -1 12 36 12 153 0 93 4 157
10 161 12 8 13 3 10 -175 l-2 -145 119 -24 c65 -13 127 -28 138 -33 31 -13
-67 1 -164 24 -45 10 -84 18 -86 16 -1 -2 -5 -83 -9 -180 l-6 -177 52 -15 c29
-9 85 -23 123 -33 39 -10 61 -19 50 -20 -11 -2 -64 7 -118 20 -53 14 -100 21
-102 16 -3 -4 -3 -26 1 -48 4 -28 3 -41 -5 -41 -7 0 -11 21 -11 54 l0 54 -72
12 c-40 6 -101 18 -136 26 -35 8 -65 14 -68 14 -2 0 -5 -42 -5 -92 l-2 -93
-10 97 -9 96 -57 15 c-31 9 -83 21 -116 27 -33 7 -79 18 -103 26 -65 21 -66
21 -58 -41 11 -92 7 -750 -4 -780 -9 -25 -13 -27 -48 -20 -20 3 -56 15 -79 25
-35 15 -43 24 -47 52 -3 18 -7 216 -10 441 l-4 407 41 0 c54 0 131 -24 164
-50 52 -41 57 -32 51 103 -4 77 -3 103 2 72 5 -27 9 -83 9 -123 1 -49 5 -74
14 -77 18 -5 235 -55 241 -55 3 0 6 81 6 180 0 178 0 180 -22 185 -13 3 -81
17 -153 30 -71 13 -184 37 -250 53 -164 40 -386 92 -390 92 -2 0 -6 -12 -8
-27 -2 -16 -4 73 -3 197 l0 225 6 -190 5 -190 110 -26z m-2921 369 c19 -26 22
-148 6 -179 -14 -26 -52 -24 -77 4 -16 17 -21 36 -21 91 -1 38 3 77 9 87 14
27 64 25 83 -3z m127 -48 c9 -19 19 -54 22 -77 l5 -43 -49 0 c-55 0 -63 9 -72
79 -8 61 6 83 46 79 25 -2 35 -10 48 -38z m105 -14 c4 -10 15 -13 39 -9 32 5
34 3 44 -33 6 -22 11 -55 11 -74 0 -20 6 -42 13 -49 10 -10 8 -12 -7 -9 -15 2
-23 18 -34 66 -11 49 -17 62 -30 60 -12 -2 -18 -17 -22 -53 -4 -35 -7 -45 -12
-32 -5 10 -8 26 -8 35 0 9 -9 31 -21 47 l-21 30 5 -58 c2 -32 0 -54 -4 -50 -8
8 -29 101 -29 129 0 19 69 19 76 0z m-1456 -30 c52 -14 181 -46 285 -71 267
-64 261 -63 296 -92 18 -15 42 -50 55 -78 24 -50 24 -50 22 -440 -1 -312 -3
-364 -9 -261 -5 71 -11 131 -14 134 -3 3 -5 -56 -5 -130 0 -75 -3 -149 -6
-167 -8 -39 -50 -81 -81 -81 -44 0 -721 172 -752 191 -43 26 -79 86 -92 153
-6 36 -9 191 -7 419 3 396 3 397 64 438 37 26 111 21 244 -15z m1860 -21 c0
-14 5 -25 10 -25 6 0 10 -11 10 -25 0 -16 -6 -25 -15 -25 -22 0 -19 -42 5 -73
23 -29 26 -47 7 -47 -40 0 -72 98 -60 183 4 28 10 37 24 37 14 0 19 -7 19 -25z
m-202 2 c18 -21 25 -106 12 -122 -17 -20 -64 -19 -83 3 -26 29 -32 90 -12 112
20 23 67 26 83 7z m116 -32 c19 -13 23 -24 24 -80 0 -36 -3 -65 -8 -65 -11 0
-30 57 -30 92 0 23 -4 29 -17 26 -14 -2 -19 -15 -21 -51 -5 -76 -22 -54 -22
29 l0 76 26 -6 c14 -4 36 -13 48 -21z m666 0 c46 -24 54 -49 56 -185 2 -69 6
-208 9 -310 14 -410 12 -561 -5 -583 -16 -19 -17 -19 -74 -1 -96 30 -90 -6
-90 565 0 396 3 500 13 513 17 20 53 20 91 1z m800 -10 c36 -7 52 -13 35 -13
-31 0 -142 25 -115 26 8 1 44 -5 80 -13z m103 -22 c-7 -2 -19 -2 -25 0 -7 3
-2 5 12 5 14 0 19 -2 13 -5z m496 -119 c101 -25 173 -51 106 -38 -82 15 -257
62 -236 63 13 1 71 -11 130 -25z m-1579 -26 c10 -6 -1 -7 -30 -2 -25 3 -52 10
-60 16 -10 6 1 7 30 2 25 -3 52 -10 60 -16z m454 2 c26 -11 48 -25 50 -32 7
-20 12 -848 6 -898 -4 -37 -9 -46 -27 -48 -35 -5 -123 38 -134 65 -5 13 -9
206 -9 429 0 345 -2 404 -14 404 -8 0 -17 4 -20 9 -4 5 3 7 14 4 18 -5 20 0
20 34 0 22 3 43 7 46 12 13 61 7 107 -13z m-1650 -30 c130 -37 540 -141 616
-156 41 -8 86 -22 100 -32 32 -23 70 -98 70 -137 -1 -29 -1 -29 -16 -10 -13
18 -15 9 -13 -102 2 -87 -1 -126 -10 -137 -7 -9 -17 -14 -21 -11 -4 3 -15 -6
-24 -19 -15 -23 -14 -26 24 -64 34 -33 40 -46 40 -80 0 -23 -4 -44 -10 -47 -5
-3 -14 -24 -20 -45 -8 -30 -20 -45 -48 -60 l-37 -21 37 6 c58 9 68 -9 68 -118
0 -109 -18 -149 -78 -174 -33 -14 -43 -14 -97 0 -33 8 -150 38 -260 65 -110
28 -266 67 -347 86 -162 39 -187 51 -229 110 -47 64 -36 169 22 209 21 15 21
15 -15 67 -46 67 -48 112 -7 164 l30 37 -30 47 c-33 52 -36 88 -13 155 15 43
15 51 0 94 -24 71 -21 126 10 162 45 53 104 56 258 11z m1243 14 c-3 -3 -12
-4 -19 -1 -8 3 -5 6 6 6 11 1 17 -2 13 -5z m959 -83 c23 -10 45 -24 49 -31 9
-15 8 -418 -1 -743 -5 -174 -10 -230 -20 -234 -7 -2 -39 4 -71 14 -41 13 -61
25 -70 43 -10 19 -13 135 -13 482 0 251 3 463 6 472 8 22 68 20 120 -3z m761
-113 c-2 -24 -4 -7 -4 37 0 44 2 63 4 43 2 -21 2 -57 0 -80z m569 -9 c10 -17
-13 -36 -27 -22 -12 12 -4 33 11 33 5 0 12 -5 16 -11z m-758 -114 l37 -15 -1
-429 c-1 -236 -5 -434 -8 -440 -4 -6 -15 -11 -25 -11 -28 0 -134 39 -143 53
-4 6 -8 200 -8 429 0 387 1 418 18 428 20 12 77 6 130 -15z m285 -94 c51 -11
115 -25 142 -31 l50 -9 -63 4 c-54 4 -131 20 -204 41 -16 5 -18 -7 -21 -113
-3 -113 -3 -112 -3 27 -1 80 1 135 3 123 4 -18 18 -25 96 -42z m2072 -125
c116 -26 264 -58 330 -71 66 -14 172 -38 235 -55 63 -16 221 -52 350 -80 129
-28 262 -57 295 -65 33 -8 103 -24 155 -35 164 -36 265 -62 275 -73 7 -6 0 -7
-20 -2 -166 40 -530 122 -648 146 -81 16 -221 47 -310 68 -89 22 -259 60 -377
86 -118 26 -274 60 -347 76 -148 33 -247 37 -281 13 -29 -20 -59 -79 -77 -152
l-15 -57 6 70 c10 126 69 190 169 182 28 -2 145 -25 260 -51z m-1461 -59 c36
-24 40 -68 41 -467 l0 -355 -43 3 c-24 2 -60 9 -80 16 -33 12 -38 17 -44 57
-3 24 -7 107 -7 183 -1 119 -3 141 -18 153 -17 14 -17 14 0 9 16 -5 17 9 17
208 l0 213 55 -2 c30 -1 65 -9 79 -18z m1313 -32 c30 -20 61 -70 69 -113 12
-65 -60 -152 -126 -152 -37 0 -103 50 -123 93 -27 56 -22 110 13 151 17 19 41
37 53 39 35 8 87 -1 114 -18z m-2020 -92 c-2 -16 -4 -3 -4 27 0 30 2 43 4 28
2 -16 2 -40 0 -55z m2357 27 c28 -10 86 -84 86 -109 -1 -9 -7 -3 -16 14 -8 17
-12 21 -8 10 34 -111 -9 -195 -99 -195 -52 0 -98 34 -127 95 -34 71 -16 150
42 182 28 15 87 17 122 3z m-1392 -101 c20 -10 39 -23 42 -27 10 -16 29 -576
22 -625 -8 -54 0 -52 -96 -27 -73 19 -73 20 -83 206 -6 108 -13 172 -20 176
-9 6 -9 8 1 8 9 0 12 36 12 144 0 188 11 200 122 145z m-1327 1 c3 -5 -1 -10
-9 -10 -9 0 -16 5 -16 10 0 6 4 10 9 10 6 0 13 -4 16 -10z m3210 -40 c43 -26
69 -87 62 -141 -7 -53 -33 -79 -85 -86 -37 -5 -44 -2 -71 28 -17 18 -33 45
-36 60 -13 57 55 111 94 75 23 -21 36 -8 14 16 -17 19 -68 25 -78 8 -3 -5 -15
-15 -26 -20 -18 -10 -19 -9 -13 17 15 64 75 83 139 43z m-398 -32 c-3 -7 -5
-2 -5 12 0 14 2 19 5 13 2 -7 2 -19 0 -25z m-4272 2 c50 -10 133 -30 185 -44
52 -14 176 -44 275 -66 173 -38 379 -87 550 -130 44 -11 159 -38 255 -59 283
-64 437 -100 565 -131 66 -16 161 -36 210 -45 50 -9 180 -39 290 -66 110 -26
234 -55 275 -64 41 -8 125 -29 185 -45 61 -16 180 -48 265 -70 163 -43 206
-57 197 -66 -8 -8 -83 9 -317 71 -297 79 -757 190 -890 215 -63 11 -203 41
-310 66 -107 25 -262 61 -345 80 -200 47 -417 98 -545 130 -58 14 -186 43
-285 64 -99 21 -220 49 -270 63 -49 14 -151 39 -226 56 -75 18 -145 38 -155
46 -25 19 -14 18 91 -5z m3092 -4 l27 -24 9 -312 c11 -352 9 -364 -45 -353
-18 3 -53 13 -78 22 -43 16 -45 18 -52 66 -8 64 -10 587 -2 609 10 27 106 22
141 -8z m-1255 5 c13 -6 40 -13 62 -16 21 -3 36 -9 33 -11 -8 -8 -127 18 -127
27 0 11 4 11 32 0z m135 -37 c-3 -3 -12 -4 -19 -1 -8 3 -5 6 6 6 11 1 17 -2
13 -5z m46 -11 c-7 -2 -19 -2 -25 0 -7 3 -2 5 12 5 14 0 19 -2 13 -5z m-196
-165 c-2 -29 -3 -8 -3 47 0 55 1 79 3 53 2 -26 2 -71 0 -100z m1898 68 c35
-15 58 -45 54 -74 -1 -9 3 -35 9 -56 15 -53 2 -76 -43 -76 -18 0 -45 4 -59 9
-24 10 -25 13 -25 110 -1 112 0 113 64 87z m-3681 -67 c39 -46 34 -66 -7 -35
-37 29 -57 32 -75 14 -32 -32 8 -105 51 -92 12 3 30 13 40 22 16 14 17 13 17
-6 0 -28 -34 -62 -62 -62 -12 0 -38 18 -60 40 -46 50 -50 85 -12 124 37 36 75
34 108 -5z m76 -90 c0 -80 -2 -90 -15 -79 -11 9 -15 33 -15 91 0 64 3 79 15
79 12 0 15 -17 15 -91z m3938 63 c2 -14 -2 -22 -12 -22 -19 0 -29 17 -22 36 8
22 30 12 34 -14z m-226 -52 c9 -38 19 -56 31 -58 14 -3 17 4 17 42 0 25 5 46
10 46 13 0 13 -117 -1 -125 -16 -11 -57 3 -68 23 -5 9 -12 46 -16 82 -8 78 7
73 27 -10z m144 22 c21 -14 34 -51 34 -96 0 -56 -28 -71 -66 -35 -20 19 -24
32 -24 81 0 54 2 58 23 58 12 0 27 -4 33 -8z m-3757 -21 c21 -21 37 -81 27
-106 -9 -25 -62 -18 -85 11 -52 65 2 151 58 95z m3835 -33 c7 -36 -2 -95 -15
-104 -5 -3 -9 27 -9 65 0 74 13 94 24 39z m86 14 c18 -14 23 -31 27 -87 3 -51
2 -66 -6 -55 -6 8 -11 28 -11 43 0 31 -25 87 -39 87 -5 0 -11 -27 -15 -60 -9
-75 -26 -79 -26 -6 0 30 -3 61 -6 69 -3 10 2 17 13 20 33 9 41 7 63 -11z
m-3805 -10 l50 -17 3 -57 c2 -34 -1 -58 -7 -58 -15 0 -22 16 -30 68 -9 65 -33
64 -43 -1 -7 -54 -18 -74 -18 -36 0 13 -4 35 -7 49 -7 23 -8 21 -14 -15 -5
-35 -6 -33 -8 23 -1 70 -2 69 74 44z m3934 -16 c7 -8 13 -27 14 -42 1 -21 -3
-29 -18 -32 -26 -5 -39 -18 -31 -31 4 -7 15 -7 31 -1 17 6 25 5 28 -4 7 -18
-12 -36 -39 -36 -46 0 -80 86 -58 144 8 20 57 21 73 2z m-3789 -13 c23 -13 29
-24 32 -61 2 -25 -2 -52 -9 -61 -11 -15 -15 -14 -50 4 -33 18 -38 25 -41 61
-2 28 2 47 13 58 20 20 21 20 55 -1z m3891 -3 c10 -6 19 -17 19 -25 0 -22 22
-30 32 -11 5 9 16 16 25 16 18 0 53 -28 53 -42 0 -13 -28 -9 -33 5 -3 9 -8 9
-18 -2 -12 -11 -11 -15 5 -25 30 -18 56 -45 56 -58 0 -15 -45 -38 -72 -38 -15
0 -18 8 -17 44 2 38 -3 48 -35 81 -27 27 -41 34 -48 27 -15 -15 8 -42 33 -42
14 0 19 -7 19 -27 0 -35 -25 -62 -51 -56 -16 5 -20 13 -17 39 1 18 -1 36 -5
40 -14 14 -7 63 11 73 21 13 20 13 43 1z m-3634 -67 l30 -68 8 51 c10 68 18
82 39 65 20 -17 20 -68 1 -101 -8 -14 -14 -40 -15 -57 0 -18 -4 -33 -10 -33
-5 0 -10 4 -10 9 0 15 -66 81 -74 74 -3 -3 -6 -19 -6 -35 0 -15 -4 -28 -10
-28 -6 0 -10 38 -10 95 0 117 13 124 57 28z m-146 36 l24 -20 -27 5 c-36 8
-35 2 3 -32 27 -24 29 -30 20 -55 -6 -15 -18 -27 -26 -27 -25 0 -55 19 -55 35
0 18 9 19 44 5 40 -15 32 7 -9 27 -37 17 -42 31 -25 64 13 24 22 24 51 -2z
m4073 -46 c15 -38 33 -79 41 -93 14 -24 14 -24 15 23 0 42 2 47 23 47 13 0 36
-13 51 -29 27 -29 28 -29 47 -10 25 25 45 24 74 -5 16 -16 26 -41 31 -76 4
-29 13 -54 20 -57 26 -10 14 -23 -21 -23 -19 0 -35 5 -35 11 0 5 -4 8 -9 4
-16 -9 -61 17 -77 44 l-15 26 6 -30 c4 -20 3 -27 -4 -20 -5 6 -11 30 -13 54
-2 32 -9 48 -25 59 -23 14 -23 14 -23 -42 0 -59 -10 -69 -33 -35 -9 13 -17 16
-22 10 -9 -16 -25 -13 -25 4 0 8 -18 24 -40 35 -48 25 -50 25 -50 0 0 -11 -7
-20 -15 -20 -8 0 -15 5 -15 11 0 25 66 179 77 179 6 0 23 -30 37 -67z m-3741
-40 c4 -2 7 -29 7 -59 0 -41 -4 -56 -16 -61 -9 -3 -20 0 -24 7 -4 7 -17 10
-29 7 -31 -8 -44 16 -36 65 4 24 13 46 19 50 10 7 61 1 79 -9z m61 -72 c1 -50
-2 -61 -14 -59 -11 2 -16 21 -20 66 -6 70 -4 75 17 63 11 -5 16 -27 17 -70z
m4009 73 c3 -3 1 -14 -5 -24 -6 -9 -8 -29 -4 -43 6 -24 7 -25 35 -11 19 10 36
11 52 5 23 -8 24 -13 25 -97 1 -49 -3 -95 -8 -101 -6 -7 -23 -13 -39 -13 -32
0 -54 30 -45 63 3 12 -3 35 -15 54 -26 42 -39 173 -17 173 8 0 17 -3 21 -6z
m-3907 -38 c3 -8 15 -11 29 -8 14 2 36 1 49 -2 24 -6 25 -10 25 -85 0 -65 -3
-82 -19 -96 -34 -31 -80 7 -80 67 0 16 -5 19 -21 15 -56 -15 -87 32 -64 96 8
22 15 27 43 27 18 0 35 -6 38 -14z m196 -64 c15 -30 17 -32 23 -13 7 24 42 28
70 7 10 -7 27 -11 37 -8 32 8 48 -16 48 -74 0 -32 -4 -54 -11 -54 -7 0 -9 18
-7 48 3 41 1 47 -17 47 -16 0 -21 -8 -23 -42 -4 -60 -22 -54 -22 7 0 47 -2 50
-26 50 -23 0 -25 -3 -22 -42 3 -47 -14 -65 -19 -21 -2 16 -6 34 -8 41 -5 14
-55 17 -55 2 0 -5 12 -10 26 -10 21 0 25 -4 22 -22 -2 -18 -10 -23 -33 -23
-35 0 -55 31 -55 86 0 65 43 78 72 21z m2804 -7 c27 -8 63 -26 79 -41 17 -14
25 -23 19 -20 -7 3 -14 0 -17 -8 -3 -7 12 -30 35 -52 41 -40 132 -169 143
-205 4 -10 11 -16 17 -13 6 4 8 2 5 -3 -4 -6 2 -35 12 -64 10 -30 21 -75 25
-100 15 -100 -33 -259 -104 -348 -93 -116 -292 -104 -430 25 -64 60 -132 162
-167 250 -24 62 -27 82 -28 194 0 122 1 127 34 198 73 155 227 232 377 187z
m1112 3 c5 -7 13 -34 17 -59 13 -85 -30 -117 -79 -58 -29 34 -31 51 -15 98 9
25 17 31 39 31 15 0 32 -6 38 -12z m130 -25 c38 -5 46 -11 58 -39 15 -36 20
-124 6 -108 -5 5 -14 28 -20 50 -15 50 -28 63 -72 66 -31 3 -36 0 -45 -30 -13
-37 -25 -32 -25 10 0 41 18 71 38 63 9 -3 36 -9 60 -12z m-3774 -24 c23 -18
27 -27 24 -68 -3 -42 -5 -46 -30 -49 -61 -7 -110 106 -55 128 31 12 31 12 61
-11z m203 -34 c21 -34 21 -35 3 -35 -27 0 -26 -33 1 -71 20 -28 20 -29 1 -29
-26 0 -40 18 -50 66 -4 21 -12 37 -17 34 -6 -3 -9 -7 -8 -10 0 -3 3 -20 5 -39
5 -49 -15 -43 -28 9 -15 61 -44 69 -44 11 0 -23 -4 -41 -10 -41 -6 0 -10 27
-10 60 0 60 0 60 29 60 17 0 33 -4 36 -10 11 -17 42 -11 48 10 7 28 19 24 44
-15z m3747 6 c21 -23 39 -81 24 -81 -5 0 -23 11 -40 25 -32 27 -52 33 -46 13
3 -7 13 -15 24 -17 53 -9 75 -71 26 -71 -40 0 -69 24 -76 66 -13 67 46 112 88
65z m196 -2 c4 -8 15 -29 25 -47 14 -27 15 -36 5 -45 -10 -9 -12 -8 -7 6 4 11
1 17 -8 17 -23 0 -19 -53 6 -84 28 -36 18 -44 -20 -16 -27 18 -31 28 -31 66 0
26 -5 44 -11 44 -8 0 -10 -17 -6 -56 4 -40 2 -54 -6 -51 -7 2 -13 26 -15 53
-3 49 -13 64 -44 64 -15 0 -18 -9 -18 -45 0 -25 -4 -45 -10 -45 -6 0 -10 28
-10 64 0 48 4 65 15 70 17 6 60 -8 70 -23 11 -19 25 -12 25 12 0 39 25 49 40
16z m-383 -34 c9 -19 13 -38 9 -42 -10 -10 -45 37 -46 60 0 28 19 19 37 -18z
m-2929 -71 c22 -15 31 -64 12 -64 -5 0 -10 9 -10 20 0 19 -44 40 -56 27 -10
-10 7 -47 21 -47 25 0 45 -31 45 -68 l-1 -37 -28 34 -28 34 -7 -28 c-12 -46
-25 -16 -26 60 -1 39 -1 73 -1 78 2 13 56 7 79 -9z m118 -71 c3 -16 10 -41 15
-57 21 -66 1 -83 -60 -51 -30 15 -41 33 -41 69 0 60 74 93 86 39z m104 -31
c19 -16 21 -23 15 -65 -6 -37 -11 -47 -22 -43 -8 4 -26 9 -39 12 -21 5 -24 12
-24 48 0 64 27 82 70 48z m2573 -3 c21 -11 67 -47 115 -91 12 -11 32 -34 44
-51 19 -26 19 -30 5 -24 -14 5 -13 0 6 -26 67 -88 119 -213 133 -314 8 -65
-10 -172 -41 -240 -13 -28 -47 -76 -77 -106 -46 -47 -61 -57 -110 -67 -68 -13
-145 -2 -209 31 -106 53 -234 213 -274 341 -48 151 -27 343 45 431 37 44 109
96 160 113 44 16 174 18 203 3z m-2463 -44 c0 -8 5 -15 10 -15 6 0 10 5 10 10
0 13 39 13 79 -1 30 -11 39 -26 43 -74 4 -63 -14 -70 -75 -28 -32 22 -38 32
-35 55 6 37 -11 37 -18 0 -5 -27 -8 -28 -47 -22 -41 5 -42 6 -41 44 2 47 26
71 55 55 11 -5 19 -16 19 -24z m239 -48 c8 -7 11 -24 8 -47 -2 -19 -1 -44 4
-55 5 -13 8 1 8 43 1 55 3 62 21 62 27 0 61 -67 41 -79 -10 -6 -9 -10 3 -14
21 -8 21 -43 0 -51 -18 -7 -78 16 -90 35 -5 8 -9 29 -9 48 0 28 -4 34 -24 38
-20 3 -22 1 -11 -12 9 -11 10 -18 1 -29 -6 -7 -8 -21 -5 -31 5 -13 3 -16 -7
-13 -17 6 -32 110 -18 119 13 8 60 -1 78 -14z"/>
<path d="M1167 9293 c-4 -3 -7 -17 -7 -29 0 -17 7 -25 24 -30 47 -11 63 23 24
50 -25 18 -32 19 -41 9z"/>
<path d="M1670 9280 c0 -26 3 -30 29 -30 39 0 57 22 36 44 -9 9 -27 16 -41 16
-20 0 -24 -5 -24 -30z"/>
<path d="M2280 9036 c0 -17 24 -28 45 -20 19 8 19 20 -1 28 -26 10 -44 7 -44
-8z"/>
<path d="M2694 9035 c-9 -23 3 -45 26 -45 23 0 27 29 8 48 -16 16 -27 15 -34
-3z"/>
<path d="M2710 8958 c-22 -10 -23 -12 -6 -15 10 -3 26 2 34 11 19 18 8 20 -28
4z"/>
<path d="M4010 8766 c0 -35 5 -68 11 -71 6 -4 37 -9 69 -12 54 -5 59 -4 75 20
35 55 -12 106 -112 122 l-43 7 0 -66z"/>
<path d="M5424 8286 c-7 -30 9 -63 36 -71 33 -10 87 13 94 40 11 44 -1 55 -65
55 -54 0 -59 -2 -65 -24z"/>
<path d="M6392 8278 c-5 -7 -12 -24 -14 -37 -3 -23 1 -25 72 -37 41 -7 76 -11
78 -10 8 9 -28 75 -46 85 -28 15 -77 14 -90 -1z"/>
<path d="M2866 8264 c-14 -35 -6 -83 18 -111 24 -27 26 -27 53 -13 34 19 44
77 18 116 -19 29 -79 34 -89 8z"/>
<path d="M2440 7907 c0 -8 6 -20 14 -26 12 -10 13 -8 9 9 -7 25 -23 37 -23 17z"/>
<path d="M2430 7850 c0 -5 9 -10 20 -10 11 0 20 5 20 10 0 6 -9 10 -20 10 -11
0 -20 -4 -20 -10z"/>
<path d="M6210 7420 c0 -15 21 -23 32 -12 6 6 2 11 -11 15 -12 3 -21 1 -21 -3z"/>
<path d="M4226 7104 c-3 -26 -6 -77 -6 -113 l0 -66 -54 3 c-102 7 -229 -44
-309 -124 -72 -72 -108 -154 -120 -275 -10 -90 -12 -99 -31 -100 -21 0 -21 0
0 -9 17 -7 23 -20 29 -62 9 -76 61 -227 96 -283 47 -75 108 -142 175 -196 63
-50 175 -109 207 -109 15 0 17 -12 17 -110 0 -83 3 -110 13 -110 7 0 30 -9 52
-20 22 -11 45 -20 52 -20 7 0 13 -4 13 -9 0 -5 18 -12 40 -16 22 -4 42 -10 45
-14 2 -4 34 -9 69 -10 70 -2 166 26 236 68 19 11 42 24 50 28 57 27 157 157
179 233 7 25 17 54 21 66 5 11 11 86 15 165 9 182 -10 333 -53 429 -16 36 -37
90 -45 120 -25 84 -154 263 -256 355 l-45 40 55 -65 c70 -84 88 -109 137 -200
85 -158 130 -305 135 -444 l2 -68 -36 -4 c-25 -3 -44 2 -60 15 -21 17 -24 28
-25 96 -3 105 -9 125 -35 118 -28 -8 -42 -47 -41 -118 0 -33 -2 -49 -4 -35 -2
14 -14 68 -26 120 -12 52 -23 104 -23 115 -6 70 -6 71 -14 52 -6 -15 -12 -10
-35 33 -72 131 -205 263 -324 318 -29 13 -56 30 -58 36 -3 7 0 32 5 56 7 31 7
48 -1 57 -6 7 -8 33 -6 58 5 38 3 45 -12 45 -13 0 -19 -11 -24 -46z m-255
-473 c22 -18 24 -26 27 -160 5 -167 -1 -211 -28 -211 -49 0 -50 4 -50 146 0
129 -1 134 -21 134 -60 0 -79 53 -33 89 33 26 75 27 105 2z m247 -41 c36 -22
72 -74 72 -106 0 -11 -11 -31 -25 -44 -25 -23 -25 -24 -6 -44 51 -56 55 -114
12 -157 -56 -55 -165 -31 -208 46 -30 53 -29 65 7 65 22 0 33 -7 44 -29 17
-32 34 -41 77 -41 57 0 46 78 -15 96 -11 3 -29 13 -38 22 -22 19 -10 37 39 57
38 16 42 36 13 65 -26 26 -36 25 -77 -6 -27 -21 -37 -23 -48 -14 -23 19 -18
58 10 85 31 32 95 34 143 5z m293 -67 c17 -15 38 -42 45 -60 16 -38 19 -123 3
-123 -5 0 -3 -10 5 -22 9 -13 16 -43 16 -71 0 -40 -5 -53 -29 -78 -36 -35 -76
-38 -137 -8 -44 21 -84 71 -84 105 0 11 7 29 15 41 14 20 14 26 -5 62 -30 60
-27 116 9 152 25 24 38 29 79 29 40 0 57 -6 83 -27z m410 -364 c18 -9 19 -17
13 -82 -13 -144 -75 -266 -188 -375 -87 -83 -170 -130 -264 -151 -59 -12 -182
-15 -197 -3 -6 4 -8 22 -4 42 3 19 7 29 8 23 3 -32 203 -1 275 41 50 30 146
114 146 127 0 6 -6 7 -12 3 -8 -4 -10 -3 -5 2 5 5 14 9 20 9 22 0 96 167 116
262 10 50 22 97 26 102 8 14 41 14 66 0z m-803 -11 c14 -14 16 -58 3 -58 -16
0 -41 31 -41 51 0 21 20 25 38 7z m103 -28 c14 -8 19 -21 19 -55 0 -42 -2 -45
-27 -45 -28 0 -63 25 -63 46 0 7 4 24 10 38 10 28 29 32 61 16z m108 -36 c26
-33 26 -55 1 -85 l-20 -24 -19 25 c-26 33 -31 65 -14 90 19 26 27 25 52 -6z
m-218 -14 c26 -14 24 -32 -3 -28 -13 2 -24 11 -26 21 -4 20 2 21 29 7z m564
-97 c-45 -108 -164 -199 -290 -222 -98 -18 -116 -10 -22 9 131 28 232 96 289
196 35 63 45 70 23 17z m58 -128 c-3 -9 -8 -14 -10 -11 -3 3 -2 9 2 15 9 16
15 13 8 -4z"/>
<path d="M4407 6473 c-4 -3 -7 -21 -7 -38 0 -40 29 -68 67 -63 24 3 28 8 31
36 4 42 -21 72 -58 72 -15 0 -30 -3 -33 -7z"/>
<path d="M4390 6306 c0 -4 6 -22 14 -41 17 -39 48 -59 82 -51 29 8 43 51 23
71 -14 13 -119 32 -119 21z"/>
<path d="M4177 6103 c-13 -12 -7 -54 8 -60 25 -9 31 6 9 23 -18 14 -18 15 5 8
20 -5 23 -3 18 11 -4 9 -7 19 -7 21 0 7 -26 5 -33 -3z"/>
<path d="M4287 6078 c-6 -19 14 -69 26 -65 18 6 20 27 3 27 -9 0 -16 5 -16 10
0 6 5 10 10 10 6 0 10 7 10 15 0 18 -27 20 -33 3z"/>
<path d="M5680 6824 c-221 -43 -370 -188 -449 -437 -42 -133 -65 -267 -56
-342 24 -229 129 -450 289 -611 121 -121 304 -223 433 -241 43 -6 46 -5 38 13
-15 32 -18 134 -5 165 12 28 15 29 80 29 157 0 289 80 354 213 21 42 43 109
53 161 l17 88 40 -5 c148 -20 149 -20 144 -6 -3 8 -37 21 -87 31 -45 9 -84 18
-85 20 -2 1 -11 52 -20 112 -31 196 -83 303 -211 432 -69 70 -95 89 -188 134
l-108 53 2 78 c2 91 4 92 99 59 30 -10 56 -17 58 -16 4 5 -95 43 -143 55 -45
12 -217 22 -255 15z m200 -108 l0 -94 -82 1 c-75 1 -90 -2 -158 -34 -87 -41
-150 -105 -199 -203 -29 -57 -61 -192 -61 -259 0 -37 -18 -42 -88 -25 -56 13
-57 15 -60 51 -4 44 21 175 49 254 24 72 76 149 156 233 49 53 83 78 150 111
77 38 96 43 182 49 53 4 99 8 104 8 4 1 7 -40 7 -92z m-112 -414 c37 -19 65
-63 77 -118 8 -42 -30 -86 -114 -133 -33 -19 -61 -40 -61 -45 1 -28 21 -38 91
-44 60 -6 74 -10 77 -25 6 -32 -17 -47 -72 -47 -73 1 -148 29 -163 61 -21 43
-3 79 73 142 38 32 73 67 78 78 24 52 -60 104 -95 58 -19 -25 -62 -23 -67 4
-5 27 6 63 25 82 21 22 98 15 151 -13z m328 -58 c103 -35 124 -73 124 -234 0
-135 -12 -175 -56 -186 -28 -7 -91 8 -139 34 -19 11 -48 15 -82 13 -52 -3 -59
2 -47 32 5 13 9 13 32 1 20 -10 28 -11 34 -1 11 18 10 65 -3 89 -20 38 -60
189 -54 208 5 17 90 56 126 59 8 0 38 -6 65 -15z m-743 -184 c4 -4 14 -53 22
-108 8 -56 21 -117 29 -136 21 -51 96 -163 147 -220 74 -83 149 -125 297 -165
40 -11 42 -14 42 -50 0 -72 -13 -161 -23 -161 -18 0 -149 62 -217 103 -119 71
-217 183 -304 347 -63 120 -94 220 -103 333 l-6 78 54 -7 c30 -3 58 -10 62
-14z m521 -301 c15 -29 17 -45 10 -57 -19 -29 -30 -23 -31 20 -1 25 -8 47 -17
54 -9 6 -13 14 -9 17 14 15 29 5 47 -34z m86 -43 c0 -31 -23 -56 -38 -41 -3 3
0 5 6 5 7 0 11 15 11 38 -1 27 -3 30 -6 12 -8 -42 -23 -48 -23 -9 0 43 7 51
31 38 13 -6 19 -21 19 -43z m-120 30 c0 -8 -4 -18 -10 -21 -5 -3 -10 3 -10 14
0 12 5 21 10 21 6 0 10 -6 10 -14z m190 4 c12 -8 12 -10 -2 -15 -25 -10 -31
-36 -12 -50 18 -13 11 -35 -11 -35 -17 0 -27 40 -19 79 7 32 18 38 44 21z
m-230 -30 c0 -5 -4 -10 -10 -10 -5 0 -10 5 -10 10 0 6 5 10 10 10 6 0 10 -4
10 -10z m35 -28 c-3 -3 -11 0 -18 7 -9 10 -8 11 6 5 10 -3 15 -9 12 -12z"/>
<path d="M6064 6164 c-38 -20 -44 -32 -32 -63 35 -94 122 -74 104 23 -9 46
-33 60 -72 40z"/>
<path d="M6044 5954 c-9 -34 7 -47 57 -48 38 -1 44 2 49 24 11 41 2 50 -51 50
-44 0 -49 -2 -55 -26z"/>
<path d="M4720 6631 c0 -6 4 -13 10 -16 6 -3 7 1 4 9 -7 18 -14 21 -14 7z"/>
<path d="M6672 5710 c0 -14 2 -19 5 -12 2 6 2 18 0 25 -3 6 -5 1 -5 -13z"/>
<path d="M6662 5660 c0 -14 2 -19 5 -12 2 6 2 18 0 25 -3 6 -5 1 -5 -13z"/>
<path d="M6645 5601 c-4 -19 -20 -63 -36 -98 -33 -74 -30 -85 4 -15 31 60 50
119 44 135 -2 6 -7 -3 -12 -22z"/>
<path d="M6551 5394 c-12 -20 -20 -38 -18 -41 3 -2 14 13 26 33 12 20 20 38
18 41 -3 2 -14 -13 -26 -33z"/>
<path d="M1709 7333 c-14 -36 5 -74 43 -87 34 -12 58 6 58 43 0 67 -79 101
-101 44z"/>
<path d="M1697 7166 c47 -93 123 -105 123 -19 0 38 -4 40 -82 46 l-57 4 16
-31z"/>
<path d="M8496 7365 c-4 -11 -2 -22 6 -27 20 -12 38 -9 38 7 0 8 -6 15 -14 15
-8 0 -16 5 -18 12 -3 7 -7 4 -12 -7z"/>
<path d="M8380 7050 c0 -5 11 -10 25 -10 14 0 25 5 25 10 0 6 -11 10 -25 10
-14 0 -25 -4 -25 -10z"/>
<path d="M8631 7062 c-10 -18 -9 -23 3 -28 8 -3 22 -4 32 -2 15 3 14 5 -3 27
l-20 25 -12 -22z"/>
<path d="M8635 6990 c3 -5 15 -10 26 -10 10 0 19 5 19 10 0 6 -12 10 -26 10
-14 0 -23 -4 -19 -10z"/>
<path d="M8757 7043 c-15 -15 -6 -63 13 -73 26 -14 40 -5 39 23 0 12 -3 16 -6
10 -9 -24 -23 -13 -23 17 0 29 -9 38 -23 23z"/>
<path d="M1287 7003 c-12 -11 -8 -23 8 -23 8 0 15 7 15 15 0 16 -12 20 -23 8z"/>
<path d="M8887 6966 c-8 -19 1 -26 35 -26 30 0 35 9 16 28 -16 16 -45 15 -51
-2z"/>
<path d="M1580 6920 c0 -5 5 -10 10 -10 6 0 10 5 10 10 0 6 -4 10 -10 10 -5 0
-10 -4 -10 -10z"/>
<path d="M1676 6905 c-9 -24 -8 -25 15 -25 14 0 19 5 17 17 -4 23 -24 27 -32
8z"/>
<path d="M1800 6871 c-16 -30 -12 -36 10 -16 21 19 26 35 10 35 -5 0 -14 -9
-20 -19z"/>
<path d="M1836 6854 c-8 -21 -8 -24 3 -24 12 0 22 28 12 35 -5 3 -12 -2 -15
-11z"/>
<path d="M2420 6770 c0 -25 16 -44 25 -30 4 7 0 19 -9 28 -13 14 -16 14 -16 2z"/>
<path d="M2637 6683 c-13 -12 -7 -22 13 -20 11 1 20 7 20 14 0 14 -22 18 -33
6z"/>
<path d="M2820 6640 c0 -11 4 -20 8 -20 4 0 8 9 9 20 1 11 -2 20 -8 20 -5 0
-9 -9 -9 -20z"/>
<path d="M8913 6343 c9 -2 23 -2 30 0 6 3 -1 5 -18 5 -16 0 -22 -2 -12 -5z"/>
<path d="M7527 6163 c-4 -3 -7 -17 -7 -29 0 -16 7 -24 23 -26 18 -2 22 -9 20
-35 -2 -25 2 -33 18 -38 47 -15 73 72 33 116 -17 18 -73 27 -87 12z"/>
<path d="M7415 6065 c4 -22 13 -46 21 -53 9 -8 10 -8 4 0 -6 7 -10 23 -10 38
0 14 -5 32 -11 40 -8 11 -9 5 -4 -25z"/>
<path d="M7349 5907 c-38 -26 -47 -49 -48 -132 -1 -73 21 -121 70 -147 67 -36
111 -17 124 54 6 29 2 45 -14 72 -25 40 -49 50 -97 41 -31 -5 -34 -4 -34 18 0
14 9 35 19 48 17 21 21 22 44 10 14 -7 30 -24 36 -37 14 -32 29 -30 37 3 6 22
1 32 -29 60 -43 39 -62 41 -108 10z m78 -159 c31 -35 35 -46 23 -68 -15 -27
-42 -25 -74 6 -32 33 -33 48 -4 68 29 20 31 20 55 -6z"/>
<path d="M7555 5868 c-26 -20 -27 -24 -21 -79 4 -36 3 -60 -4 -64 -5 -3 -10
-24 -10 -45 0 -50 45 -105 101 -122 35 -10 43 -9 67 9 33 25 40 78 18 135 -12
28 -13 44 -6 58 17 31 12 55 -17 82 -25 24 -71 48 -92 48 -5 0 -21 -10 -36
-22z m79 -50 c17 -24 21 -54 8 -61 -18 -12 -61 6 -66 28 -13 52 28 76 58 33z
m16 -139 c15 -35 6 -79 -17 -79 -45 0 -69 66 -37 101 20 23 39 15 54 -22z"/>
<path d="M8108 5737 c4 -186 9 -207 10 -42 0 77 -2 148 -6 157 -4 10 -6 -42
-4 -115z"/>
<path d="M7767 5816 c-30 -28 -30 -37 0 -109 14 -33 15 -40 3 -47 -8 -5 -18
-6 -23 -3 -12 7 0 -63 15 -90 12 -24 67 -57 95 -57 12 0 35 12 52 26 24 20 31
34 31 63 0 20 -7 46 -15 58 -12 17 -13 27 -4 47 23 49 -29 122 -92 132 -27 5
-40 1 -62 -20z m103 -36 c38 -38 17 -84 -37 -78 -24 3 -28 8 -31 38 -3 24 2
38 14 47 24 17 31 16 54 -7z m11 -130 c21 -12 25 -52 6 -68 -6 -6 -24 -13 -39
-17 -23 -6 -30 -2 -48 27 -32 52 -27 68 21 68 22 0 49 -5 60 -10z"/>
<path d="M7326 5505 c-4 -25 -4 -49 -1 -55 8 -13 45 -13 45 0 0 6 -9 10 -20
10 -11 0 -20 7 -20 15 0 8 4 15 9 15 5 0 7 9 4 20 -3 11 0 20 6 20 13 0 41
-52 41 -77 0 -15 4 -14 20 7 l20 25 0 -27 c0 -29 24 -48 60 -48 21 0 24 4 34
53 5 19 2 27 -8 27 -17 0 -28 -24 -20 -45 4 -10 0 -15 -15 -15 -23 0 -30 33
-9 46 8 5 5 11 -7 20 -12 9 -22 10 -30 4 -8 -6 -22 0 -46 20 -19 16 -39 29
-45 30 -7 0 -15 -20 -18 -45z"/>
<path d="M7550 5436 c0 -31 5 -46 16 -50 33 -13 44 -6 44 25 0 41 -16 69 -40
69 -17 0 -20 -7 -20 -44z m42 -12 c-4 -36 -10 -43 -22 -24 -7 11 -5 19 7 28 9
6 12 12 5 12 -7 0 -12 5 -12 11 0 6 6 9 13 6 7 -2 11 -16 9 -33z"/>
<path d="M7630 5436 c0 -19 -3 -41 -6 -50 -4 -10 -1 -16 8 -16 9 0 13 13 12
45 -1 25 2 42 7 39 5 -3 9 0 9 5 0 6 -7 11 -15 11 -10 0 -15 -10 -15 -34z"/>
<path d="M7673 5453 c4 -3 2 -12 -4 -19 -6 -7 -7 -23 -3 -36 7 -22 7 -22 15
-3 12 30 10 65 -3 65 -6 0 -8 -3 -5 -7z"/>
<path d="M7702 5403 c3 -41 6 -48 26 -51 12 -2 22 1 22 7 0 6 -9 11 -21 11
-19 0 -21 5 -17 40 2 22 0 40 -5 40 -4 0 -7 -21 -5 -47z"/>
<path d="M7734 5433 c-6 -10 -8 -27 -3 -38 4 -11 8 -18 8 -15 1 3 5 20 10 38
10 35 2 43 -15 15z"/>
<path d="M7786 5421 c12 -12 23 -15 29 -9 11 10 -10 28 -34 28 -11 0 -9 -5 5
-19z"/>
<path d="M7857 5405 c18 -13 21 -22 16 -47 -4 -22 -3 -29 5 -24 26 16 5 86
-26 86 -13 0 -12 -3 5 -15z"/>
<path d="M7760 5396 c0 -8 5 -18 10 -21 6 -3 10 3 10 14 0 12 -4 21 -10 21 -5
0 -10 -6 -10 -14z"/>
<path d="M7831 5376 c-15 -27 -8 -47 17 -45 15 1 15 2 0 6 -10 2 -18 8 -18 13
0 5 8 13 18 19 12 7 14 13 6 21 -7 7 -14 3 -23 -14z"/>
<path d="M7782 5370 c-8 -13 -8 -20 -2 -20 6 0 13 7 17 15 9 24 -1 27 -15 5z"/>
<path d="M8733 5906 c-43 -21 -25 -34 21 -16 32 12 33 4 5 -26 -24 -26 -19
-54 9 -54 22 0 52 30 52 53 0 15 -46 58 -59 56 -3 -1 -16 -6 -28 -13z"/>
<path d="M8532 5654 c3 -27 8 -30 80 -48 l76 -19 -30 -49 c-38 -62 -68 -140
-68 -178 0 -44 37 -42 52 3 6 17 36 80 66 139 31 61 52 113 49 122 -4 9 -18
16 -34 16 -25 0 -128 21 -176 36 -15 5 -18 1 -15 -22z"/>
<path d="M8805 5580 c-28 -29 -28 -30 -10 -50 24 -26 43 -25 47 2 5 39 36 34
54 -8 22 -52 12 -78 -51 -125 -30 -23 -56 -50 -56 -60 -1 -11 -2 -25 -3 -31
-1 -8 26 -17 69 -25 39 -7 84 -16 101 -19 36 -7 50 6 35 34 -6 11 -31 22 -70
30 -34 7 -61 16 -61 20 0 4 18 20 40 36 42 31 70 79 70 119 0 33 -36 76 -76
93 -47 20 -57 18 -89 -16z"/>
<path d="M9314 5395 c0 -77 2 -107 3 -67 2 40 2 103 0 140 -2 37 -3 4 -3 -73z"/>
<path d="M8610 5235 c0 -11 5 -15 14 -12 10 4 13 1 9 -9 -3 -7 0 -14 6 -14 6
0 17 -12 23 -26 l12 -26 8 28 c4 16 3 33 -2 38 -7 7 -10 5 -10 -3 0 -7 -6 -11
-12 -9 -7 3 -13 13 -13 24 0 10 -8 20 -17 22 -12 2 -18 -3 -18 -13z"/>
<path d="M8606 5202 c-7 -11 31 -48 41 -38 4 3 -2 16 -14 27 -11 12 -23 17
-27 11z"/>
<path d="M8709 5179 c-9 -18 -7 -25 10 -42 11 -12 24 -18 28 -13 4 4 1 11 -6
15 -8 6 -12 19 -9 35 6 31 -7 34 -23 5z"/>
<path d="M8753 5173 c-1 -20 1 -23 9 -12 7 10 8 4 4 -20 -5 -29 -4 -32 9 -21
8 7 15 21 15 30 0 49 -34 71 -37 23z"/>
<path d="M8810 5173 c0 -10 -3 -28 -6 -40 -4 -14 -2 -23 5 -23 6 0 11 9 11 21
0 11 5 29 10 40 8 15 7 19 -5 19 -8 0 -15 -8 -15 -17z"/>
<path d="M8842 5140 c-8 -31 -7 -40 3 -40 7 0 16 11 19 24 3 13 9 31 12 40 4
10 1 16 -9 16 -9 0 -19 -16 -25 -40z"/>
<path d="M8600 5156 c0 -9 5 -16 10 -16 6 0 10 4 10 9 0 6 -4 13 -10 16 -5 3
-10 -1 -10 -9z"/>
<path d="M8891 5133 c-6 -20 -8 -40 -5 -45 7 -11 34 -10 34 2 0 6 -4 10 -10
10 -16 0 -11 19 9 37 21 18 19 33 -4 33 -8 0 -19 -16 -24 -37z"/>
<path d="M8953 5148 c-20 -26 -21 -46 -5 -61 43 -36 76 -21 88 41 6 28 4 32
-15 32 -11 0 -21 -4 -21 -10 0 -5 5 -10 10 -10 6 0 10 -7 10 -16 0 -13 -3 -14
-14 -4 -11 8 -20 9 -33 1 -16 -9 -16 -10 5 -11 13 0 22 -6 22 -15 0 -21 -27
-19 -39 4 -8 14 -7 22 4 31 17 14 20 30 6 30 -5 0 -13 -6 -18 -12z"/>
<path d="M8648 5133 c7 -3 16 -2 19 1 4 3 -2 6 -13 5 -11 0 -14 -3 -6 -6z"/>
<path d="M9061 5126 c-6 -7 -14 -26 -17 -43 -5 -25 -2 -31 16 -36 48 -12 67
19 30 50 -18 16 -19 18 -3 24 15 5 15 6 0 12 -8 3 -20 0 -26 -7z m29 -51 c0
-8 -7 -15 -15 -15 -16 0 -20 12 -8 23 11 12 23 8 23 -8z"/>
<path d="M9303 5005 c0 -22 2 -30 4 -17 2 12 2 30 0 40 -3 9 -5 -1 -4 -23z"/>
<path d="M7367 4673 c-4 -3 -7 -13 -7 -22 1 -13 3 -13 11 2 11 19 8 33 -4 20z"/>
<path d="M7740 4480 c0 -5 5 -10 11 -10 5 0 7 5 4 10 -3 6 -8 10 -11 10 -2 0
-4 -4 -4 -10z"/>
<path d="M8091 4384 c-22 -28 -25 -44 -14 -82 7 -30 23 -10 23 31 0 40 37 52
69 23 25 -22 25 -20 2 27 -18 35 -53 36 -80 1z"/>
<path d="M7582 4325 c-14 -30 -68 -65 -99 -65 -13 0 -23 -4 -23 -10 0 -16 41
-11 86 11 32 15 44 28 49 50 9 39 2 46 -13 14z"/>
<path d="M8532 4296 c-29 -28 -43 -48 -37 -53 6 -5 9 -6 7 -4 -1 3 19 26 45
53 59 60 48 63 -15 4z"/>
<path d="M7948 4205 c-2 -25 0 -45 4 -45 5 0 8 20 8 45 0 25 -2 45 -4 45 -2 0
-6 -20 -8 -45z"/>
<path d="M7808 4210 c-3 -16 -1 -30 4 -30 4 0 8 14 8 30 0 17 -2 30 -4 30 -2
0 -6 -13 -8 -30z"/>
<path d="M8510 4211 c0 -6 4 -13 10 -16 6 -3 7 1 4 9 -7 18 -14 21 -14 7z"/>
<path d="M8408 4142 c-1 -34 -2 -69 -2 -79 -1 -9 5 -18 12 -20 8 -3 12 7 12
34 0 21 5 45 10 53 8 13 11 12 25 -5 12 -15 12 -11 -2 13 -10 18 -26 40 -35
49 -17 15 -18 13 -20 -45z"/>
<path d="M8264 4149 c-10 -12 -37 -30 -59 -40 -22 -10 -33 -18 -24 -18 30 -2
74 20 92 45 24 32 17 41 -9 13z"/>
<path d="M9068 4159 c-16 -9 -18 -26 -18 -126 0 -64 3 -113 8 -109 4 4 7 54 7
109 l0 102 43 10 c24 6 40 14 36 18 -11 10 -56 8 -76 -4z"/>
<path d="M8597 4043 c8 -52 23 -66 23 -21 0 19 -7 41 -15 48 -12 10 -13 6 -8
-27z"/>
<path d="M8788 4063 c7 -3 16 -2 19 1 4 3 -2 6 -13 5 -11 0 -14 -3 -6 -6z"/>
<path d="M8900 4014 c-8 -9 -28 -25 -45 -36 -25 -15 -26 -18 -10 -18 26 0 79
43 74 59 -4 10 -9 9 -19 -5z"/>
<path d="M1300 4866 c0 -8 5 -18 10 -21 6 -3 10 3 10 14 0 12 -4 21 -10 21 -5
0 -10 -6 -10 -14z"/>
<path d="M1355 4830 c-4 -6 -3 -16 3 -22 6 -6 12 -6 17 2 4 6 3 16 -3 22 -6 6
-12 6 -17 -2z"/>
<path d="M1385 4790 c3 -5 15 -10 26 -10 11 0 17 5 14 10 -3 6 -15 10 -26 10
-11 0 -17 -4 -14 -10z"/>
<path d="M1610 4735 c14 -16 40 -20 40 -6 0 9 -24 21 -42 21 -6 0 -6 -6 2 -15z"/>
<path d="M2118 4669 c-10 -5 -23 -20 -29 -32 -9 -18 -9 -20 2 -9 7 6 30 12 51
12 41 0 49 13 19 30 -23 12 -22 12 -43 -1z"/>
<path d="M2155 4610 c-19 -8 -19 -9 3 -9 12 -1 22 4 22 9 0 6 -1 10 -2 9 -2 0
-12 -4 -23 -9z"/>
<path d="M2395 4561 c-6 -11 9 -23 19 -14 9 9 7 23 -3 23 -6 0 -12 -4 -16 -9z"/>
<path d="M6212 3886 c3 -98 10 -181 14 -186 5 -5 59 -18 119 -30 61 -11 120
-23 133 -26 l22 -4 0 182 0 183 -117 24 c-65 13 -131 26 -147 29 l-29 5 5
-177z"/>
<path d="M2517 4593 c-13 -12 -7 -46 11 -59 25 -20 32 -17 32 14 0 37 -25 63
-43 45z"/>
<path d="M2500 4493 c0 -18 27 -46 38 -39 14 9 16 36 3 36 -5 0 -16 3 -25 6
-9 3 -16 2 -16 -3z"/>
<path d="M2647 4566 c-4 -10 -5 -21 -2 -24 9 -9 17 6 13 25 -3 17 -4 17 -11
-1z"/>
<path d="M2640 4500 c0 -10 32 -30 49 -30 17 0 13 27 -5 34 -23 9 -44 7 -44
-4z"/>
<path d="M1972 4185 c0 -16 2 -22 5 -12 2 9 2 23 0 30 -3 6 -5 -1 -5 -18z"/>
<path d="M1660 4171 c0 -7 13 -30 29 -50 66 -84 115 -216 115 -311 0 -84 -44
-182 -106 -235 -48 -41 -134 -70 -184 -62 -49 8 -42 -10 8 -24 60 -16 134 2
192 47 25 19 46 39 46 45 0 6 4 8 9 5 13 -9 37 24 73 99 47 100 46 171 -4 278
-36 74 -58 105 -37 51 5 -15 7 -29 5 -31 -6 -7 -61 98 -61 117 0 8 -5 15 -10
15 -6 0 -25 16 -43 35 -17 19 -32 29 -32 21z"/>
<path d="M1429 4139 c-53 -8 -90 -26 -138 -68 -30 -26 -35 -38 -39 -86 -4 -48
1 -68 33 -146 33 -79 43 -93 79 -114 47 -27 154 -50 190 -41 34 8 86 63 108
114 24 53 18 100 -22 187 -29 64 -60 97 -125 137 -34 20 -47 23 -86 17z m119
-127 c41 -40 50 -55 55 -96 12 -84 8 -127 -14 -162 -27 -44 -56 -51 -107 -25
-143 73 -185 253 -72 313 56 29 83 24 138 -30z"/>
<path d="M1460 3909 c-9 -16 -8 -26 5 -45 19 -29 42 -28 61 1 12 18 11 24 -2
43 -19 28 -50 28 -64 1z"/>
<path d="M1983 4095 c0 -33 2 -45 4 -27 2 18 2 45 0 60 -2 15 -4 0 -4 -33z"/>
<path d="M2950 4450 c0 -5 7 -10 16 -10 8 0 12 5 9 10 -3 6 -10 10 -16 10 -5
0 -9 -4 -9 -10z"/>
<path d="M2950 4414 c0 -10 7 -14 22 -12 32 5 35 28 4 28 -17 0 -26 -5 -26
-16z"/>
<path d="M2520 4000 c30 -10 65 -19 77 -19 12 -1 84 -17 159 -36 75 -19 139
-33 142 -30 3 3 2 5 -2 5 -4 0 -80 20 -169 44 -89 25 -184 47 -212 50 l-50 5
55 -19z"/>
<path d="M2215 3937 c-13 -10 -16 -21 -11 -41 7 -30 27 -42 54 -31 16 6 16 7
0 19 -11 8 -14 21 -11 39 6 30 -4 34 -32 14z"/>
<path d="M2985 3884 c28 -7 61 -13 75 -13 14 0 -2 7 -35 14 -78 18 -104 17
-40 -1z"/>
<path d="M3056 3737 c3 -10 9 -15 12 -12 3 3 0 11 -7 18 -10 9 -11 8 -5 -6z"/>
<path d="M2216 3677 c-14 -20 -15 -30 -6 -46 6 -12 15 -21 20 -21 13 0 23 57
12 76 -8 15 -11 14 -26 -9z"/>
<path d="M3050 3665 c-8 -9 -8 -15 -2 -15 12 0 26 19 19 26 -2 2 -10 -2 -17
-11z"/>
<path d="M2480 3500 c358 -91 385 -98 420 -105 19 -4 32 -5 29 -1 -8 8 -593
156 -615 155 -11 -1 64 -22 166 -49z"/>
<path d="M3070 3432 c0 -15 -6 -34 -12 -41 -11 -10 -10 -11 5 -6 11 5 17 18
17 41 0 19 -2 34 -5 34 -3 0 -5 -13 -5 -28z"/>
<path d="M2207 3423 c-4 -3 -7 -18 -7 -33 0 -54 46 -73 311 -130 107 -23 256
-60 332 -81 75 -22 147 -39 160 -39 32 1 -196 63 -478 130 -93 23 -191 48
-217 57 -55 19 -79 53 -60 84 11 17 9 19 -11 19 -13 0 -27 -3 -30 -7z"/>
<path d="M2293 3393 c9 -2 23 -2 30 0 6 3 -1 5 -18 5 -16 0 -22 -2 -12 -5z"/>
<path d="M2370 3380 c14 -4 34 -8 45 -8 l20 -1 -20 9 c-11 5 -31 8 -45 8 l-25
0 25 -8z"/>
<path d="M3070 3193 c0 -16 -6 -35 -12 -42 -11 -11 -9 -11 10 -2 23 12 31 54
12 66 -6 4 -10 -6 -10 -22z"/>
<path d="M3139 3132 c-3 -20 -2 -29 4 -23 5 5 7 19 5 32 -3 20 -5 19 -9 -9z"/>
<path d="M7296 3547 c-37 -27 8 -82 56 -69 12 3 18 14 18 31 0 47 -37 65 -74
38z m47 -36 c-6 -22 -33 -23 -33 -1 0 22 9 30 25 24 7 -3 11 -13 8 -23z"/>
<path d="M7651 3476 c-7 -8 -11 -27 -9 -43 2 -22 9 -29 30 -31 18 -2 30 3 37
15 10 21 7 29 -25 56 -18 15 -23 16 -33 3z m39 -42 c0 -14 -6 -24 -14 -24 -19
0 -26 21 -14 43 12 23 28 12 28 -19z"/>
<path d="M7240 3215 c0 -21 5 -25 30 -25 31 0 39 17 18 38 -22 22 -48 14 -48
-13z"/>
<path d="M7242 3128 c2 -18 10 -24 36 -26 30 -3 33 -1 30 20 -2 18 -10 24 -36
26 -30 3 -33 1 -30 -20z"/>
<path d="M7500 3106 c0 -2 7 -7 16 -10 8 -3 12 -2 9 4 -6 10 -25 14 -25 6z"/>
<path d="M7490 3075 c0 -20 22 -65 32 -65 12 0 10 18 -7 50 -17 33 -25 38 -25
15z"/>
<path d="M3726 3104 c-9 -23 -8 -24 14 -24 23 0 26 13 6 29 -11 9 -15 8 -20
-5z"/>
<path d="M3736 3045 c4 -8 12 -15 20 -15 8 0 14 7 14 15 0 8 -9 15 -20 15 -13
0 -18 -5 -14 -15z"/>
<path d="M7776 3064 c-11 -28 -7 -44 9 -38 16 7 20 39 6 48 -5 3 -12 -1 -15
-10z"/>
<path d="M3997 3044 c-13 -13 -7 -24 14 -24 11 0 19 5 17 12 -5 14 -22 21 -31
12z"/>
<path d="M3990 2980 c0 -12 48 -25 58 -16 8 9 -18 26 -40 26 -10 0 -18 -4 -18
-10z"/>
<path d="M7893 2953 c9 -9 19 -14 23 -11 10 10 -6 28 -24 28 -15 0 -15 -1 1
-17z"/>
<path d="M8000 2920 c0 -5 5 -10 11 -10 5 0 7 5 4 10 -3 6 -8 10 -11 10 -2 0
-4 -4 -4 -10z"/>
<path d="M8166 2961 c-5 -13 -4 -27 3 -34 17 -17 24 -1 14 30 l-10 28 -7 -24z"/>
<path d="M8410 2910 c0 -5 5 -10 10 -10 6 0 10 -5 10 -11 0 -7 -12 -10 -30 -7
-20 3 -30 0 -30 -9 0 -9 14 -13 45 -13 25 0 45 2 45 5 0 3 -7 17 -16 30 -17
25 -34 33 -34 15z"/>
<path d="M8413 2817 c5 -15 37 -22 37 -9 0 5 -9 12 -21 15 -13 3 -19 1 -16 -6z"/>
<path d="M4410 2916 c0 -17 27 -29 35 -16 4 6 3 15 0 20 -9 15 -35 12 -35 -4z"/>
<path d="M4405 2860 c3 -5 13 -10 21 -10 8 0 14 5 14 10 0 6 -9 10 -21 10 -11
0 -17 -4 -14 -10z"/>
<path d="M8575 2803 c3 -21 7 -55 7 -75 0 -27 4 -38 15 -38 12 0 14 8 9 44 -6
35 -4 45 9 50 10 3 15 15 13 28 -2 17 -11 24 -32 26 -28 3 -28 3 -21 -35z"/>
<path d="M4590 2886 c0 -7 9 -16 20 -19 23 -6 26 3 8 21 -16 16 -28 15 -28 -2z"/>
<path d="M4668 2810 c-2 -49 1 -70 9 -70 16 0 25 33 17 64 -5 20 -2 26 10 26
19 0 20 5 6 31 -6 10 -17 19 -25 19 -10 0 -14 -19 -17 -70z"/>
<path d="M4580 2846 c0 -8 5 -18 10 -21 6 -3 10 1 10 9 0 8 -4 18 -10 21 -5 3
-10 -1 -10 -9z"/>
<path d="M4785 2829 c-10 -15 3 -25 16 -12 7 7 7 13 1 17 -6 3 -14 1 -17 -5z"/>
<path d="M7455 2701 c-55 -25 -103 -75 -134 -141 -35 -75 -34 -203 2 -300 14
-36 30 -64 35 -63 6 2 9 -3 6 -10 -2 -7 6 -25 20 -40 32 -35 41 -34 19 1 -11
17 6 5 46 -31 35 -33 75 -64 88 -70 12 -5 23 -16 23 -23 0 -17 24 -24 88 -24
l57 1 -38 13 c-57 21 -106 57 -188 138 -56 55 -79 86 -92 123 -24 70 -32 173
-18 218 18 54 93 132 146 153 59 22 151 15 197 -16 l33 -22 -35 32 c-46 42
-132 80 -178 80 -20 0 -55 -9 -77 -19z"/>
<path d="M7790 2524 c33 -56 46 -66 21 -17 -11 23 -26 45 -33 49 -6 4 -1 -10
12 -32z"/>
<path d="M7829 2453 c-1 -7 -2 -19 -3 -25 -1 -12 -12 -15 -68 -21 -15 -1 -14
-5 7 -27 14 -15 25 -38 25 -53 0 -39 -59 -99 -135 -136 -69 -34 -88 -51 -56
-51 10 0 21 -5 23 -10 3 -10 154 -16 203 -8 29 4 46 41 52 116 3 46 0 87 -12
132 -18 69 -33 104 -36 83z"/>
<path d="M7558 2353 c-25 -6 -22 -29 4 -47 26 -19 51 -4 46 28 -3 21 -19 28
-50 19z"/>
<path d="M7820 2090 c-6 -11 -8 -20 -6 -20 3 0 10 9 16 20 6 11 8 20 6 20 -3
0 -10 -9 -16 -20z"/>
<path d="M7471 2069 c-1 -18 55 -62 72 -56 6 2 -2 10 -18 18 -17 9 -29 21 -27
28 1 7 -2 10 -7 7 -5 -4 -12 0 -14 6 -4 9 -6 8 -6 -3z"/>
<path d="M8693 2785 c-6 -18 23 -55 45 -55 13 0 13 3 -2 19 -9 10 -14 25 -10
35 4 11 1 16 -10 16 -9 0 -19 -7 -23 -15z"/>
<path d="M5060 2750 c0 -5 5 -10 12 -10 6 0 8 -3 5 -6 -8 -9 11 -44 23 -44 16
0 11 23 -9 48 -21 24 -31 28 -31 12z"/>
<path d="M9005 2750 c-3 -5 3 -10 15 -10 12 0 18 5 15 10 -3 6 -10 10 -15 10
-5 0 -12 -4 -15 -10z"/>
<path d="M9004 2666 c22 -18 46 -21 46 -6 0 6 -6 10 -14 10 -8 0 -23 3 -33 6
-16 5 -16 4 1 -10z"/>
<path d="M6006 2551 c3 -49 10 -61 32 -60 15 1 15 2 1 6 -11 3 -15 15 -15 45
1 22 -4 43 -10 45 -7 2 -10 -10 -8 -36z"/>
<path d="M6116 2531 c-8 -13 11 -61 24 -61 5 0 10 16 10 35 0 34 -20 49 -34
26z"/>
<path d="M8546 2426 c-107 -40 -165 -137 -167 -280 -1 -48 -3 -56 -10 -36 -6
18 -7 9 -3 -28 6 -62 27 -120 62 -175 28 -43 41 -43 19 0 -32 63 -26 74 11 18
39 -60 109 -133 147 -153 15 -8 16 -12 5 -13 -34 -2 99 -32 145 -32 201 -1
281 256 153 495 -34 65 -134 164 -191 192 -52 24 -124 29 -171 12z m174 -76
c0 -6 -10 -15 -22 -20 -20 -7 -18 -9 15 -9 21 -1 48 4 59 10 15 8 19 8 14 0
-4 -7 1 -11 13 -11 12 0 21 -4 21 -9 0 -13 -26 -21 -66 -21 -19 0 -34 -4 -34
-8 0 -5 -14 -6 -32 -4 l-32 5 22 -28 c12 -15 22 -34 22 -42 0 -13 48 -38 57
-29 3 2 -4 7 -15 10 -29 10 -37 35 -9 28 12 -3 25 -10 29 -16 6 -8 8 -8 8 1 0
7 9 9 22 5 21 -5 21 -6 2 -14 -14 -6 -12 -7 9 -3 15 3 27 1 27 -4 0 -13 58
-32 65 -20 12 18 24 8 34 -28 6 -21 10 -49 10 -63 -1 -17 -3 -19 -6 -7 -6 22
-93 25 -93 3 0 -7 -19 -32 -41 -55 -38 -37 -41 -44 -34 -77 l6 -37 -38 6 c-45
8 -105 -7 -124 -29 -11 -13 -6 -21 32 -56 52 -48 100 -71 149 -71 l35 1 -37
-10 c-79 -21 -230 87 -289 207 -36 74 -44 132 -30 209 12 64 54 124 104 146
15 7 27 16 27 21 0 5 12 9 28 9 15 0 34 5 42 10 20 13 50 13 50 0z m47 -6 c-3
-3 -12 -4 -19 -1 -8 3 -5 6 6 6 11 1 17 -2 13 -5z m86 -84 c-3 -11 -9 -20 -14
-20 -5 0 -9 -7 -9 -16 0 -11 -6 -14 -22 -9 -39 12 -44 25 -10 25 25 0 33 5 38
25 3 14 10 23 14 20 5 -3 6 -14 3 -25z m-93 -10 c0 -5 -9 -10 -20 -10 -11 0
-20 5 -20 10 0 6 9 10 20 10 11 0 20 -4 20 -10z"/>
<path d="M8516 1817 c3 -10 9 -15 12 -12 3 3 0 11 -7 18 -10 9 -11 8 -5 -6z"/>
<path d="M6227 2503 c-4 -3 -7 -17 -7 -30 0 -16 6 -23 20 -23 11 0 20 7 20 15
0 8 -4 15 -10 15 -5 0 -7 7 -4 15 6 15 -7 21 -19 8z"/>
<path d="M6332 2478 c-17 -17 -15 -42 6 -61 43 -39 72 1 36 51 -17 25 -25 27
-42 10z m48 -49 c0 -6 -7 -8 -16 -5 -9 3 -18 6 -20 6 -2 0 -4 7 -4 15 0 13 4
14 20 5 11 -6 20 -16 20 -21z"/>
<path d="M6550 2411 c0 -12 5 -21 10 -21 6 0 10 6 10 14 0 8 -4 18 -10 21 -5
3 -10 -3 -10 -14z"/>
<path d="M6561 2364 c0 -11 3 -14 6 -6 3 7 2 16 -1 19 -3 4 -6 -2 -5 -13z"/>
<path d="M8458 9138 c2 -32 1 -39 -7 -28 -8 11 -11 5 -11 -28 0 -35 -6 -50
-29 -73 -32 -31 -27 -43 14 -33 31 8 95 80 95 108 0 22 -45 96 -58 96 -4 0 -6
-19 -4 -42z"/>
<path d="M7525 8330 c-3 -6 4 -10 18 -10 14 0 30 -7 37 -15 7 -8 19 -15 26
-15 16 0 39 -41 48 -86 6 -28 4 -32 -23 -44 -36 -15 -80 -6 -118 23 -23 18
-25 18 -13 3 28 -35 155 -78 135 -46 -3 5 0 7 8 4 8 -3 18 5 25 20 9 21 7 34
-14 80 -14 31 -37 65 -51 76 -27 21 -68 27 -78 10z"/>
<path d="M7706 8302 c-5 -8 10 -144 20 -174 8 -27 33 -22 46 10 7 15 18 35 27
45 18 22 11 29 -36 36 -29 5 -38 11 -38 26 0 16 6 19 30 17 16 -2 36 -8 43
-14 18 -15 26 -3 13 21 -14 25 -94 51 -105 33z m51 -164 c-3 -7 -5 -2 -5 12 0
14 2 19 5 13 2 -7 2 -19 0 -25z"/>
<path d="M7872 8192 c-55 -114 -55 -130 -4 -93 15 10 39 20 55 23 23 5 30 1
43 -28 19 -39 31 -43 36 -11 3 21 4 21 35 -9 45 -44 89 -59 120 -39 15 10 23
25 23 43 0 38 -8 46 -63 70 -35 16 -48 26 -45 39 5 27 37 28 64 2 27 -25 39
-21 29 10 -8 28 -41 44 -84 43 -38 -2 -51 -14 -51 -53 0 -32 21 -52 83 -79 26
-12 47 -25 47 -31 0 -20 -29 -20 -69 0 -22 12 -49 22 -61 24 -29 5 -34 13 -55
87 -34 118 -48 118 -103 2z m63 18 c3 -19 11 -41 18 -49 9 -11 4 -10 -20 3
-36 18 -38 24 -21 61 14 30 15 29 23 -15z"/>
<path d="M8202 8197 c2 -14 14 -24 36 -31 l32 -9 0 -78 c0 -64 3 -79 15 -79
12 0 15 16 15 80 l0 80 31 0 c20 0 29 4 27 12 -5 13 -57 31 -121 41 -35 5 -38
4 -35 -16z"/>
<path d="M8384 8085 c3 -53 9 -101 12 -106 7 -12 124 -12 124 0 0 10 -35 21
-71 21 -20 0 -28 6 -31 25 -7 33 -3 35 48 28 35 -5 44 -3 44 9 0 17 -29 28
-72 28 -23 0 -28 4 -28 26 0 26 1 26 54 20 33 -5 57 -3 60 3 10 15 -30 32 -91
38 l-55 6 6 -98z"/>
<path d="M8560 8046 c0 -64 4 -106 10 -106 6 0 10 16 10 35 0 19 4 35 9 35 5
0 24 -17 42 -37 52 -61 54 -60 56 43 2 93 2 94 -25 108 -15 8 -44 17 -65 21
l-37 7 0 -106z m71 54 c21 -12 26 -54 8 -66 -14 -9 -35 14 -43 49 -7 29 2 34
35 17z m39 -117 c-1 -24 -2 -26 -11 -10 -5 9 -7 22 -4 27 10 17 15 11 15 -17z"/>
<path d="M8726 8068 c-8 -72 -8 -136 2 -141 16 -10 102 -18 102 -9 0 4 -16 16
-35 25 -23 11 -35 24 -35 37 0 18 5 20 36 18 52 -4 53 17 2 28 -37 8 -43 13
-43 34 0 23 4 25 44 25 24 0 46 5 48 11 4 12 -40 24 -87 24 -25 0 -28 -3 -34
-52z"/>
<path d="M494 8021 c-47 -21 -81 -64 -107 -136 l-18 -50 6 45 c3 25 10 49 16
55 11 11 12 25 1 25 -18 0 -32 -54 -32 -120 0 -220 175 -420 347 -396 126 17
191 153 149 314 -33 129 -92 211 -180 253 -71 34 -123 37 -182 10z m199 -50
c78 -50 130 -150 142 -277 6 -60 4 -76 -15 -116 -34 -72 -101 -107 -172 -87
-55 14 -137 99 -178 183 -29 59 -34 80 -34 140 0 57 5 80 24 114 31 55 60 71
131 72 44 0 64 -6 102 -29z m-123 -468 c0 -7 -39 17 -46 28 -3 6 5 3 20 -6 14
-10 26 -19 26 -22z"/>
<path d="M540 7751 c0 -24 13 -33 34 -25 18 7 13 19 -15 34 -16 9 -19 7 -19
-9z"/>
<path d="M695 7751 c-11 -5 -23 -7 -27 -5 -4 3 -10 -1 -14 -7 -5 -9 1 -10 22
-4 16 4 41 7 57 7 15 1 27 5 27 9 0 11 -38 10 -65 0z"/>
<path d="M387 6910 c-39 -31 -61 -99 -53 -166 10 -85 75 -202 134 -240 22 -14
20 -10 -12 26 -64 71 -91 141 -91 236 0 91 12 115 73 141 17 7 32 15 32 18 0
14 -61 2 -83 -15z"/>
<path d="M680 6731 c0 -6 4 -13 10 -16 6 -3 7 1 4 9 -7 18 -14 21 -14 7z"/>
<path d="M1170 6287 c0 -109 6 -120 72 -115 l43 3 -3 65 c-4 108 -6 112 -89
135 -23 6 -23 5 -23 -88z m85 27 c21 -33 17 -37 -23 -22 -20 8 -32 19 -32 30
0 27 35 22 55 -8z m-13 -61 c29 -26 23 -53 -12 -53 -28 0 -30 3 -30 35 0 38
13 44 42 18z"/>
<path d="M1309 6283 c-7 -39 6 -119 20 -130 25 -19 71 -16 71 5 0 13 7 9 28
-16 15 -18 33 -32 40 -32 18 0 15 11 -15 43 l-28 30 25 -6 c14 -4 28 -7 32 -7
3 0 9 -14 13 -30 11 -49 22 -25 17 37 -3 40 -1 55 6 48 6 -5 12 -34 14 -64 2
-32 8 -56 15 -58 10 -4 11 11 7 59 -9 92 5 71 42 -59 2 -7 7 -13 12 -13 5 0 7
23 4 50 -7 79 30 62 43 -19 10 -59 22 -35 15 31 l-5 53 -44 11 c-30 7 -48 18
-54 32 -9 20 -11 20 -22 5 -11 -15 -16 -16 -38 -4 -35 19 -55 5 -28 -20 24
-22 27 -39 8 -39 -18 0 -47 37 -41 54 5 14 -21 30 -36 21 -15 -9 1 -43 23 -50
20 -7 19 -8 -8 -14 -29 -6 -30 -5 -33 31 -2 21 -7 38 -11 38 -13 0 -20 -73 -9
-87 15 -19 0 -35 -23 -23 -15 9 -19 22 -19 70 0 33 -4 60 -10 60 -5 0 -11 -3
-11 -7z"/>
<path d="M1696 6158 c9 -69 14 -88 23 -88 13 0 12 102 -1 117 -20 24 -28 13
-22 -29z"/>
<path d="M1141 6083 c-16 -31 -26 -153 -12 -153 6 0 11 12 11 28 0 15 4 33 9
41 7 11 12 3 21 -28 6 -25 16 -41 23 -38 14 5 13 13 -8 92 -20 71 -29 84 -44
58z"/>
<path d="M2360 6075 c0 -14 2 -25 4 -25 2 0 13 -3 23 -6 17 -5 17 -5 0 6 -12
7 -16 18 -12 31 4 11 2 19 -4 19 -6 0 -11 -11 -11 -25z"/>
<path d="M1226 6036 c-7 -54 0 -106 14 -106 10 0 23 121 14 143 -11 31 -22 18
-28 -37z"/>
<path d="M2433 6063 c9 -2 25 -2 35 0 9 3 1 5 -18 5 -19 0 -27 -2 -17 -5z"/>
<path d="M2508 6053 c7 -3 16 -2 19 1 4 3 -2 6 -13 5 -11 0 -14 -3 -6 -6z"/>
<path d="M2551 6040 c8 -5 38 -11 65 -14 l49 -5 -50 14 c-59 17 -89 20 -64 5z"/>
<path d="M2410 6037 c0 -3 53 -17 118 -32 64 -15 173 -40 242 -55 69 -16 149
-33 178 -38 50 -9 52 -8 52 13 0 28 -31 42 -118 55 -37 6 -94 17 -127 25 -33
8 -67 14 -75 14 -8 0 1 -5 20 -10 19 -5 51 -14 70 -19 19 -5 70 -17 113 -26
42 -9 77 -20 77 -24 0 -10 -59 -3 -150 16 -78 17 -346 74 -377 81 -13 3 -23 3
-23 0z m580 -108 c0 -5 -7 -9 -15 -9 -9 0 -12 6 -9 15 6 15 24 11 24 -6z"/>
<path d="M1269 5969 l-16 -51 24 -11 c17 -8 29 -8 41 0 13 8 20 6 29 -6 11
-14 14 -14 23 -1 6 8 9 33 8 55 -2 32 -7 41 -24 43 -18 3 -20 -1 -16 -33 4
-32 2 -35 -21 -35 -21 0 -24 4 -19 28 3 15 9 30 15 33 5 4 6 12 3 18 -15 23
-32 9 -47 -40z"/>
<path d="M1407 5973 c-12 -19 -11 -97 1 -101 7 -2 12 5 12 17 0 16 6 21 25 21
16 0 25 -6 25 -15 0 -8 -9 -15 -21 -15 -11 0 -17 -4 -14 -10 10 -16 44 -11 53
8 4 9 5 35 2 57 -5 38 -7 40 -42 43 -20 2 -38 -1 -41 -5z m73 -34 c0 -5 -12
-7 -27 -3 -36 9 -40 13 -23 24 15 9 50 -5 50 -21z"/>
<path d="M2369 5961 c10 -18 93 -37 112 -26 17 11 180 -26 199 -45 11 -11 58
-27 117 -40 54 -12 117 -26 141 -32 45 -11 58 -8 49 15 -6 16 -168 58 -479
122 -147 31 -152 31 -139 6z"/>
<path d="M1514 5936 c-9 -36 1 -56 28 -56 l23 0 -22 18 c-26 20 -17 46 13 40
14 -2 20 -13 22 -43 l3 -41 -41 4 c-31 3 -40 1 -40 -11 0 -12 9 -14 40 -10 36
5 40 4 40 -16 0 -23 -6 -23 -59 -3 -10 4 -9 -2 3 -27 16 -31 39 -39 64 -23 18
12 25 68 15 132 -8 55 -8 55 -45 58 -33 3 -38 0 -44 -22z"/>
<path d="M1627 5923 c-4 -3 -7 -21 -7 -39 0 -38 41 -77 74 -72 18 3 21 10 20
47 -1 30 -7 48 -19 58 -20 14 -57 18 -68 6z m65 -51 l21 -34 -28 4 c-32 4 -51
28 -42 52 9 24 24 17 49 -22z"/>
<path d="M1742 5853 c12 -79 31 -96 22 -20 -4 35 -3 57 3 57 12 0 33 -44 33
-68 0 -9 5 -24 11 -32 8 -11 9 -3 6 33 -5 55 13 61 24 8 4 -19 16 -43 28 -54
l21 -21 0 62 c0 54 -2 62 -19 62 -10 0 -35 7 -54 15 -20 8 -47 15 -60 15 -24
0 -24 -1 -15 -57z m127 -26 c0 -27 -2 -29 -9 -12 -12 28 -12 57 0 50 6 -3 10
-21 9 -38z"/>
<path d="M1917 5862 c-33 -37 5 -129 50 -120 24 4 41 95 21 114 -24 22 -54 25
-71 6z m51 -24 c17 -17 15 -29 -3 -22 -8 4 -15 3 -15 -1 0 -3 7 -13 15 -21 22
-22 18 -36 -7 -32 -19 2 -24 10 -26 46 -3 44 11 55 36 30z"/>
<path d="M2420 5836 c0 -37 3 -38 93 -51 26 -4 47 -12 47 -17 0 -5 -14 -29
-31 -54 -40 -59 -69 -123 -69 -156 0 -23 4 -28 25 -28 14 0 25 5 25 11 0 21
79 180 105 210 14 17 25 36 25 43 0 7 -33 20 -77 31 -43 10 -93 25 -110 32
l-33 13 0 -34z"/>
<path d="M2020 5785 c0 -30 4 -55 9 -55 12 0 26 84 16 99 -15 25 -25 7 -25
-44z"/>
<path d="M2651 5774 c-27 -34 -18 -47 29 -39 32 5 40 3 54 -17 9 -12 16 -30
16 -40 0 -26 17 -22 51 14 27 26 35 30 57 22 14 -5 34 -21 45 -35 26 -36 15
-53 -70 -109 -58 -38 -68 -50 -71 -77 -3 -30 -1 -32 35 -38 21 -4 66 -13 101
-19 66 -13 72 -12 72 14 0 11 -18 22 -55 34 -30 9 -55 23 -55 29 0 7 14 21 31
31 37 22 69 72 69 108 0 36 -52 95 -92 104 -27 5 -35 2 -54 -21 -21 -26 -22
-27 -28 -7 -8 23 -74 72 -98 72 -9 0 -26 -12 -37 -26z"/>
<path d="M376 5723 c-8 -8 -8 -96 0 -117 10 -27 24 -7 24 37 l0 42 21 -25 c11
-14 38 -49 60 -77 38 -51 69 -68 69 -40 0 8 9 22 20 32 19 17 21 17 42 -1 12
-10 34 -32 49 -49 l27 -30 32 53 c18 28 36 52 39 52 3 -1 26 -33 50 -71 24
-39 50 -73 57 -76 17 -6 76 30 107 67 l24 28 32 -28 c28 -26 31 -27 31 -9 0
20 -41 69 -58 69 -4 0 -32 -23 -61 -51 -30 -28 -59 -49 -69 -47 -9 2 -34 35
-55 73 -54 100 -59 103 -87 62 -13 -19 -33 -40 -44 -47 -18 -11 -24 -8 -57 31
l-37 44 -35 -39 -34 -40 -33 50 c-55 81 -98 122 -114 107z"/>
<path d="M1107 5715 c32 -13 174 -38 181 -31 4 5 -174 46 -196 46 -9 -1 -2 -7
15 -15z"/>
<path d="M1318 5673 c7 -3 16 -2 19 1 4 3 -2 6 -13 5 -11 0 -14 -3 -6 -6z"/>
<path d="M1358 5663 c7 -3 16 -2 19 1 4 3 -2 6 -13 5 -11 0 -14 -3 -6 -6z"/>
<path d="M1398 5653 c7 -3 16 -2 19 1 4 3 -2 6 -13 5 -11 0 -14 -3 -6 -6z"/>
<path d="M1555 5615 c46 -17 225 -55 252 -54 10 0 -45 16 -122 35 -147 36
-197 43 -130 19z"/>
<path d="M2475 5390 c11 -5 29 -8 40 -8 16 0 15 2 -5 8 -34 11 -60 11 -35 0z"/>
<path d="M2560 5370 c14 -4 34 -8 45 -8 16 0 15 2 -5 8 -14 4 -34 8 -45 8 -16
0 -15 -2 5 -8z"/>
<path d="M2645 5350 c11 -5 31 -9 45 -9 23 0 23 1 5 9 -11 5 -31 9 -45 9 -23
0 -23 -1 -5 -9z"/>
<path d="M436 3998 c-7 -29 10 -47 19 -19 9 29 37 28 33 -1 -2 -15 -11 -24
-26 -26 -26 -4 -20 -22 8 -22 28 0 43 33 28 64 -15 33 -53 35 -62 4z"/>
<path d="M606 3933 c-11 -57 -41 -103 -76 -116 -17 -6 -30 -15 -30 -19 0 -11
11 -10 48 3 40 14 75 82 70 136 l-4 38 -8 -42z"/>
<path d="M656 3915 c-3 -13 -20 -40 -37 -60 -17 -19 -26 -35 -21 -35 16 0 59
60 67 93 4 15 5 27 2 27 -3 0 -8 -11 -11 -25z"/>
<path d="M1680 3075 c-18 -21 8 -39 75 -54 27 -6 91 -20 140 -31 104 -22 166
-25 183 -8 9 9 12 9 12 0 0 -6 -7 -15 -16 -20 -14 -8 -14 -11 7 -26 13 -9 42
-16 64 -16 65 -1 194 -29 295 -63 25 -9 72 -21 105 -28 33 -7 64 -16 70 -21 5
-4 21 -8 35 -8 14 0 30 -4 35 -8 6 -5 37 -15 70 -22 178 -37 245 -53 290 -65
28 -8 70 -17 95 -21 45 -6 172 -39 350 -89 138 -38 248 -65 273 -66 12 0 38
-6 57 -13 32 -11 39 -10 73 12 47 28 63 20 22 -12 l-28 -23 94 -21 c95 -22
186 -40 314 -62 39 -6 124 -25 190 -42 66 -16 145 -36 175 -43 175 -42 242
-59 300 -76 36 -10 108 -25 160 -34 52 -9 145 -28 205 -44 61 -16 171 -43 245
-60 74 -18 144 -36 155 -41 34 -13 94 -28 230 -56 72 -14 182 -39 245 -56 214
-56 428 -106 525 -122 11 -2 39 -11 62 -19 22 -9 56 -18 75 -21 18 -3 96 -21
173 -40 77 -19 166 -39 198 -45 32 -6 63 -14 69 -17 16 -10 145 -42 263 -66
55 -11 132 -29 170 -41 73 -21 263 -66 500 -117 77 -17 174 -39 215 -50 166
-43 350 -84 456 -100 67 -10 132 -24 259 -57 33 -8 82 -19 110 -24 27 -4 79
-15 115 -23 36 -8 99 -20 140 -26 176 -25 268 -42 310 -56 25 -8 54 -17 65
-19 27 -6 273 -56 308 -62 l27 -5 0 446 c0 245 -4 446 -8 446 -17 0 -53 -43
-48 -56 6 -16 -10 -19 -19 -4 -11 17 -25 11 -35 -14 -8 -22 -15 -25 -62 -24
-40 0 -57 5 -70 21 -10 11 -21 17 -26 12 -4 -4 -1 -10 5 -12 15 -5 17 -33 3
-33 -5 0 -10 5 -10 11 0 8 -4 8 -14 0 -8 -7 -25 -9 -40 -5 -39 10 -76 -3 -76
-26 0 -23 -24 -26 -77 -11 -24 7 -35 6 -44 -5 -6 -8 -20 -14 -29 -14 -10 0
-20 -6 -23 -12 -2 -7 -8 -10 -12 -6 -5 5 -3 20 4 35 14 31 13 30 -54 -47 -40
-44 -134 -130 -215 -193 -8 -7 -42 -34 -75 -61 -76 -62 -149 -95 -237 -106
-70 -8 -82 -8 -213 12 -67 10 -469 101 -585 133 -30 8 -161 40 -290 69 -270
63 -375 88 -660 157 -882 215 -1146 279 -1365 329 -77 18 -194 46 -260 62 -66
17 -156 38 -200 48 -169 38 -365 83 -500 117 -77 19 -191 45 -254 59 -62 13
-204 47 -315 74 -110 27 -261 61 -334 75 -73 14 -156 34 -185 44 -29 10 -73
22 -98 26 -24 3 -118 24 -209 46 -91 21 -237 55 -325 75 -88 19 -367 87 -620
149 -518 127 -870 210 -931 220 -31 5 -44 2 -54 -10z m8537 -1187 c-3 -8 -6
-5 -6 6 -1 11 2 17 5 13 3 -3 4 -12 1 -19z m-164 -75 c-7 -2 -21 -2 -30 0 -10
3 -4 5 12 5 17 0 24 -2 18 -5z"/>
<path d="M540 2745 c-131 -27 -212 -67 -277 -138 -79 -85 -79 -159 0 -244 52
-56 75 -58 47 -3 -25 49 -25 80 -1 129 41 79 137 142 271 177 90 24 301 24
390 1 179 -47 303 -166 271 -258 -14 -41 5 -27 24 18 43 103 -17 204 -160 268
-103 46 -208 65 -359 64 -78 0 -170 -7 -206 -14z m715 -205 c8 -16 15 -44 14
-62 -1 -31 -2 -31 -9 9 -5 23 -14 51 -20 63 -6 11 -8 20 -6 20 3 0 12 -13 21
-30z"/>
<path d="M1358 2452 c-1 -26 -2 -83 -3 -127 -1 -44 -7 -97 -14 -117 -11 -33
-66 -88 -89 -88 -5 0 -15 -7 -22 -15 -7 -9 -19 -14 -26 -11 -7 3 -15 -1 -17
-8 -9 -23 -127 -77 -226 -103 -83 -23 -117 -26 -246 -26 -106 0 -170 5 -219
17 -38 9 -71 15 -73 13 -7 -8 133 -46 207 -57 41 -6 106 -18 144 -27 107 -25
372 -5 450 34 15 8 51 21 80 28 28 8 94 36 146 62 79 41 99 56 117 88 28 52
28 99 0 155 -29 59 -50 83 -174 199 l-33 30 -2 -47z"/>
<path d="M2125 2260 c-22 -4 -51 -12 -65 -17 -39 -16 -532 -287 -650 -357 -58
-34 -161 -93 -230 -131 -69 -37 -197 -109 -285 -160 -88 -50 -252 -142 -365
-204 -223 -122 -280 -167 -280 -221 0 -35 19 -78 46 -101 20 -17 211 -82 439
-149 77 -23 190 -56 250 -75 303 -91 356 -105 428 -115 109 -16 207 0 311 48
71 34 351 188 705 389 112 64 214 121 506 283 83 46 168 95 190 110 22 15 72
43 110 63 81 43 177 115 202 153 55 84 -10 156 -178 199 -35 9 -201 61 -369
115 -168 55 -336 107 -375 115 -38 9 -93 23 -122 31 -101 30 -192 38 -268 24z
m229 -63 l50 -13 -37 -28 c-76 -58 -47 -79 199 -146 82 -23 192 -54 244 -71
115 -35 147 -36 210 -4 60 30 74 31 170 5 124 -34 160 -50 171 -77 18 -48 -8
-72 -167 -157 -82 -43 -183 -99 -225 -122 -42 -24 -79 -44 -83 -44 -3 0 -35
-17 -69 -39 -91 -57 -301 -177 -467 -266 -80 -43 -188 -104 -241 -136 -92 -55
-356 -203 -429 -240 -19 -10 -68 -25 -109 -34 -99 -21 -148 -13 -421 70 -96
29 -288 85 -425 124 -383 108 -385 109 -385 163 0 36 28 56 220 158 85 46 241
131 345 190 105 59 253 142 330 185 77 43 176 99 220 125 253 150 626 356 665
367 51 15 158 10 234 -10z m386 -137 c20 -6 21 -8 5 -8 -11 0 -33 4 -50 8 -27
7 -27 8 -5 8 14 0 36 -4 50 -8z m-2355 -995 c39 -17 21 -18 -25 0 -19 7 -28
14 -20 14 8 0 29 -6 45 -14z m62 -21 c-3 -3 -12 -4 -19 -1 -8 3 -5 6 6 6 11 1
17 -2 13 -5z"/>
<path d="M4925 1976 c-37 -16 -87 -72 -117 -129 -34 -66 -30 -159 11 -242 60
-121 160 -195 265 -195 30 0 58 5 61 10 4 6 -7 10 -25 10 -113 0 -242 142
-257 284 -8 78 3 122 43 166 68 75 174 89 252 34 l37 -26 -42 39 c-63 59 -158
80 -228 49z"/>
<path d="M3801 1828 c-85 -24 -159 -104 -202 -217 -50 -134 -12 -347 89 -502
70 -107 171 -203 261 -247 68 -33 83 -37 155 -37 71 0 88 4 134 30 30 16 65
43 79 60 164 193 100 590 -130 802 -104 96 -272 144 -386 111z m249 -83 c44
-16 138 -86 169 -127 139 -184 188 -453 104 -579 -44 -67 -124 -109 -207 -109
-47 0 -158 37 -169 56 -4 8 -14 14 -22 14 -22 0 -141 121 -164 167 -61 123
-83 306 -47 410 21 64 46 97 100 130 81 52 161 64 236 38z"/>
<path d="M4104 1476 c30 -44 34 -91 10 -104 -15 -9 -15 -13 0 -54 27 -70 19
-99 -34 -126 -44 -22 -77 -63 -65 -82 12 -19 74 -22 124 -5 59 19 101 63 101
105 0 90 -57 207 -135 280 l-27 25 26 -39z"/>
<path d="M4005 1460 c3 -5 8 -10 11 -10 2 0 4 5 4 10 0 6 -5 10 -11 10 -5 0
-7 -4 -4 -10z"/>
<path d="M3940 1455 c0 -5 5 -17 10 -25 5 -8 10 -10 10 -5 0 6 -5 17 -10 25
-5 8 -10 11 -10 5z"/>
<path d="M4037 1429 c4 -13 8 -18 11 -10 2 7 -1 18 -6 23 -8 8 -9 4 -5 -13z"/>
<path d="M5146 1637 c-26 -26 -46 -50 -43 -53 9 -9 66 26 83 51 32 49 9 50
-40 2z"/>
<path d="M3445 1564 c-11 -8 -94 -56 -185 -106 -91 -50 -194 -108 -230 -128
-345 -199 -533 -304 -735 -412 -77 -41 -202 -110 -277 -152 -75 -42 -144 -76
-152 -76 -9 0 -16 -5 -16 -12 0 -6 -3 -9 -6 -6 -3 4 -47 -15 -97 -42 -167 -87
-296 -100 -451 -43 -118 42 -310 101 -367 112 -30 6 -67 15 -84 20 l-30 10 30
-2 c43 -1 55 9 55 47 0 44 -22 62 -99 82 -71 18 -82 13 -83 -36 -1 -35 12 -50
67 -77 43 -20 10 -11 -155 45 -80 27 -159 52 -175 56 -29 7 -29 7 -10 -8 11
-8 28 -16 37 -16 9 0 18 -4 20 -8 4 -10 103 -45 206 -72 39 -11 100 -30 135
-44 34 -14 91 -30 127 -36 36 -7 142 -36 235 -66 214 -68 380 -110 470 -119
124 -12 190 6 380 99 94 46 200 98 238 116 37 18 67 36 67 40 0 10 170 93 177
86 3 -3 12 3 19 13 15 21 116 81 138 81 8 0 16 7 20 15 3 8 13 15 23 15 21 0
87 34 113 58 10 9 67 46 127 82 59 36 142 88 183 117 41 29 93 62 115 74 22
12 42 24 45 28 3 3 24 19 48 34 23 15 42 33 42 40 0 12 53 67 65 67 2 0 9 -15
14 -32 7 -25 9 -10 7 65 -1 75 -4 96 -14 92 -7 -3 -10 0 -7 5 9 15 -7 12 -30
-6z"/>
<path d="M6072 1535 c-94 -26 -158 -69 -188 -127 -30 -58 -7 -145 52 -198 20
-18 24 -19 14 -5 -8 11 -17 22 -20 25 -15 14 -30 65 -30 99 0 85 90 155 240
187 110 23 197 14 285 -30 44 -23 61 -28 45 -15 -14 11 -50 32 -80 46 -46 22
-72 27 -160 30 -71 2 -122 -2 -158 -12z"/>
<path d="M5435 1510 c-4 -6 -24 -19 -45 -30 -21 -11 -63 -44 -93 -74 -66 -66
-108 -80 -224 -74 -75 4 -80 3 -61 -10 54 -38 290 -82 442 -82 160 0 246 33
246 94 0 30 -35 55 -103 75 -23 7 -68 24 -99 38 -52 24 -56 28 -47 49 8 24 -4
34 -16 14z"/>
<path d="M6400 1333 c0 -28 -54 -61 -127 -78 -52 -12 -62 -11 -108 6 -56 21
-75 24 -75 9 0 -5 11 -10 24 -10 13 0 40 -7 59 -15 20 -8 56 -15 80 -15 83 0
193 78 159 112 -9 9 -12 7 -12 -9z"/>
<path d="M5772 1305 c0 -16 2 -22 5 -12 2 9 2 23 0 30 -3 6 -5 -1 -5 -18z"/>
<path d="M6631 1252 c-17 -40 -81 -98 -149 -135 -77 -42 -233 -80 -327 -79
-138 1 -278 61 -327 140 l-23 37 -3 -28 c-2 -15 4 -52 13 -83 31 -108 132
-179 295 -208 36 -6 71 -15 77 -19 7 -4 72 -12 145 -18 73 -5 159 -12 190 -15
50 -4 205 17 228 31 5 3 10 -1 13 -7 2 -8 11 0 20 17 26 50 90 104 178 151 76
41 80 45 47 42 -20 -2 -36 0 -35 5 1 5 -20 17 -48 27 -168 59 -272 117 -277
153 -3 19 -5 18 -17 -11z"/>
<path d="M7155 1045 c-33 -8 -65 -14 -71 -14 -23 -2 -186 -119 -205 -147 -27
-41 -24 -97 7 -150 35 -60 48 -65 24 -9 -34 80 -28 111 33 167 28 27 74 60
100 74 57 30 206 70 302 83 l70 8 -100 1 c-55 0 -127 -6 -160 -13z"/>
<path d="M5223 975 c3 -11 23 -65 44 -119 35 -91 62 -130 79 -114 7 8 -85 203
-111 233 l-16 20 4 -20z"/>
<path d="M341 943 c-1 -17 9 -24 46 -37 25 -9 48 -14 51 -11 8 7 -7 35 -18 35
-6 0 -8 -4 -5 -10 3 -5 2 -10 -4 -10 -6 0 -16 10 -22 22 -8 14 -14 18 -17 10
-6 -18 -20 -15 -25 6 -4 13 -5 12 -6 -5z"/>
<path d="M470 899 c0 -5 -4 -7 -10 -4 -5 3 -10 2 -10 -3 0 -18 30 -22 30 -4 1
15 2 15 15 -2 16 -22 31 -16 22 9 -7 17 -47 21 -47 4z"/>
<path d="M530 881 c0 -22 19 -30 21 -8 0 6 4 3 8 -8 5 -11 12 -20 17 -20 5 -1
19 -5 32 -9 13 -4 26 -6 29 -3 11 12 -18 45 -44 50 -15 3 -36 9 -45 12 -14 6
-18 2 -18 -14z m85 -21 c3 -5 1 -10 -4 -10 -6 0 -11 5 -11 10 0 6 2 10 4 10 3
0 8 -4 11 -10z"/>
<path d="M4275 749 c-56 -28 -66 -30 -155 -26 -52 2 -104 8 -115 12 -19 8 -19
7 1 -13 31 -30 296 -116 469 -152 83 -18 158 -36 167 -41 9 -5 26 -9 37 -9 12
0 30 -9 40 -19 32 -32 50 -38 237 -85 98 -25 205 -54 237 -65 31 -11 57 -18
57 -16 0 2 51 -10 113 -27 183 -49 188 -50 277 -46 103 6 153 29 305 144 17
13 68 42 115 65 82 41 119 71 120 96 0 16 -31 32 -100 54 l-55 17 -5 47 -5 47
-30 -32 c-16 -17 -86 -69 -155 -116 -69 -47 -171 -117 -227 -155 l-103 -71
-132 40 c-181 55 -219 65 -398 106 -259 59 -289 74 -254 124 17 25 4 37 -50
48 -22 4 -90 24 -150 45 -61 22 -121 39 -133 39 -12 0 -25 5 -28 10 -8 14 -11
13 -80 -21z"/>
<path d="M2940 744 c0 -9 -6 -14 -12 -12 -7 3 -26 -8 -43 -24 -35 -34 -107
-73 -150 -82 -16 -3 -52 0 -80 7 -27 7 -58 11 -67 9 -19 -4 -23 -28 -10 -49
15 -24 107 -56 173 -61 52 -3 66 -8 65 -20 -1 -20 33 -30 112 -31 66 -1 113
16 144 52 16 18 16 20 0 42 -15 21 -107 70 -124 66 -4 0 -5 26 -1 59 3 33 3
60 -1 60 -3 0 -6 -7 -6 -16z"/>
<path d="M5761 738 c-24 -11 -71 -26 -105 -34 l-61 -14 75 5 c108 7 117 9 140
30 42 38 20 45 -49 13z"/>
<path d="M1020 736 c0 -13 51 -46 72 -46 4 0 8 10 7 23 0 20 -1 20 -8 3 -7
-18 -8 -18 -14 -2 -4 9 -11 14 -17 11 -6 -3 -13 1 -16 9 -8 20 -24 21 -24 2z"/>
<path d="M7765 717 c-20 -32 -60 -57 -190 -122 -38 -19 -61 -35 -51 -35 73 0
-144 -59 -259 -71 -92 -9 -108 -8 -200 15 -94 23 -101 23 -119 8 -10 -9 -23
-28 -28 -42 -9 -25 -10 -25 -27 -5 -9 11 -27 29 -41 40 l-23 20 24 -33 c25
-35 104 -91 154 -110 77 -28 223 -60 399 -88 112 -17 418 -22 466 -6 74 23
259 64 268 58 5 -3 25 -1 45 5 33 9 37 14 37 42 1 29 2 30 14 15 7 -10 15 -15
18 -13 3 3 -12 22 -31 43 -20 21 -52 60 -70 88 -19 27 -31 40 -27 29 5 -17 4
-18 -6 -5 -27 32 -208 139 -273 161 -22 8 -44 19 -50 26 -7 8 -15 3 -30 -20z"/>
<path d="M5240 719 c-14 -4 -47 -7 -73 -8 -55 -1 -115 -23 -123 -46 -10 -25
-1 -26 67 -10 96 22 134 20 157 -10 11 -14 23 -25 26 -25 12 0 5 59 -8 67 -8
4 -15 15 -17 24 -3 11 -11 13 -29 8z"/>
<path d="M1117 701 c-5 -22 1 -33 14 -25 12 7 12 44 0 44 -5 0 -11 -9 -14 -19z"/>
<path d="M1160 684 c0 -14 4 -23 9 -20 5 4 11 0 14 -6 2 -7 8 -10 12 -5 9 8
-14 57 -27 57 -4 0 -8 -12 -8 -26z"/>
<path d="M1220 666 c0 -13 7 -26 15 -30 11 -4 15 1 15 18 0 13 -7 26 -15 30
-11 4 -15 -1 -15 -18z"/>
<path d="M5442 666 c-6 -13 -20 -27 -31 -31 -28 -8 -27 -29 0 -22 15 4 23 0
26 -14 4 -15 14 -19 42 -18 81 2 113 27 62 48 -16 7 -39 23 -52 37 -28 30 -33
30 -47 0z"/>
<path d="M1280 647 c0 -14 7 -28 16 -31 12 -5 15 0 12 21 -4 35 -28 43 -28 10z"/>
<path d="M8548 589 c-4 -61 -11 -88 -35 -130 -42 -75 -71 -94 -141 -93 -54 0
-55 0 -27 -12 17 -7 38 -13 48 -14 10 0 36 -9 57 -20 124 -63 233 -87 436 -95
l140 -6 42 27 c34 22 40 30 30 42 -15 18 -49 32 -113 48 -84 20 -205 54 -249
70 -22 9 -59 19 -81 24 -22 5 -47 11 -56 15 -10 4 -29 -4 -48 -21 l-32 -27 21
40 c23 45 36 153 22 198 -7 25 -10 19 -14 -46z"/>
</g>
</svg>
